M48
;DRILL file {KiCad 4.0.5} date 02/13/17 16:43:35
;FORMAT={2:4/ absolute / inch / suppress leading zeros}
FMAT,2
INCH,TZ
T1C0.031
T2C0.039
T3C0.040
T4C0.047
T5C0.047
T6C0.120
%
G90
G05
M72
T1
X33750Y-21750
X33750Y-25750
X33750Y-26750
X33750Y-28719
X35250Y-21750
X35250Y-25750
X35250Y-27750
X35250Y-31750
X36750Y-21750
X36750Y-25750
X37000Y-30750
X37787Y-30750
X38000Y-21750
X38000Y-24750
X38000Y-25750
X38000Y-26750
X38000Y-27750
X39250Y-30750
X40531Y-29250
X41000Y-24750
X41000Y-25750
X41000Y-26750
X41000Y-27750
X41219Y-30750
X41250Y-32000
X42000Y-21750
X42500Y-23750
X42500Y-27750
X42500Y-29250
X44000Y-26750
X44000Y-30750
X44250Y-32000
X44500Y-23000
X44500Y-23787
X45500Y-28000
X45500Y-32000
X47625Y-34375
X47625Y-37375
X48625Y-34375
X48625Y-37375
X49625Y-34375
X49625Y-37375
X50625Y-34375
X50625Y-37375
X51625Y-34375
X51625Y-37375
X52125Y-18875
X52125Y-20375
X52125Y-21875
X52500Y-33000
X52531Y-39000
X52625Y-34375
X52625Y-37375
X53625Y-34375
X53625Y-37375
X54469Y-33000
X54500Y-39000
X54625Y-34375
X54625Y-37375
X55625Y-34375
X55625Y-37375
X56125Y-18875
X56125Y-20375
X56125Y-21875
X56250Y-25500
X56250Y-26500
X56250Y-27500
X56625Y-34375
X56625Y-37375
X57375Y-20375
X57375Y-24375
X57375Y-28375
X57375Y-32375
X57625Y-34375
X57625Y-37375
X58500Y-25500
X58500Y-26500
X58500Y-27500
X58625Y-34375
X58625Y-37375
X59625Y-20375
X59625Y-24375
X59625Y-28375
X59625Y-32375
X59625Y-34375
X59625Y-37375
X60625Y-34375
X60625Y-37375
X60750Y-25500
X60750Y-26500
X60750Y-27500
X61875Y-20375
X61875Y-24375
X61875Y-28375
X61875Y-32375
T2
X33750Y-29750
X33750Y-30750
X33750Y-31750
X43500Y-34750
X43500Y-35750
X43888Y-37425
X43888Y-39000
X44500Y-34750
X44500Y-35750
X45500Y-34750
X45500Y-35750
X46250Y-37425
X46250Y-39000
T3
X57750Y-17750
X58750Y-17750
X59750Y-17750
X60750Y-17750
T4
X35312Y-18000
X37281Y-18000
X38500Y-39000
X39250Y-18000
X40469Y-39000
X42438Y-39000
X44562Y-18000
X46531Y-18000
X48500Y-18000
T5
X34500Y-34000
X34500Y-35000
X34500Y-36000
X34500Y-37000
X34500Y-38000
X34500Y-39000
T6
X33750Y-18500
X62000Y-38750
T0
M30
