G04 #@! TF.FileFunction,Legend,Top*
%FSLAX46Y46*%
G04 Gerber Fmt 4.6, Leading zero omitted, Abs format (unit mm)*
G04 Created by KiCad (PCBNEW 4.0.5) date 02/13/17 16:43:30*
%MOMM*%
%LPD*%
G01*
G04 APERTURE LIST*
%ADD10C,0.100000*%
%ADD11C,0.300000*%
%ADD12C,0.250000*%
%ADD13C,0.120000*%
%ADD14C,0.150000*%
G04 APERTURE END LIST*
D10*
D11*
X101298572Y-89348571D02*
X101798572Y-90848571D01*
X102298572Y-89348571D01*
X103012858Y-90848571D02*
X102870000Y-90777143D01*
X102798572Y-90705714D01*
X102727143Y-90562857D01*
X102727143Y-90134286D01*
X102798572Y-89991429D01*
X102870000Y-89920000D01*
X103012858Y-89848571D01*
X103227143Y-89848571D01*
X103370000Y-89920000D01*
X103441429Y-89991429D01*
X103512858Y-90134286D01*
X103512858Y-90562857D01*
X103441429Y-90705714D01*
X103370000Y-90777143D01*
X103227143Y-90848571D01*
X103012858Y-90848571D01*
X104370001Y-90848571D02*
X104227143Y-90777143D01*
X104155715Y-90634286D01*
X104155715Y-89348571D01*
X124007857Y-48867143D02*
X124222143Y-48938571D01*
X124579286Y-48938571D01*
X124722143Y-48867143D01*
X124793572Y-48795714D01*
X124865000Y-48652857D01*
X124865000Y-48510000D01*
X124793572Y-48367143D01*
X124722143Y-48295714D01*
X124579286Y-48224286D01*
X124293572Y-48152857D01*
X124150714Y-48081429D01*
X124079286Y-48010000D01*
X124007857Y-47867143D01*
X124007857Y-47724286D01*
X124079286Y-47581429D01*
X124150714Y-47510000D01*
X124293572Y-47438571D01*
X124650714Y-47438571D01*
X124865000Y-47510000D01*
X126079285Y-48867143D02*
X125936428Y-48938571D01*
X125650714Y-48938571D01*
X125507857Y-48867143D01*
X125436428Y-48724286D01*
X125436428Y-48152857D01*
X125507857Y-48010000D01*
X125650714Y-47938571D01*
X125936428Y-47938571D01*
X126079285Y-48010000D01*
X126150714Y-48152857D01*
X126150714Y-48295714D01*
X125436428Y-48438571D01*
X126793571Y-47938571D02*
X126793571Y-48938571D01*
X126793571Y-48081429D02*
X126864999Y-48010000D01*
X127007857Y-47938571D01*
X127222142Y-47938571D01*
X127364999Y-48010000D01*
X127436428Y-48152857D01*
X127436428Y-48938571D01*
X128079285Y-48867143D02*
X128222142Y-48938571D01*
X128507857Y-48938571D01*
X128650714Y-48867143D01*
X128722142Y-48724286D01*
X128722142Y-48652857D01*
X128650714Y-48510000D01*
X128507857Y-48438571D01*
X128293571Y-48438571D01*
X128150714Y-48367143D01*
X128079285Y-48224286D01*
X128079285Y-48152857D01*
X128150714Y-48010000D01*
X128293571Y-47938571D01*
X128507857Y-47938571D01*
X128650714Y-48010000D01*
X102183571Y-47510000D02*
X102040714Y-47438571D01*
X101826428Y-47438571D01*
X101612143Y-47510000D01*
X101469285Y-47652857D01*
X101397857Y-47795714D01*
X101326428Y-48081429D01*
X101326428Y-48295714D01*
X101397857Y-48581429D01*
X101469285Y-48724286D01*
X101612143Y-48867143D01*
X101826428Y-48938571D01*
X101969285Y-48938571D01*
X102183571Y-48867143D01*
X102255000Y-48795714D01*
X102255000Y-48295714D01*
X101969285Y-48295714D01*
X103540714Y-48938571D02*
X103540714Y-48152857D01*
X103469285Y-48010000D01*
X103326428Y-47938571D01*
X103040714Y-47938571D01*
X102897857Y-48010000D01*
X103540714Y-48867143D02*
X103397857Y-48938571D01*
X103040714Y-48938571D01*
X102897857Y-48867143D01*
X102826428Y-48724286D01*
X102826428Y-48581429D01*
X102897857Y-48438571D01*
X103040714Y-48367143D01*
X103397857Y-48367143D01*
X103540714Y-48295714D01*
X104255000Y-48938571D02*
X104255000Y-47938571D01*
X104255000Y-47438571D02*
X104183571Y-47510000D01*
X104255000Y-47581429D01*
X104326428Y-47510000D01*
X104255000Y-47438571D01*
X104255000Y-47581429D01*
X104969286Y-47938571D02*
X104969286Y-48938571D01*
X104969286Y-48081429D02*
X105040714Y-48010000D01*
X105183572Y-47938571D01*
X105397857Y-47938571D01*
X105540714Y-48010000D01*
X105612143Y-48152857D01*
X105612143Y-48938571D01*
D12*
X82637381Y-84423095D02*
X83637381Y-83756428D01*
X82637381Y-83756428D02*
X83637381Y-84423095D01*
X83637381Y-82899285D02*
X83637381Y-83375476D01*
X82637381Y-83375476D01*
X83637381Y-81994523D02*
X83161190Y-82327857D01*
X83637381Y-82565952D02*
X82637381Y-82565952D01*
X82637381Y-82184999D01*
X82685000Y-82089761D01*
X82732619Y-82042142D01*
X82827857Y-81994523D01*
X82970714Y-81994523D01*
X83065952Y-82042142D01*
X83113571Y-82089761D01*
X83161190Y-82184999D01*
X83161190Y-82565952D01*
X82851667Y-75017381D02*
X83470715Y-75017381D01*
X83137381Y-75398333D01*
X83280239Y-75398333D01*
X83375477Y-75445952D01*
X83423096Y-75493571D01*
X83470715Y-75588810D01*
X83470715Y-75826905D01*
X83423096Y-75922143D01*
X83375477Y-75969762D01*
X83280239Y-76017381D01*
X82994524Y-76017381D01*
X82899286Y-75969762D01*
X82851667Y-75922143D01*
X82899286Y-77652619D02*
X82946905Y-77605000D01*
X83042143Y-77557381D01*
X83280239Y-77557381D01*
X83375477Y-77605000D01*
X83423096Y-77652619D01*
X83470715Y-77747857D01*
X83470715Y-77843095D01*
X83423096Y-77985952D01*
X82851667Y-78557381D01*
X83470715Y-78557381D01*
X83470715Y-81097381D02*
X82899286Y-81097381D01*
X83185000Y-81097381D02*
X83185000Y-80097381D01*
X83089762Y-80240238D01*
X82994524Y-80335476D01*
X82899286Y-80383095D01*
X154233571Y-48188571D02*
X154281190Y-48045714D01*
X154328810Y-47998095D01*
X154424048Y-47950476D01*
X154566905Y-47950476D01*
X154662143Y-47998095D01*
X154709762Y-48045714D01*
X154757381Y-48140952D01*
X154757381Y-48521905D01*
X153757381Y-48521905D01*
X153757381Y-48188571D01*
X153805000Y-48093333D01*
X153852619Y-48045714D01*
X153947857Y-47998095D01*
X154043095Y-47998095D01*
X154138333Y-48045714D01*
X154185952Y-48093333D01*
X154233571Y-48188571D01*
X154233571Y-48521905D01*
X151265000Y-47998095D02*
X151217381Y-48093333D01*
X151217381Y-48236190D01*
X151265000Y-48379048D01*
X151360238Y-48474286D01*
X151455476Y-48521905D01*
X151645952Y-48569524D01*
X151788810Y-48569524D01*
X151979286Y-48521905D01*
X152074524Y-48474286D01*
X152169762Y-48379048D01*
X152217381Y-48236190D01*
X152217381Y-48140952D01*
X152169762Y-47998095D01*
X152122143Y-47950476D01*
X151788810Y-47950476D01*
X151788810Y-48140952D01*
X149677381Y-47950476D02*
X149201190Y-48283810D01*
X149677381Y-48521905D02*
X148677381Y-48521905D01*
X148677381Y-48140952D01*
X148725000Y-48045714D01*
X148772619Y-47998095D01*
X148867857Y-47950476D01*
X149010714Y-47950476D01*
X149105952Y-47998095D01*
X149153571Y-48045714D01*
X149201190Y-48140952D01*
X149201190Y-48521905D01*
X146756429Y-50228333D02*
X146756429Y-49466428D01*
X147137381Y-49847380D02*
X146375476Y-49847380D01*
X146232619Y-49037857D02*
X146185000Y-48990238D01*
X146137381Y-48895000D01*
X146137381Y-48656904D01*
X146185000Y-48561666D01*
X146232619Y-48514047D01*
X146327857Y-48466428D01*
X146423095Y-48466428D01*
X146565952Y-48514047D01*
X147137381Y-49085476D01*
X147137381Y-48466428D01*
X146470714Y-47609285D02*
X147137381Y-47609285D01*
X146089762Y-47847381D02*
X146804048Y-48085476D01*
X146804048Y-47466428D01*
X93813334Y-99512381D02*
X93480000Y-99036190D01*
X93241905Y-99512381D02*
X93241905Y-98512381D01*
X93622858Y-98512381D01*
X93718096Y-98560000D01*
X93765715Y-98607619D01*
X93813334Y-98702857D01*
X93813334Y-98845714D01*
X93765715Y-98940952D01*
X93718096Y-98988571D01*
X93622858Y-99036190D01*
X93241905Y-99036190D01*
X94146667Y-98512381D02*
X94813334Y-99512381D01*
X94813334Y-98512381D02*
X94146667Y-99512381D01*
X93218095Y-95972381D02*
X93789524Y-95972381D01*
X93503809Y-96972381D02*
X93503809Y-95972381D01*
X94027619Y-95972381D02*
X94694286Y-96972381D01*
X94694286Y-95972381D02*
X94027619Y-96972381D01*
X93789524Y-93432381D02*
X93313333Y-93432381D01*
X93265714Y-93908571D01*
X93313333Y-93860952D01*
X93408571Y-93813333D01*
X93646667Y-93813333D01*
X93741905Y-93860952D01*
X93789524Y-93908571D01*
X93837143Y-94003810D01*
X93837143Y-94241905D01*
X93789524Y-94337143D01*
X93741905Y-94384762D01*
X93646667Y-94432381D01*
X93408571Y-94432381D01*
X93313333Y-94384762D01*
X93265714Y-94337143D01*
X94122857Y-93432381D02*
X94456190Y-94432381D01*
X94789524Y-93432381D01*
X93360953Y-91892381D02*
X92789524Y-91892381D01*
X93075238Y-91892381D02*
X93075238Y-90892381D01*
X92980000Y-91035238D01*
X92884762Y-91130476D01*
X92789524Y-91178095D01*
X93741905Y-90987619D02*
X93789524Y-90940000D01*
X93884762Y-90892381D01*
X94122858Y-90892381D01*
X94218096Y-90940000D01*
X94265715Y-90987619D01*
X94313334Y-91082857D01*
X94313334Y-91178095D01*
X94265715Y-91320952D01*
X93694286Y-91892381D01*
X94313334Y-91892381D01*
X94599048Y-90892381D02*
X94932381Y-91892381D01*
X95265715Y-90892381D01*
X91583095Y-88971429D02*
X92345000Y-88971429D01*
X93345000Y-89352381D02*
X92773571Y-89352381D01*
X93059285Y-89352381D02*
X93059285Y-88352381D01*
X92964047Y-88495238D01*
X92868809Y-88590476D01*
X92773571Y-88638095D01*
X93725952Y-88447619D02*
X93773571Y-88400000D01*
X93868809Y-88352381D01*
X94106905Y-88352381D01*
X94202143Y-88400000D01*
X94249762Y-88447619D01*
X94297381Y-88542857D01*
X94297381Y-88638095D01*
X94249762Y-88780952D01*
X93678333Y-89352381D01*
X94297381Y-89352381D01*
X94583095Y-88352381D02*
X94916428Y-89352381D01*
X95249762Y-88352381D01*
X93218096Y-85860000D02*
X93122858Y-85812381D01*
X92980001Y-85812381D01*
X92837143Y-85860000D01*
X92741905Y-85955238D01*
X92694286Y-86050476D01*
X92646667Y-86240952D01*
X92646667Y-86383810D01*
X92694286Y-86574286D01*
X92741905Y-86669524D01*
X92837143Y-86764762D01*
X92980001Y-86812381D01*
X93075239Y-86812381D01*
X93218096Y-86764762D01*
X93265715Y-86717143D01*
X93265715Y-86383810D01*
X93075239Y-86383810D01*
X93694286Y-86812381D02*
X93694286Y-85812381D01*
X94265715Y-86812381D01*
X94265715Y-85812381D01*
X94741905Y-86812381D02*
X94741905Y-85812381D01*
X94980000Y-85812381D01*
X95122858Y-85860000D01*
X95218096Y-85955238D01*
X95265715Y-86050476D01*
X95313334Y-86240952D01*
X95313334Y-86383810D01*
X95265715Y-86574286D01*
X95218096Y-86669524D01*
X95122858Y-86764762D01*
X94980000Y-86812381D01*
X94741905Y-86812381D01*
X124650714Y-65587619D02*
X124698333Y-65540000D01*
X124793571Y-65492381D01*
X125031667Y-65492381D01*
X125126905Y-65540000D01*
X125174524Y-65587619D01*
X125222143Y-65682857D01*
X125222143Y-65778095D01*
X125174524Y-65920952D01*
X124603095Y-66492381D01*
X125222143Y-66492381D01*
X125841190Y-65492381D02*
X125936429Y-65492381D01*
X126031667Y-65540000D01*
X126079286Y-65587619D01*
X126126905Y-65682857D01*
X126174524Y-65873333D01*
X126174524Y-66111429D01*
X126126905Y-66301905D01*
X126079286Y-66397143D01*
X126031667Y-66444762D01*
X125936429Y-66492381D01*
X125841190Y-66492381D01*
X125745952Y-66444762D01*
X125698333Y-66397143D01*
X125650714Y-66301905D01*
X125603095Y-66111429D01*
X125603095Y-65873333D01*
X125650714Y-65682857D01*
X125698333Y-65587619D01*
X125745952Y-65540000D01*
X125841190Y-65492381D01*
X127126905Y-66492381D02*
X126555476Y-66492381D01*
X126841190Y-66492381D02*
X126841190Y-65492381D01*
X126745952Y-65635238D01*
X126650714Y-65730476D01*
X126555476Y-65778095D01*
X127460238Y-65492381D02*
X128126905Y-65492381D01*
X127698333Y-66492381D01*
D11*
X124817143Y-61633571D02*
X124817143Y-60133571D01*
X125174286Y-60133571D01*
X125388571Y-60205000D01*
X125531429Y-60347857D01*
X125602857Y-60490714D01*
X125674286Y-60776429D01*
X125674286Y-60990714D01*
X125602857Y-61276429D01*
X125531429Y-61419286D01*
X125388571Y-61562143D01*
X125174286Y-61633571D01*
X124817143Y-61633571D01*
X126888571Y-61562143D02*
X126745714Y-61633571D01*
X126460000Y-61633571D01*
X126317143Y-61562143D01*
X126245714Y-61419286D01*
X126245714Y-60847857D01*
X126317143Y-60705000D01*
X126460000Y-60633571D01*
X126745714Y-60633571D01*
X126888571Y-60705000D01*
X126960000Y-60847857D01*
X126960000Y-60990714D01*
X126245714Y-61133571D01*
X127531428Y-61562143D02*
X127674285Y-61633571D01*
X127960000Y-61633571D01*
X128102857Y-61562143D01*
X128174285Y-61419286D01*
X128174285Y-61347857D01*
X128102857Y-61205000D01*
X127960000Y-61133571D01*
X127745714Y-61133571D01*
X127602857Y-61062143D01*
X127531428Y-60919286D01*
X127531428Y-60847857D01*
X127602857Y-60705000D01*
X127745714Y-60633571D01*
X127960000Y-60633571D01*
X128102857Y-60705000D01*
X128817143Y-61633571D02*
X128817143Y-60633571D01*
X128817143Y-60133571D02*
X128745714Y-60205000D01*
X128817143Y-60276429D01*
X128888571Y-60205000D01*
X128817143Y-60133571D01*
X128817143Y-60276429D01*
X130174286Y-60633571D02*
X130174286Y-61847857D01*
X130102857Y-61990714D01*
X130031429Y-62062143D01*
X129888572Y-62133571D01*
X129674286Y-62133571D01*
X129531429Y-62062143D01*
X130174286Y-61562143D02*
X130031429Y-61633571D01*
X129745715Y-61633571D01*
X129602857Y-61562143D01*
X129531429Y-61490714D01*
X129460000Y-61347857D01*
X129460000Y-60919286D01*
X129531429Y-60776429D01*
X129602857Y-60705000D01*
X129745715Y-60633571D01*
X130031429Y-60633571D01*
X130174286Y-60705000D01*
X130888572Y-60633571D02*
X130888572Y-61633571D01*
X130888572Y-60776429D02*
X130960000Y-60705000D01*
X131102858Y-60633571D01*
X131317143Y-60633571D01*
X131460000Y-60705000D01*
X131531429Y-60847857D01*
X131531429Y-61633571D01*
X132817143Y-61562143D02*
X132674286Y-61633571D01*
X132388572Y-61633571D01*
X132245715Y-61562143D01*
X132174286Y-61419286D01*
X132174286Y-60847857D01*
X132245715Y-60705000D01*
X132388572Y-60633571D01*
X132674286Y-60633571D01*
X132817143Y-60705000D01*
X132888572Y-60847857D01*
X132888572Y-60990714D01*
X132174286Y-61133571D01*
X134174286Y-61633571D02*
X134174286Y-60133571D01*
X134174286Y-61562143D02*
X134031429Y-61633571D01*
X133745715Y-61633571D01*
X133602857Y-61562143D01*
X133531429Y-61490714D01*
X133460000Y-61347857D01*
X133460000Y-60919286D01*
X133531429Y-60776429D01*
X133602857Y-60705000D01*
X133745715Y-60633571D01*
X134031429Y-60633571D01*
X134174286Y-60705000D01*
X136031429Y-61633571D02*
X136031429Y-60133571D01*
X136031429Y-60705000D02*
X136174286Y-60633571D01*
X136460000Y-60633571D01*
X136602857Y-60705000D01*
X136674286Y-60776429D01*
X136745715Y-60919286D01*
X136745715Y-61347857D01*
X136674286Y-61490714D01*
X136602857Y-61562143D01*
X136460000Y-61633571D01*
X136174286Y-61633571D01*
X136031429Y-61562143D01*
X137245715Y-60633571D02*
X137602858Y-61633571D01*
X137960000Y-60633571D02*
X137602858Y-61633571D01*
X137460000Y-61990714D01*
X137388572Y-62062143D01*
X137245715Y-62133571D01*
X138531429Y-61490714D02*
X138602857Y-61562143D01*
X138531429Y-61633571D01*
X138460000Y-61562143D01*
X138531429Y-61490714D01*
X138531429Y-61633571D01*
X138531429Y-60705000D02*
X138602857Y-60776429D01*
X138531429Y-60847857D01*
X138460000Y-60776429D01*
X138531429Y-60705000D01*
X138531429Y-60847857D01*
X125317143Y-63397857D02*
X124817143Y-63397857D01*
X124817143Y-64183571D02*
X124817143Y-62683571D01*
X125531429Y-62683571D01*
X126102857Y-64183571D02*
X126102857Y-63183571D01*
X126102857Y-63469286D02*
X126174285Y-63326429D01*
X126245714Y-63255000D01*
X126388571Y-63183571D01*
X126531428Y-63183571D01*
X127602856Y-64112143D02*
X127459999Y-64183571D01*
X127174285Y-64183571D01*
X127031428Y-64112143D01*
X126959999Y-63969286D01*
X126959999Y-63397857D01*
X127031428Y-63255000D01*
X127174285Y-63183571D01*
X127459999Y-63183571D01*
X127602856Y-63255000D01*
X127674285Y-63397857D01*
X127674285Y-63540714D01*
X126959999Y-63683571D01*
X128959999Y-64183571D02*
X128959999Y-62683571D01*
X128959999Y-64112143D02*
X128817142Y-64183571D01*
X128531428Y-64183571D01*
X128388570Y-64112143D01*
X128317142Y-64040714D01*
X128245713Y-63897857D01*
X128245713Y-63469286D01*
X128317142Y-63326429D01*
X128388570Y-63255000D01*
X128531428Y-63183571D01*
X128817142Y-63183571D01*
X128959999Y-63255000D01*
X129674285Y-64183571D02*
X129674285Y-63183571D01*
X129674285Y-63469286D02*
X129745713Y-63326429D01*
X129817142Y-63255000D01*
X129959999Y-63183571D01*
X130102856Y-63183571D01*
X130602856Y-64183571D02*
X130602856Y-63183571D01*
X130602856Y-62683571D02*
X130531427Y-62755000D01*
X130602856Y-62826429D01*
X130674284Y-62755000D01*
X130602856Y-62683571D01*
X130602856Y-62826429D01*
X131317142Y-64183571D02*
X131317142Y-62683571D01*
X131459999Y-63612143D02*
X131888570Y-64183571D01*
X131888570Y-63183571D02*
X131317142Y-63755000D01*
X134388571Y-64183571D02*
X133674285Y-64183571D01*
X133674285Y-62683571D01*
X134888571Y-64183571D02*
X134888571Y-63183571D01*
X134888571Y-62683571D02*
X134817142Y-62755000D01*
X134888571Y-62826429D01*
X134959999Y-62755000D01*
X134888571Y-62683571D01*
X134888571Y-62826429D01*
X135460000Y-63183571D02*
X135817143Y-64183571D01*
X136174285Y-63183571D01*
D13*
X87035000Y-67385000D02*
X87035000Y-73505000D01*
X84415000Y-67385000D02*
X84415000Y-73505000D01*
X87035000Y-67385000D02*
X86721000Y-67385000D01*
X84729000Y-67385000D02*
X84415000Y-67385000D01*
X87035000Y-73505000D02*
X86721000Y-73505000D01*
X84729000Y-73505000D02*
X84415000Y-73505000D01*
X108510000Y-75605000D02*
X102390000Y-75605000D01*
X108510000Y-72985000D02*
X102390000Y-72985000D01*
X108510000Y-75605000D02*
X108510000Y-75291000D01*
X108510000Y-73299000D02*
X108510000Y-72985000D01*
X102390000Y-75605000D02*
X102390000Y-75291000D01*
X102390000Y-73299000D02*
X102390000Y-72985000D01*
X114011400Y-61816863D02*
G75*
G03X114010000Y-57022564I-981400J2396863D01*
G01*
X112048600Y-61816863D02*
G75*
G02X112050000Y-57022564I981400J2396863D01*
G01*
X112048600Y-61816863D02*
G75*
G03X114010000Y-61817436I981400J2396863D01*
G01*
X115580000Y-59420000D02*
X110480000Y-59420000D01*
X115580000Y-59460000D02*
X114010000Y-59460000D01*
X112050000Y-59460000D02*
X110480000Y-59460000D01*
X115579000Y-59500000D02*
X114010000Y-59500000D01*
X112050000Y-59500000D02*
X110481000Y-59500000D01*
X115578000Y-59540000D02*
X114010000Y-59540000D01*
X112050000Y-59540000D02*
X110482000Y-59540000D01*
X115576000Y-59580000D02*
X114010000Y-59580000D01*
X112050000Y-59580000D02*
X110484000Y-59580000D01*
X115573000Y-59620000D02*
X114010000Y-59620000D01*
X112050000Y-59620000D02*
X110487000Y-59620000D01*
X115569000Y-59660000D02*
X114010000Y-59660000D01*
X112050000Y-59660000D02*
X110491000Y-59660000D01*
X115565000Y-59700000D02*
X114010000Y-59700000D01*
X112050000Y-59700000D02*
X110495000Y-59700000D01*
X115561000Y-59740000D02*
X114010000Y-59740000D01*
X112050000Y-59740000D02*
X110499000Y-59740000D01*
X115555000Y-59780000D02*
X114010000Y-59780000D01*
X112050000Y-59780000D02*
X110505000Y-59780000D01*
X115549000Y-59820000D02*
X114010000Y-59820000D01*
X112050000Y-59820000D02*
X110511000Y-59820000D01*
X115543000Y-59860000D02*
X114010000Y-59860000D01*
X112050000Y-59860000D02*
X110517000Y-59860000D01*
X115536000Y-59900000D02*
X114010000Y-59900000D01*
X112050000Y-59900000D02*
X110524000Y-59900000D01*
X115528000Y-59940000D02*
X114010000Y-59940000D01*
X112050000Y-59940000D02*
X110532000Y-59940000D01*
X115519000Y-59980000D02*
X114010000Y-59980000D01*
X112050000Y-59980000D02*
X110541000Y-59980000D01*
X115510000Y-60020000D02*
X114010000Y-60020000D01*
X112050000Y-60020000D02*
X110550000Y-60020000D01*
X115500000Y-60060000D02*
X114010000Y-60060000D01*
X112050000Y-60060000D02*
X110560000Y-60060000D01*
X115490000Y-60100000D02*
X114010000Y-60100000D01*
X112050000Y-60100000D02*
X110570000Y-60100000D01*
X115478000Y-60141000D02*
X114010000Y-60141000D01*
X112050000Y-60141000D02*
X110582000Y-60141000D01*
X115466000Y-60181000D02*
X114010000Y-60181000D01*
X112050000Y-60181000D02*
X110594000Y-60181000D01*
X115454000Y-60221000D02*
X114010000Y-60221000D01*
X112050000Y-60221000D02*
X110606000Y-60221000D01*
X115440000Y-60261000D02*
X114010000Y-60261000D01*
X112050000Y-60261000D02*
X110620000Y-60261000D01*
X115426000Y-60301000D02*
X114010000Y-60301000D01*
X112050000Y-60301000D02*
X110634000Y-60301000D01*
X115412000Y-60341000D02*
X114010000Y-60341000D01*
X112050000Y-60341000D02*
X110648000Y-60341000D01*
X115396000Y-60381000D02*
X114010000Y-60381000D01*
X112050000Y-60381000D02*
X110664000Y-60381000D01*
X115380000Y-60421000D02*
X114010000Y-60421000D01*
X112050000Y-60421000D02*
X110680000Y-60421000D01*
X115363000Y-60461000D02*
X114010000Y-60461000D01*
X112050000Y-60461000D02*
X110697000Y-60461000D01*
X115345000Y-60501000D02*
X114010000Y-60501000D01*
X112050000Y-60501000D02*
X110715000Y-60501000D01*
X115326000Y-60541000D02*
X114010000Y-60541000D01*
X112050000Y-60541000D02*
X110734000Y-60541000D01*
X115306000Y-60581000D02*
X114010000Y-60581000D01*
X112050000Y-60581000D02*
X110754000Y-60581000D01*
X115286000Y-60621000D02*
X114010000Y-60621000D01*
X112050000Y-60621000D02*
X110774000Y-60621000D01*
X115264000Y-60661000D02*
X114010000Y-60661000D01*
X112050000Y-60661000D02*
X110796000Y-60661000D01*
X115242000Y-60701000D02*
X114010000Y-60701000D01*
X112050000Y-60701000D02*
X110818000Y-60701000D01*
X115219000Y-60741000D02*
X114010000Y-60741000D01*
X112050000Y-60741000D02*
X110841000Y-60741000D01*
X115195000Y-60781000D02*
X114010000Y-60781000D01*
X112050000Y-60781000D02*
X110865000Y-60781000D01*
X115170000Y-60821000D02*
X114010000Y-60821000D01*
X112050000Y-60821000D02*
X110890000Y-60821000D01*
X115143000Y-60861000D02*
X114010000Y-60861000D01*
X112050000Y-60861000D02*
X110917000Y-60861000D01*
X115116000Y-60901000D02*
X114010000Y-60901000D01*
X112050000Y-60901000D02*
X110944000Y-60901000D01*
X115088000Y-60941000D02*
X114010000Y-60941000D01*
X112050000Y-60941000D02*
X110972000Y-60941000D01*
X115058000Y-60981000D02*
X114010000Y-60981000D01*
X112050000Y-60981000D02*
X111002000Y-60981000D01*
X115027000Y-61021000D02*
X114010000Y-61021000D01*
X112050000Y-61021000D02*
X111033000Y-61021000D01*
X114995000Y-61061000D02*
X114010000Y-61061000D01*
X112050000Y-61061000D02*
X111065000Y-61061000D01*
X114962000Y-61101000D02*
X114010000Y-61101000D01*
X112050000Y-61101000D02*
X111098000Y-61101000D01*
X114927000Y-61141000D02*
X114010000Y-61141000D01*
X112050000Y-61141000D02*
X111133000Y-61141000D01*
X114891000Y-61181000D02*
X114010000Y-61181000D01*
X112050000Y-61181000D02*
X111169000Y-61181000D01*
X114853000Y-61221000D02*
X114010000Y-61221000D01*
X112050000Y-61221000D02*
X111207000Y-61221000D01*
X114813000Y-61261000D02*
X114010000Y-61261000D01*
X112050000Y-61261000D02*
X111247000Y-61261000D01*
X114772000Y-61301000D02*
X114010000Y-61301000D01*
X112050000Y-61301000D02*
X111288000Y-61301000D01*
X114729000Y-61341000D02*
X114010000Y-61341000D01*
X112050000Y-61341000D02*
X111331000Y-61341000D01*
X114684000Y-61381000D02*
X114010000Y-61381000D01*
X112050000Y-61381000D02*
X111376000Y-61381000D01*
X114636000Y-61421000D02*
X111424000Y-61421000D01*
X114586000Y-61461000D02*
X111474000Y-61461000D01*
X114534000Y-61501000D02*
X111526000Y-61501000D01*
X114478000Y-61541000D02*
X111582000Y-61541000D01*
X114420000Y-61581000D02*
X111640000Y-61581000D01*
X114357000Y-61621000D02*
X111703000Y-61621000D01*
X114291000Y-61661000D02*
X111769000Y-61661000D01*
X114219000Y-61701000D02*
X111841000Y-61701000D01*
X114142000Y-61741000D02*
X111918000Y-61741000D01*
X114058000Y-61781000D02*
X112002000Y-61781000D01*
X113964000Y-61821000D02*
X112096000Y-61821000D01*
X113859000Y-61861000D02*
X112201000Y-61861000D01*
X113737000Y-61901000D02*
X112323000Y-61901000D01*
X113589000Y-61941000D02*
X112471000Y-61941000D01*
X113384000Y-61981000D02*
X112676000Y-61981000D01*
X113030000Y-56220000D02*
X113030000Y-57420000D01*
X113680000Y-56820000D02*
X112380000Y-56820000D01*
X97376863Y-77123600D02*
G75*
G03X92582564Y-77125000I-2396863J-981400D01*
G01*
X97376863Y-79086400D02*
G75*
G02X92582564Y-79085000I-2396863J981400D01*
G01*
X97376863Y-79086400D02*
G75*
G03X97377436Y-77125000I-2396863J981400D01*
G01*
X94980000Y-75555000D02*
X94980000Y-80655000D01*
X95020000Y-75555000D02*
X95020000Y-77125000D01*
X95020000Y-79085000D02*
X95020000Y-80655000D01*
X95060000Y-75556000D02*
X95060000Y-77125000D01*
X95060000Y-79085000D02*
X95060000Y-80654000D01*
X95100000Y-75557000D02*
X95100000Y-77125000D01*
X95100000Y-79085000D02*
X95100000Y-80653000D01*
X95140000Y-75559000D02*
X95140000Y-77125000D01*
X95140000Y-79085000D02*
X95140000Y-80651000D01*
X95180000Y-75562000D02*
X95180000Y-77125000D01*
X95180000Y-79085000D02*
X95180000Y-80648000D01*
X95220000Y-75566000D02*
X95220000Y-77125000D01*
X95220000Y-79085000D02*
X95220000Y-80644000D01*
X95260000Y-75570000D02*
X95260000Y-77125000D01*
X95260000Y-79085000D02*
X95260000Y-80640000D01*
X95300000Y-75574000D02*
X95300000Y-77125000D01*
X95300000Y-79085000D02*
X95300000Y-80636000D01*
X95340000Y-75580000D02*
X95340000Y-77125000D01*
X95340000Y-79085000D02*
X95340000Y-80630000D01*
X95380000Y-75586000D02*
X95380000Y-77125000D01*
X95380000Y-79085000D02*
X95380000Y-80624000D01*
X95420000Y-75592000D02*
X95420000Y-77125000D01*
X95420000Y-79085000D02*
X95420000Y-80618000D01*
X95460000Y-75599000D02*
X95460000Y-77125000D01*
X95460000Y-79085000D02*
X95460000Y-80611000D01*
X95500000Y-75607000D02*
X95500000Y-77125000D01*
X95500000Y-79085000D02*
X95500000Y-80603000D01*
X95540000Y-75616000D02*
X95540000Y-77125000D01*
X95540000Y-79085000D02*
X95540000Y-80594000D01*
X95580000Y-75625000D02*
X95580000Y-77125000D01*
X95580000Y-79085000D02*
X95580000Y-80585000D01*
X95620000Y-75635000D02*
X95620000Y-77125000D01*
X95620000Y-79085000D02*
X95620000Y-80575000D01*
X95660000Y-75645000D02*
X95660000Y-77125000D01*
X95660000Y-79085000D02*
X95660000Y-80565000D01*
X95701000Y-75657000D02*
X95701000Y-77125000D01*
X95701000Y-79085000D02*
X95701000Y-80553000D01*
X95741000Y-75669000D02*
X95741000Y-77125000D01*
X95741000Y-79085000D02*
X95741000Y-80541000D01*
X95781000Y-75681000D02*
X95781000Y-77125000D01*
X95781000Y-79085000D02*
X95781000Y-80529000D01*
X95821000Y-75695000D02*
X95821000Y-77125000D01*
X95821000Y-79085000D02*
X95821000Y-80515000D01*
X95861000Y-75709000D02*
X95861000Y-77125000D01*
X95861000Y-79085000D02*
X95861000Y-80501000D01*
X95901000Y-75723000D02*
X95901000Y-77125000D01*
X95901000Y-79085000D02*
X95901000Y-80487000D01*
X95941000Y-75739000D02*
X95941000Y-77125000D01*
X95941000Y-79085000D02*
X95941000Y-80471000D01*
X95981000Y-75755000D02*
X95981000Y-77125000D01*
X95981000Y-79085000D02*
X95981000Y-80455000D01*
X96021000Y-75772000D02*
X96021000Y-77125000D01*
X96021000Y-79085000D02*
X96021000Y-80438000D01*
X96061000Y-75790000D02*
X96061000Y-77125000D01*
X96061000Y-79085000D02*
X96061000Y-80420000D01*
X96101000Y-75809000D02*
X96101000Y-77125000D01*
X96101000Y-79085000D02*
X96101000Y-80401000D01*
X96141000Y-75829000D02*
X96141000Y-77125000D01*
X96141000Y-79085000D02*
X96141000Y-80381000D01*
X96181000Y-75849000D02*
X96181000Y-77125000D01*
X96181000Y-79085000D02*
X96181000Y-80361000D01*
X96221000Y-75871000D02*
X96221000Y-77125000D01*
X96221000Y-79085000D02*
X96221000Y-80339000D01*
X96261000Y-75893000D02*
X96261000Y-77125000D01*
X96261000Y-79085000D02*
X96261000Y-80317000D01*
X96301000Y-75916000D02*
X96301000Y-77125000D01*
X96301000Y-79085000D02*
X96301000Y-80294000D01*
X96341000Y-75940000D02*
X96341000Y-77125000D01*
X96341000Y-79085000D02*
X96341000Y-80270000D01*
X96381000Y-75965000D02*
X96381000Y-77125000D01*
X96381000Y-79085000D02*
X96381000Y-80245000D01*
X96421000Y-75992000D02*
X96421000Y-77125000D01*
X96421000Y-79085000D02*
X96421000Y-80218000D01*
X96461000Y-76019000D02*
X96461000Y-77125000D01*
X96461000Y-79085000D02*
X96461000Y-80191000D01*
X96501000Y-76047000D02*
X96501000Y-77125000D01*
X96501000Y-79085000D02*
X96501000Y-80163000D01*
X96541000Y-76077000D02*
X96541000Y-77125000D01*
X96541000Y-79085000D02*
X96541000Y-80133000D01*
X96581000Y-76108000D02*
X96581000Y-77125000D01*
X96581000Y-79085000D02*
X96581000Y-80102000D01*
X96621000Y-76140000D02*
X96621000Y-77125000D01*
X96621000Y-79085000D02*
X96621000Y-80070000D01*
X96661000Y-76173000D02*
X96661000Y-77125000D01*
X96661000Y-79085000D02*
X96661000Y-80037000D01*
X96701000Y-76208000D02*
X96701000Y-77125000D01*
X96701000Y-79085000D02*
X96701000Y-80002000D01*
X96741000Y-76244000D02*
X96741000Y-77125000D01*
X96741000Y-79085000D02*
X96741000Y-79966000D01*
X96781000Y-76282000D02*
X96781000Y-77125000D01*
X96781000Y-79085000D02*
X96781000Y-79928000D01*
X96821000Y-76322000D02*
X96821000Y-77125000D01*
X96821000Y-79085000D02*
X96821000Y-79888000D01*
X96861000Y-76363000D02*
X96861000Y-77125000D01*
X96861000Y-79085000D02*
X96861000Y-79847000D01*
X96901000Y-76406000D02*
X96901000Y-77125000D01*
X96901000Y-79085000D02*
X96901000Y-79804000D01*
X96941000Y-76451000D02*
X96941000Y-77125000D01*
X96941000Y-79085000D02*
X96941000Y-79759000D01*
X96981000Y-76499000D02*
X96981000Y-79711000D01*
X97021000Y-76549000D02*
X97021000Y-79661000D01*
X97061000Y-76601000D02*
X97061000Y-79609000D01*
X97101000Y-76657000D02*
X97101000Y-79553000D01*
X97141000Y-76715000D02*
X97141000Y-79495000D01*
X97181000Y-76778000D02*
X97181000Y-79432000D01*
X97221000Y-76844000D02*
X97221000Y-79366000D01*
X97261000Y-76916000D02*
X97261000Y-79294000D01*
X97301000Y-76993000D02*
X97301000Y-79217000D01*
X97341000Y-77077000D02*
X97341000Y-79133000D01*
X97381000Y-77171000D02*
X97381000Y-79039000D01*
X97421000Y-77276000D02*
X97421000Y-78934000D01*
X97461000Y-77398000D02*
X97461000Y-78812000D01*
X97501000Y-77546000D02*
X97501000Y-78664000D01*
X97541000Y-77751000D02*
X97541000Y-78459000D01*
X91780000Y-78105000D02*
X92980000Y-78105000D01*
X92380000Y-77455000D02*
X92380000Y-78755000D01*
X99135000Y-76795000D02*
X105255000Y-76795000D01*
X99135000Y-79415000D02*
X105255000Y-79415000D01*
X99135000Y-76795000D02*
X99135000Y-77109000D01*
X99135000Y-79101000D02*
X99135000Y-79415000D01*
X105255000Y-76795000D02*
X105255000Y-77109000D01*
X105255000Y-79101000D02*
X105255000Y-79415000D01*
X138990000Y-100370000D02*
X132870000Y-100370000D01*
X138990000Y-97750000D02*
X132870000Y-97750000D01*
X138990000Y-100370000D02*
X138990000Y-100056000D01*
X138990000Y-98064000D02*
X138990000Y-97750000D01*
X132870000Y-100370000D02*
X132870000Y-100056000D01*
X132870000Y-98064000D02*
X132870000Y-97750000D01*
X132790000Y-82510000D02*
X138910000Y-82510000D01*
X132790000Y-85130000D02*
X138910000Y-85130000D01*
X132790000Y-82510000D02*
X132790000Y-82824000D01*
X132790000Y-84816000D02*
X132790000Y-85130000D01*
X138910000Y-82510000D02*
X138910000Y-82824000D01*
X138910000Y-84816000D02*
X138910000Y-85130000D01*
X110645000Y-82340000D02*
X110645000Y-80220000D01*
X110645000Y-80220000D02*
X106525000Y-80220000D01*
X106525000Y-80220000D02*
X106525000Y-82340000D01*
X106525000Y-82340000D02*
X110645000Y-82340000D01*
X111415000Y-81280000D02*
X110645000Y-81280000D01*
X105755000Y-81280000D02*
X106525000Y-81280000D01*
X109985000Y-82340000D02*
X109985000Y-80220000D01*
X119577500Y-90122500D02*
G75*
G02X119577500Y-92122500I0J-1000000D01*
G01*
X119577500Y-92122500D02*
X119577500Y-93892500D01*
X119577500Y-93892500D02*
X155377500Y-93892500D01*
X155377500Y-93892500D02*
X155377500Y-88352500D01*
X155377500Y-88352500D02*
X119577500Y-88352500D01*
X119577500Y-88352500D02*
X119577500Y-90122500D01*
X119577500Y-96322500D02*
X155377500Y-96322500D01*
X155377500Y-96322500D02*
X155377500Y-85922500D01*
X155377500Y-85922500D02*
X119577500Y-85922500D01*
X119577500Y-85922500D02*
X119577500Y-96322500D01*
D14*
X90650000Y-84990000D02*
X84650000Y-84990000D01*
X84650000Y-84990000D02*
X84650000Y-100430000D01*
X84650000Y-100430000D02*
X90650000Y-100430000D01*
X90650000Y-100430000D02*
X90650000Y-84990000D01*
X84650000Y-86360000D02*
X85650000Y-86360000D01*
X85650000Y-86360000D02*
X85650000Y-99060000D01*
X85650000Y-99060000D02*
X84650000Y-99060000D01*
X85650000Y-86360000D02*
X86080000Y-86610000D01*
X86080000Y-86610000D02*
X86080000Y-98810000D01*
X86080000Y-98810000D02*
X85650000Y-99060000D01*
X84650000Y-86610000D02*
X85650000Y-86610000D01*
X84650000Y-98810000D02*
X85650000Y-98810000D01*
X90650000Y-85560000D02*
X90030000Y-85560000D01*
X90030000Y-85560000D02*
X90030000Y-87160000D01*
X90030000Y-87160000D02*
X90650000Y-87160000D01*
X90650000Y-88100000D02*
X90030000Y-88100000D01*
X90030000Y-88100000D02*
X90030000Y-89700000D01*
X90030000Y-89700000D02*
X90650000Y-89700000D01*
X90650000Y-90640000D02*
X90030000Y-90640000D01*
X90030000Y-90640000D02*
X90030000Y-92240000D01*
X90030000Y-92240000D02*
X90650000Y-92240000D01*
X90650000Y-93180000D02*
X90030000Y-93180000D01*
X90030000Y-93180000D02*
X90030000Y-94780000D01*
X90030000Y-94780000D02*
X90650000Y-94780000D01*
X90650000Y-95720000D02*
X90030000Y-95720000D01*
X90030000Y-95720000D02*
X90030000Y-97320000D01*
X90030000Y-97320000D02*
X90650000Y-97320000D01*
X90650000Y-98260000D02*
X90030000Y-98260000D01*
X90030000Y-98260000D02*
X90030000Y-99860000D01*
X90030000Y-99860000D02*
X90650000Y-99860000D01*
D13*
X87115000Y-79375000D02*
X87115000Y-74175000D01*
X87115000Y-74175000D02*
X84335000Y-74175000D01*
X84335000Y-74175000D02*
X84335000Y-79375000D01*
X84335000Y-79375000D02*
X87115000Y-79375000D01*
X87115000Y-80645000D02*
X87115000Y-82035000D01*
X87115000Y-82035000D02*
X85725000Y-82035000D01*
D14*
X153035000Y-46355000D02*
X145415000Y-46355000D01*
X153035000Y-43815000D02*
X145415000Y-43815000D01*
X155855000Y-43535000D02*
X154305000Y-43535000D01*
X145415000Y-46355000D02*
X145415000Y-43815000D01*
X153035000Y-43815000D02*
X153035000Y-46355000D01*
X154305000Y-46635000D02*
X155855000Y-46635000D01*
X155855000Y-46635000D02*
X155855000Y-43535000D01*
D13*
X111760000Y-92195000D02*
X116960000Y-92195000D01*
X116960000Y-92195000D02*
X116960000Y-86875000D01*
X116960000Y-86875000D02*
X109100000Y-86875000D01*
X109100000Y-86875000D02*
X109100000Y-89535000D01*
X109100000Y-89535000D02*
X111760000Y-89535000D01*
X111760000Y-89535000D02*
X111760000Y-92195000D01*
X110490000Y-92195000D02*
X109100000Y-92195000D01*
X109100000Y-92195000D02*
X109100000Y-90805000D01*
X106640000Y-68615000D02*
X109260000Y-68615000D01*
X109260000Y-68615000D02*
X109260000Y-62195000D01*
X109260000Y-62195000D02*
X106640000Y-62195000D01*
X106640000Y-62195000D02*
X106640000Y-68615000D01*
X107950000Y-69505000D02*
X107950000Y-68615000D01*
X107950000Y-61305000D02*
X107950000Y-62195000D01*
X94655000Y-57115000D02*
X92035000Y-57115000D01*
X92035000Y-57115000D02*
X92035000Y-63535000D01*
X92035000Y-63535000D02*
X94655000Y-63535000D01*
X94655000Y-63535000D02*
X94655000Y-57115000D01*
X93345000Y-56225000D02*
X93345000Y-57115000D01*
X93345000Y-64425000D02*
X93345000Y-63535000D01*
X84415000Y-63535000D02*
X87035000Y-63535000D01*
X87035000Y-63535000D02*
X87035000Y-57115000D01*
X87035000Y-57115000D02*
X84415000Y-57115000D01*
X84415000Y-57115000D02*
X84415000Y-63535000D01*
X85725000Y-64425000D02*
X85725000Y-63535000D01*
X85725000Y-56225000D02*
X85725000Y-57115000D01*
X104810000Y-56555000D02*
X104810000Y-53935000D01*
X104810000Y-53935000D02*
X98390000Y-53935000D01*
X98390000Y-53935000D02*
X98390000Y-56555000D01*
X98390000Y-56555000D02*
X104810000Y-56555000D01*
X105700000Y-55245000D02*
X104810000Y-55245000D01*
X97500000Y-55245000D02*
X98390000Y-55245000D01*
X90845000Y-57115000D02*
X88225000Y-57115000D01*
X88225000Y-57115000D02*
X88225000Y-63535000D01*
X88225000Y-63535000D02*
X90845000Y-63535000D01*
X90845000Y-63535000D02*
X90845000Y-57115000D01*
X89535000Y-56225000D02*
X89535000Y-57115000D01*
X89535000Y-64425000D02*
X89535000Y-63535000D01*
X110450000Y-76235000D02*
X113070000Y-76235000D01*
X113070000Y-76235000D02*
X113070000Y-69815000D01*
X113070000Y-69815000D02*
X110450000Y-69815000D01*
X110450000Y-69815000D02*
X110450000Y-76235000D01*
X111760000Y-77125000D02*
X111760000Y-76235000D01*
X111760000Y-68925000D02*
X111760000Y-69815000D01*
X114260000Y-79410000D02*
X116880000Y-79410000D01*
X116880000Y-79410000D02*
X116880000Y-72990000D01*
X116880000Y-72990000D02*
X114260000Y-72990000D01*
X114260000Y-72990000D02*
X114260000Y-79410000D01*
X115570000Y-80300000D02*
X115570000Y-79410000D01*
X115570000Y-72100000D02*
X115570000Y-72990000D01*
X158472500Y-73942500D02*
X155852500Y-73942500D01*
X155852500Y-73942500D02*
X155852500Y-80362500D01*
X155852500Y-80362500D02*
X158472500Y-80362500D01*
X158472500Y-80362500D02*
X158472500Y-73942500D01*
X157162500Y-73052500D02*
X157162500Y-73942500D01*
X157162500Y-81252500D02*
X157162500Y-80362500D01*
X152757500Y-73942500D02*
X150137500Y-73942500D01*
X150137500Y-73942500D02*
X150137500Y-80362500D01*
X150137500Y-80362500D02*
X152757500Y-80362500D01*
X152757500Y-80362500D02*
X152757500Y-73942500D01*
X151447500Y-73052500D02*
X151447500Y-73942500D01*
X151447500Y-81252500D02*
X151447500Y-80362500D01*
X147042500Y-73942500D02*
X144422500Y-73942500D01*
X144422500Y-73942500D02*
X144422500Y-80362500D01*
X144422500Y-80362500D02*
X147042500Y-80362500D01*
X147042500Y-80362500D02*
X147042500Y-73942500D01*
X145732500Y-73052500D02*
X145732500Y-73942500D01*
X145732500Y-81252500D02*
X145732500Y-80362500D01*
X158472500Y-53622500D02*
X155852500Y-53622500D01*
X155852500Y-53622500D02*
X155852500Y-60042500D01*
X155852500Y-60042500D02*
X158472500Y-60042500D01*
X158472500Y-60042500D02*
X158472500Y-53622500D01*
X157162500Y-52732500D02*
X157162500Y-53622500D01*
X157162500Y-60932500D02*
X157162500Y-60042500D01*
X152757500Y-53622500D02*
X150137500Y-53622500D01*
X150137500Y-53622500D02*
X150137500Y-60042500D01*
X150137500Y-60042500D02*
X152757500Y-60042500D01*
X152757500Y-60042500D02*
X152757500Y-53622500D01*
X151447500Y-52732500D02*
X151447500Y-53622500D01*
X151447500Y-60932500D02*
X151447500Y-60042500D01*
X147042500Y-53622500D02*
X144422500Y-53622500D01*
X144422500Y-53622500D02*
X144422500Y-60042500D01*
X144422500Y-60042500D02*
X147042500Y-60042500D01*
X147042500Y-60042500D02*
X147042500Y-53622500D01*
X145732500Y-52732500D02*
X145732500Y-53622500D01*
X145732500Y-60932500D02*
X145732500Y-60042500D01*
X140687500Y-49252500D02*
X140687500Y-46632500D01*
X140687500Y-46632500D02*
X134267500Y-46632500D01*
X134267500Y-46632500D02*
X134267500Y-49252500D01*
X134267500Y-49252500D02*
X140687500Y-49252500D01*
X141577500Y-47942500D02*
X140687500Y-47942500D01*
X133377500Y-47942500D02*
X134267500Y-47942500D01*
X140687500Y-56872500D02*
X140687500Y-54252500D01*
X140687500Y-54252500D02*
X134267500Y-54252500D01*
X134267500Y-54252500D02*
X134267500Y-56872500D01*
X134267500Y-56872500D02*
X140687500Y-56872500D01*
X141577500Y-55562500D02*
X140687500Y-55562500D01*
X133377500Y-55562500D02*
X134267500Y-55562500D01*
X140687500Y-53062500D02*
X140687500Y-50442500D01*
X140687500Y-50442500D02*
X134267500Y-50442500D01*
X134267500Y-50442500D02*
X134267500Y-53062500D01*
X134267500Y-53062500D02*
X140687500Y-53062500D01*
X141577500Y-51752500D02*
X140687500Y-51752500D01*
X133377500Y-51752500D02*
X134267500Y-51752500D01*
D14*
X107840780Y-93560900D02*
X107840780Y-97109280D01*
X106090720Y-93560900D02*
X107840780Y-93560900D01*
X99491800Y-93560900D02*
X97741740Y-93560900D01*
X97741740Y-93560900D02*
X97741740Y-97160080D01*
X102791260Y-94960440D02*
X102842060Y-97210880D01*
X102791260Y-94960440D02*
X103741220Y-95961200D01*
X102842060Y-94960440D02*
X101841300Y-95910400D01*
X99491800Y-94960440D02*
X99491800Y-92260420D01*
X99491800Y-92260420D02*
X106090720Y-92260420D01*
X106090720Y-92260420D02*
X106090720Y-94960440D01*
X106090720Y-94960440D02*
X99491800Y-94960440D01*
D13*
X101330000Y-61475000D02*
G75*
G02X99330000Y-61475000I-1000000J0D01*
G01*
X99330000Y-61475000D02*
X97560000Y-61475000D01*
X97560000Y-61475000D02*
X97560000Y-71875000D01*
X97560000Y-71875000D02*
X103100000Y-71875000D01*
X103100000Y-71875000D02*
X103100000Y-61475000D01*
X103100000Y-61475000D02*
X101330000Y-61475000D01*
X95130000Y-61475000D02*
X95130000Y-71875000D01*
X95130000Y-71875000D02*
X105530000Y-71875000D01*
X105530000Y-71875000D02*
X105530000Y-61475000D01*
X105530000Y-61475000D02*
X95130000Y-61475000D01*
D14*
X89644220Y-51219100D02*
X89644220Y-47670720D01*
X91394280Y-51219100D02*
X89644220Y-51219100D01*
X97993200Y-51219100D02*
X99743260Y-51219100D01*
X99743260Y-51219100D02*
X99743260Y-47619920D01*
X94693740Y-49819560D02*
X94642940Y-47569120D01*
X94693740Y-49819560D02*
X93743780Y-48818800D01*
X94642940Y-49819560D02*
X95643700Y-48869600D01*
X97993200Y-49819560D02*
X97993200Y-52519580D01*
X97993200Y-52519580D02*
X91394280Y-52519580D01*
X91394280Y-52519580D02*
X91394280Y-49819560D01*
X91394280Y-49819560D02*
X97993200Y-49819560D01*
D13*
X90845000Y-72355000D02*
X88225000Y-72355000D01*
X88225000Y-72355000D02*
X88225000Y-78775000D01*
X88225000Y-78775000D02*
X90845000Y-78775000D01*
X90845000Y-78775000D02*
X90845000Y-72355000D01*
X89535000Y-71465000D02*
X89535000Y-72355000D01*
X89535000Y-79665000D02*
X89535000Y-78775000D01*
X152455000Y-65510000D02*
X152455000Y-69110000D01*
X153182205Y-64985816D02*
G75*
G03X152455000Y-65510000I1122795J-2324184D01*
G01*
X155403807Y-64953600D02*
G75*
G02X156905000Y-67310000I-1098807J-2356400D01*
G01*
X155403807Y-69666400D02*
G75*
G03X156905000Y-67310000I-1098807J2356400D01*
G01*
X153182205Y-69634184D02*
G75*
G02X152455000Y-69110000I1122795J2324184D01*
G01*
X146740000Y-65510000D02*
X146740000Y-69110000D01*
X147467205Y-64985816D02*
G75*
G03X146740000Y-65510000I1122795J-2324184D01*
G01*
X149688807Y-64953600D02*
G75*
G02X151190000Y-67310000I-1098807J-2356400D01*
G01*
X149688807Y-69666400D02*
G75*
G03X151190000Y-67310000I-1098807J2356400D01*
G01*
X147467205Y-69634184D02*
G75*
G02X146740000Y-69110000I1122795J2324184D01*
G01*
X141025000Y-65510000D02*
X141025000Y-69110000D01*
X141752205Y-64985816D02*
G75*
G03X141025000Y-65510000I1122795J-2324184D01*
G01*
X143973807Y-64953600D02*
G75*
G02X145475000Y-67310000I-1098807J-2356400D01*
G01*
X143973807Y-69666400D02*
G75*
G03X145475000Y-67310000I-1098807J2356400D01*
G01*
X141752205Y-69634184D02*
G75*
G02X141025000Y-69110000I1122795J2324184D01*
G01*
D14*
X118425000Y-100060000D02*
X118425000Y-99960000D01*
X118525000Y-100110000D02*
X118175000Y-100110000D01*
X118175000Y-100110000D02*
G75*
G03X118525000Y-99760000I-700000J1050000D01*
G01*
X118525000Y-100110000D02*
X118525000Y-99760000D01*
X115889214Y-97060000D02*
G75*
G03X115889214Y-97060000I-1414214J0D01*
G01*
X116475000Y-94060000D02*
X112475000Y-94060000D01*
X116475000Y-100060000D02*
X112475000Y-100060000D01*
X117475000Y-96310000D02*
X117475000Y-97810000D01*
X111475000Y-97810000D02*
X111475000Y-96310000D01*
D10*
X117475000Y-97060000D02*
X117475000Y-97060000D01*
X112475000Y-94060000D02*
X116475000Y-94060000D01*
X112475000Y-100060000D02*
X116475000Y-100060000D01*
X111475000Y-97060000D02*
X111475000Y-97060000D01*
X115889214Y-97060000D02*
G75*
G03X115889214Y-97060000I-1414214J0D01*
G01*
D14*
X113139220Y-51219100D02*
X113139220Y-47670720D01*
X114889280Y-51219100D02*
X113139220Y-51219100D01*
X121488200Y-51219100D02*
X123238260Y-51219100D01*
X123238260Y-51219100D02*
X123238260Y-47619920D01*
X118188740Y-49819560D02*
X118137940Y-47569120D01*
X118188740Y-49819560D02*
X117238780Y-48818800D01*
X118137940Y-49819560D02*
X119138700Y-48869600D01*
X121488200Y-49819560D02*
X121488200Y-52519580D01*
X121488200Y-52519580D02*
X114889280Y-52519580D01*
X114889280Y-52519580D02*
X114889280Y-49819560D01*
X114889280Y-49819560D02*
X121488200Y-49819560D01*
D13*
X159766000Y-98425000D02*
G75*
G03X159766000Y-98425000I-2286000J0D01*
G01*
X88011000Y-46990000D02*
G75*
G03X88011000Y-46990000I-2286000J0D01*
G01*
D14*
X88622143Y-68111666D02*
X88669762Y-68159285D01*
X88717381Y-68302142D01*
X88717381Y-68397380D01*
X88669762Y-68540238D01*
X88574524Y-68635476D01*
X88479286Y-68683095D01*
X88288810Y-68730714D01*
X88145952Y-68730714D01*
X87955476Y-68683095D01*
X87860238Y-68635476D01*
X87765000Y-68540238D01*
X87717381Y-68397380D01*
X87717381Y-68302142D01*
X87765000Y-68159285D01*
X87812619Y-68111666D01*
X88717381Y-67159285D02*
X88717381Y-67730714D01*
X88717381Y-67445000D02*
X87717381Y-67445000D01*
X87860238Y-67540238D01*
X87955476Y-67635476D01*
X88003095Y-67730714D01*
X101433334Y-81002143D02*
X101385715Y-81049762D01*
X101242858Y-81097381D01*
X101147620Y-81097381D01*
X101004762Y-81049762D01*
X100909524Y-80954524D01*
X100861905Y-80859286D01*
X100814286Y-80668810D01*
X100814286Y-80525952D01*
X100861905Y-80335476D01*
X100909524Y-80240238D01*
X101004762Y-80145000D01*
X101147620Y-80097381D01*
X101242858Y-80097381D01*
X101385715Y-80145000D01*
X101433334Y-80192619D01*
X101814286Y-80192619D02*
X101861905Y-80145000D01*
X101957143Y-80097381D01*
X102195239Y-80097381D01*
X102290477Y-80145000D01*
X102338096Y-80192619D01*
X102385715Y-80287857D01*
X102385715Y-80383095D01*
X102338096Y-80525952D01*
X101766667Y-81097381D01*
X102385715Y-81097381D01*
X112863334Y-55602143D02*
X112815715Y-55649762D01*
X112672858Y-55697381D01*
X112577620Y-55697381D01*
X112434762Y-55649762D01*
X112339524Y-55554524D01*
X112291905Y-55459286D01*
X112244286Y-55268810D01*
X112244286Y-55125952D01*
X112291905Y-54935476D01*
X112339524Y-54840238D01*
X112434762Y-54745000D01*
X112577620Y-54697381D01*
X112672858Y-54697381D01*
X112815715Y-54745000D01*
X112863334Y-54792619D01*
X113196667Y-54697381D02*
X113815715Y-54697381D01*
X113482381Y-55078333D01*
X113625239Y-55078333D01*
X113720477Y-55125952D01*
X113768096Y-55173571D01*
X113815715Y-55268810D01*
X113815715Y-55506905D01*
X113768096Y-55602143D01*
X113720477Y-55649762D01*
X113625239Y-55697381D01*
X113339524Y-55697381D01*
X113244286Y-55649762D01*
X113196667Y-55602143D01*
X94813334Y-74902143D02*
X94765715Y-74949762D01*
X94622858Y-74997381D01*
X94527620Y-74997381D01*
X94384762Y-74949762D01*
X94289524Y-74854524D01*
X94241905Y-74759286D01*
X94194286Y-74568810D01*
X94194286Y-74425952D01*
X94241905Y-74235476D01*
X94289524Y-74140238D01*
X94384762Y-74045000D01*
X94527620Y-73997381D01*
X94622858Y-73997381D01*
X94765715Y-74045000D01*
X94813334Y-74092619D01*
X95670477Y-74330714D02*
X95670477Y-74997381D01*
X95432381Y-73949762D02*
X95194286Y-74664048D01*
X95813334Y-74664048D01*
X107148334Y-77192143D02*
X107100715Y-77239762D01*
X106957858Y-77287381D01*
X106862620Y-77287381D01*
X106719762Y-77239762D01*
X106624524Y-77144524D01*
X106576905Y-77049286D01*
X106529286Y-76858810D01*
X106529286Y-76715952D01*
X106576905Y-76525476D01*
X106624524Y-76430238D01*
X106719762Y-76335000D01*
X106862620Y-76287381D01*
X106957858Y-76287381D01*
X107100715Y-76335000D01*
X107148334Y-76382619D01*
X108053096Y-76287381D02*
X107576905Y-76287381D01*
X107529286Y-76763571D01*
X107576905Y-76715952D01*
X107672143Y-76668333D01*
X107910239Y-76668333D01*
X108005477Y-76715952D01*
X108053096Y-76763571D01*
X108100715Y-76858810D01*
X108100715Y-77096905D01*
X108053096Y-77192143D01*
X108005477Y-77239762D01*
X107910239Y-77287381D01*
X107672143Y-77287381D01*
X107576905Y-77239762D01*
X107529286Y-77192143D01*
X135763334Y-101727143D02*
X135715715Y-101774762D01*
X135572858Y-101822381D01*
X135477620Y-101822381D01*
X135334762Y-101774762D01*
X135239524Y-101679524D01*
X135191905Y-101584286D01*
X135144286Y-101393810D01*
X135144286Y-101250952D01*
X135191905Y-101060476D01*
X135239524Y-100965238D01*
X135334762Y-100870000D01*
X135477620Y-100822381D01*
X135572858Y-100822381D01*
X135715715Y-100870000D01*
X135763334Y-100917619D01*
X136620477Y-100822381D02*
X136430000Y-100822381D01*
X136334762Y-100870000D01*
X136287143Y-100917619D01*
X136191905Y-101060476D01*
X136144286Y-101250952D01*
X136144286Y-101631905D01*
X136191905Y-101727143D01*
X136239524Y-101774762D01*
X136334762Y-101822381D01*
X136525239Y-101822381D01*
X136620477Y-101774762D01*
X136668096Y-101727143D01*
X136715715Y-101631905D01*
X136715715Y-101393810D01*
X136668096Y-101298571D01*
X136620477Y-101250952D01*
X136525239Y-101203333D01*
X136334762Y-101203333D01*
X136239524Y-101250952D01*
X136191905Y-101298571D01*
X136144286Y-101393810D01*
X135683334Y-81867143D02*
X135635715Y-81914762D01*
X135492858Y-81962381D01*
X135397620Y-81962381D01*
X135254762Y-81914762D01*
X135159524Y-81819524D01*
X135111905Y-81724286D01*
X135064286Y-81533810D01*
X135064286Y-81390952D01*
X135111905Y-81200476D01*
X135159524Y-81105238D01*
X135254762Y-81010000D01*
X135397620Y-80962381D01*
X135492858Y-80962381D01*
X135635715Y-81010000D01*
X135683334Y-81057619D01*
X136016667Y-80962381D02*
X136683334Y-80962381D01*
X136254762Y-81962381D01*
X107846905Y-83792381D02*
X107846905Y-82792381D01*
X108085000Y-82792381D01*
X108227858Y-82840000D01*
X108323096Y-82935238D01*
X108370715Y-83030476D01*
X108418334Y-83220952D01*
X108418334Y-83363810D01*
X108370715Y-83554286D01*
X108323096Y-83649524D01*
X108227858Y-83744762D01*
X108085000Y-83792381D01*
X107846905Y-83792381D01*
X109370715Y-83792381D02*
X108799286Y-83792381D01*
X109085000Y-83792381D02*
X109085000Y-82792381D01*
X108989762Y-82935238D01*
X108894524Y-83030476D01*
X108799286Y-83078095D01*
X119029881Y-92098690D02*
X118029881Y-92098690D01*
X118934643Y-91051071D02*
X118982262Y-91098690D01*
X119029881Y-91241547D01*
X119029881Y-91336785D01*
X118982262Y-91479643D01*
X118887024Y-91574881D01*
X118791786Y-91622500D01*
X118601310Y-91670119D01*
X118458452Y-91670119D01*
X118267976Y-91622500D01*
X118172738Y-91574881D01*
X118077500Y-91479643D01*
X118029881Y-91336785D01*
X118029881Y-91241547D01*
X118077500Y-91098690D01*
X118125119Y-91051071D01*
X119029881Y-90098690D02*
X119029881Y-90670119D01*
X119029881Y-90384405D02*
X118029881Y-90384405D01*
X118172738Y-90479643D01*
X118267976Y-90574881D01*
X118315595Y-90670119D01*
X88796905Y-84272381D02*
X88796905Y-83272381D01*
X89177858Y-83272381D01*
X89273096Y-83320000D01*
X89320715Y-83367619D01*
X89368334Y-83462857D01*
X89368334Y-83605714D01*
X89320715Y-83700952D01*
X89273096Y-83748571D01*
X89177858Y-83796190D01*
X88796905Y-83796190D01*
X90320715Y-84272381D02*
X89749286Y-84272381D01*
X90035000Y-84272381D02*
X90035000Y-83272381D01*
X89939762Y-83415238D01*
X89844524Y-83510476D01*
X89749286Y-83558095D01*
X84986905Y-83487381D02*
X84986905Y-82487381D01*
X85367858Y-82487381D01*
X85463096Y-82535000D01*
X85510715Y-82582619D01*
X85558334Y-82677857D01*
X85558334Y-82820714D01*
X85510715Y-82915952D01*
X85463096Y-82963571D01*
X85367858Y-83011190D01*
X84986905Y-83011190D01*
X85939286Y-82582619D02*
X85986905Y-82535000D01*
X86082143Y-82487381D01*
X86320239Y-82487381D01*
X86415477Y-82535000D01*
X86463096Y-82582619D01*
X86510715Y-82677857D01*
X86510715Y-82773095D01*
X86463096Y-82915952D01*
X85891667Y-83487381D01*
X86510715Y-83487381D01*
X156741905Y-45537381D02*
X156741905Y-44537381D01*
X157122858Y-44537381D01*
X157218096Y-44585000D01*
X157265715Y-44632619D01*
X157313334Y-44727857D01*
X157313334Y-44870714D01*
X157265715Y-44965952D01*
X157218096Y-45013571D01*
X157122858Y-45061190D01*
X156741905Y-45061190D01*
X157646667Y-44537381D02*
X158265715Y-44537381D01*
X157932381Y-44918333D01*
X158075239Y-44918333D01*
X158170477Y-44965952D01*
X158218096Y-45013571D01*
X158265715Y-45108810D01*
X158265715Y-45346905D01*
X158218096Y-45442143D01*
X158170477Y-45489762D01*
X158075239Y-45537381D01*
X157789524Y-45537381D01*
X157694286Y-45489762D01*
X157646667Y-45442143D01*
X112291905Y-86177381D02*
X112291905Y-85177381D01*
X112672858Y-85177381D01*
X112768096Y-85225000D01*
X112815715Y-85272619D01*
X112863334Y-85367857D01*
X112863334Y-85510714D01*
X112815715Y-85605952D01*
X112768096Y-85653571D01*
X112672858Y-85701190D01*
X112291905Y-85701190D01*
X113768096Y-85177381D02*
X113291905Y-85177381D01*
X113244286Y-85653571D01*
X113291905Y-85605952D01*
X113387143Y-85558333D01*
X113625239Y-85558333D01*
X113720477Y-85605952D01*
X113768096Y-85653571D01*
X113815715Y-85748810D01*
X113815715Y-85986905D01*
X113768096Y-86082143D01*
X113720477Y-86129762D01*
X113625239Y-86177381D01*
X113387143Y-86177381D01*
X113291905Y-86129762D01*
X113244286Y-86082143D01*
X110942381Y-64936666D02*
X110466190Y-65270000D01*
X110942381Y-65508095D02*
X109942381Y-65508095D01*
X109942381Y-65127142D01*
X109990000Y-65031904D01*
X110037619Y-64984285D01*
X110132857Y-64936666D01*
X110275714Y-64936666D01*
X110370952Y-64984285D01*
X110418571Y-65031904D01*
X110466190Y-65127142D01*
X110466190Y-65508095D01*
X110037619Y-64555714D02*
X109990000Y-64508095D01*
X109942381Y-64412857D01*
X109942381Y-64174761D01*
X109990000Y-64079523D01*
X110037619Y-64031904D01*
X110132857Y-63984285D01*
X110228095Y-63984285D01*
X110370952Y-64031904D01*
X110942381Y-64603333D01*
X110942381Y-63984285D01*
X96107381Y-60491666D02*
X95631190Y-60825000D01*
X96107381Y-61063095D02*
X95107381Y-61063095D01*
X95107381Y-60682142D01*
X95155000Y-60586904D01*
X95202619Y-60539285D01*
X95297857Y-60491666D01*
X95440714Y-60491666D01*
X95535952Y-60539285D01*
X95583571Y-60586904D01*
X95631190Y-60682142D01*
X95631190Y-61063095D01*
X95107381Y-60158333D02*
X95107381Y-59539285D01*
X95488333Y-59872619D01*
X95488333Y-59729761D01*
X95535952Y-59634523D01*
X95583571Y-59586904D01*
X95678810Y-59539285D01*
X95916905Y-59539285D01*
X96012143Y-59586904D01*
X96059762Y-59634523D01*
X96107381Y-59729761D01*
X96107381Y-60015476D01*
X96059762Y-60110714D01*
X96012143Y-60158333D01*
X83867381Y-60491666D02*
X83391190Y-60825000D01*
X83867381Y-61063095D02*
X82867381Y-61063095D01*
X82867381Y-60682142D01*
X82915000Y-60586904D01*
X82962619Y-60539285D01*
X83057857Y-60491666D01*
X83200714Y-60491666D01*
X83295952Y-60539285D01*
X83343571Y-60586904D01*
X83391190Y-60682142D01*
X83391190Y-61063095D01*
X83200714Y-59634523D02*
X83867381Y-59634523D01*
X82819762Y-59872619D02*
X83534048Y-60110714D01*
X83534048Y-59491666D01*
X101433334Y-58007381D02*
X101100000Y-57531190D01*
X100861905Y-58007381D02*
X100861905Y-57007381D01*
X101242858Y-57007381D01*
X101338096Y-57055000D01*
X101385715Y-57102619D01*
X101433334Y-57197857D01*
X101433334Y-57340714D01*
X101385715Y-57435952D01*
X101338096Y-57483571D01*
X101242858Y-57531190D01*
X100861905Y-57531190D01*
X102338096Y-57007381D02*
X101861905Y-57007381D01*
X101814286Y-57483571D01*
X101861905Y-57435952D01*
X101957143Y-57388333D01*
X102195239Y-57388333D01*
X102290477Y-57435952D01*
X102338096Y-57483571D01*
X102385715Y-57578810D01*
X102385715Y-57816905D01*
X102338096Y-57912143D01*
X102290477Y-57959762D01*
X102195239Y-58007381D01*
X101957143Y-58007381D01*
X101861905Y-57959762D01*
X101814286Y-57912143D01*
X89987381Y-60491666D02*
X89511190Y-60825000D01*
X89987381Y-61063095D02*
X88987381Y-61063095D01*
X88987381Y-60682142D01*
X89035000Y-60586904D01*
X89082619Y-60539285D01*
X89177857Y-60491666D01*
X89320714Y-60491666D01*
X89415952Y-60539285D01*
X89463571Y-60586904D01*
X89511190Y-60682142D01*
X89511190Y-61063095D01*
X88987381Y-59634523D02*
X88987381Y-59825000D01*
X89035000Y-59920238D01*
X89082619Y-59967857D01*
X89225476Y-60063095D01*
X89415952Y-60110714D01*
X89796905Y-60110714D01*
X89892143Y-60063095D01*
X89939762Y-60015476D01*
X89987381Y-59920238D01*
X89987381Y-59729761D01*
X89939762Y-59634523D01*
X89892143Y-59586904D01*
X89796905Y-59539285D01*
X89558810Y-59539285D01*
X89463571Y-59586904D01*
X89415952Y-59634523D01*
X89368333Y-59729761D01*
X89368333Y-59920238D01*
X89415952Y-60015476D01*
X89463571Y-60063095D01*
X89558810Y-60110714D01*
X109902381Y-73191666D02*
X109426190Y-73525000D01*
X109902381Y-73763095D02*
X108902381Y-73763095D01*
X108902381Y-73382142D01*
X108950000Y-73286904D01*
X108997619Y-73239285D01*
X109092857Y-73191666D01*
X109235714Y-73191666D01*
X109330952Y-73239285D01*
X109378571Y-73286904D01*
X109426190Y-73382142D01*
X109426190Y-73763095D01*
X108902381Y-72858333D02*
X108902381Y-72191666D01*
X109902381Y-72620238D01*
X118562381Y-76366666D02*
X118086190Y-76700000D01*
X118562381Y-76938095D02*
X117562381Y-76938095D01*
X117562381Y-76557142D01*
X117610000Y-76461904D01*
X117657619Y-76414285D01*
X117752857Y-76366666D01*
X117895714Y-76366666D01*
X117990952Y-76414285D01*
X118038571Y-76461904D01*
X118086190Y-76557142D01*
X118086190Y-76938095D01*
X117990952Y-75795238D02*
X117943333Y-75890476D01*
X117895714Y-75938095D01*
X117800476Y-75985714D01*
X117752857Y-75985714D01*
X117657619Y-75938095D01*
X117610000Y-75890476D01*
X117562381Y-75795238D01*
X117562381Y-75604761D01*
X117610000Y-75509523D01*
X117657619Y-75461904D01*
X117752857Y-75414285D01*
X117800476Y-75414285D01*
X117895714Y-75461904D01*
X117943333Y-75509523D01*
X117990952Y-75604761D01*
X117990952Y-75795238D01*
X118038571Y-75890476D01*
X118086190Y-75938095D01*
X118181429Y-75985714D01*
X118371905Y-75985714D01*
X118467143Y-75938095D01*
X118514762Y-75890476D01*
X118562381Y-75795238D01*
X118562381Y-75604761D01*
X118514762Y-75509523D01*
X118467143Y-75461904D01*
X118371905Y-75414285D01*
X118181429Y-75414285D01*
X118086190Y-75461904D01*
X118038571Y-75509523D01*
X117990952Y-75604761D01*
X159924881Y-77319166D02*
X159448690Y-77652500D01*
X159924881Y-77890595D02*
X158924881Y-77890595D01*
X158924881Y-77509642D01*
X158972500Y-77414404D01*
X159020119Y-77366785D01*
X159115357Y-77319166D01*
X159258214Y-77319166D01*
X159353452Y-77366785D01*
X159401071Y-77414404D01*
X159448690Y-77509642D01*
X159448690Y-77890595D01*
X159924881Y-76842976D02*
X159924881Y-76652500D01*
X159877262Y-76557261D01*
X159829643Y-76509642D01*
X159686786Y-76414404D01*
X159496310Y-76366785D01*
X159115357Y-76366785D01*
X159020119Y-76414404D01*
X158972500Y-76462023D01*
X158924881Y-76557261D01*
X158924881Y-76747738D01*
X158972500Y-76842976D01*
X159020119Y-76890595D01*
X159115357Y-76938214D01*
X159353452Y-76938214D01*
X159448690Y-76890595D01*
X159496310Y-76842976D01*
X159543929Y-76747738D01*
X159543929Y-76557261D01*
X159496310Y-76462023D01*
X159448690Y-76414404D01*
X159353452Y-76366785D01*
X154209881Y-77795357D02*
X153733690Y-78128691D01*
X154209881Y-78366786D02*
X153209881Y-78366786D01*
X153209881Y-77985833D01*
X153257500Y-77890595D01*
X153305119Y-77842976D01*
X153400357Y-77795357D01*
X153543214Y-77795357D01*
X153638452Y-77842976D01*
X153686071Y-77890595D01*
X153733690Y-77985833D01*
X153733690Y-78366786D01*
X154209881Y-76842976D02*
X154209881Y-77414405D01*
X154209881Y-77128691D02*
X153209881Y-77128691D01*
X153352738Y-77223929D01*
X153447976Y-77319167D01*
X153495595Y-77414405D01*
X153209881Y-76223929D02*
X153209881Y-76128690D01*
X153257500Y-76033452D01*
X153305119Y-75985833D01*
X153400357Y-75938214D01*
X153590833Y-75890595D01*
X153828929Y-75890595D01*
X154019405Y-75938214D01*
X154114643Y-75985833D01*
X154162262Y-76033452D01*
X154209881Y-76128690D01*
X154209881Y-76223929D01*
X154162262Y-76319167D01*
X154114643Y-76366786D01*
X154019405Y-76414405D01*
X153828929Y-76462024D01*
X153590833Y-76462024D01*
X153400357Y-76414405D01*
X153305119Y-76366786D01*
X153257500Y-76319167D01*
X153209881Y-76223929D01*
X148494881Y-77795357D02*
X148018690Y-78128691D01*
X148494881Y-78366786D02*
X147494881Y-78366786D01*
X147494881Y-77985833D01*
X147542500Y-77890595D01*
X147590119Y-77842976D01*
X147685357Y-77795357D01*
X147828214Y-77795357D01*
X147923452Y-77842976D01*
X147971071Y-77890595D01*
X148018690Y-77985833D01*
X148018690Y-78366786D01*
X148494881Y-76842976D02*
X148494881Y-77414405D01*
X148494881Y-77128691D02*
X147494881Y-77128691D01*
X147637738Y-77223929D01*
X147732976Y-77319167D01*
X147780595Y-77414405D01*
X148494881Y-75890595D02*
X148494881Y-76462024D01*
X148494881Y-76176310D02*
X147494881Y-76176310D01*
X147637738Y-76271548D01*
X147732976Y-76366786D01*
X147780595Y-76462024D01*
X159924881Y-57475357D02*
X159448690Y-57808691D01*
X159924881Y-58046786D02*
X158924881Y-58046786D01*
X158924881Y-57665833D01*
X158972500Y-57570595D01*
X159020119Y-57522976D01*
X159115357Y-57475357D01*
X159258214Y-57475357D01*
X159353452Y-57522976D01*
X159401071Y-57570595D01*
X159448690Y-57665833D01*
X159448690Y-58046786D01*
X159924881Y-56522976D02*
X159924881Y-57094405D01*
X159924881Y-56808691D02*
X158924881Y-56808691D01*
X159067738Y-56903929D01*
X159162976Y-56999167D01*
X159210595Y-57094405D01*
X159020119Y-56142024D02*
X158972500Y-56094405D01*
X158924881Y-55999167D01*
X158924881Y-55761071D01*
X158972500Y-55665833D01*
X159020119Y-55618214D01*
X159115357Y-55570595D01*
X159210595Y-55570595D01*
X159353452Y-55618214D01*
X159924881Y-56189643D01*
X159924881Y-55570595D01*
X154209881Y-57475357D02*
X153733690Y-57808691D01*
X154209881Y-58046786D02*
X153209881Y-58046786D01*
X153209881Y-57665833D01*
X153257500Y-57570595D01*
X153305119Y-57522976D01*
X153400357Y-57475357D01*
X153543214Y-57475357D01*
X153638452Y-57522976D01*
X153686071Y-57570595D01*
X153733690Y-57665833D01*
X153733690Y-58046786D01*
X154209881Y-56522976D02*
X154209881Y-57094405D01*
X154209881Y-56808691D02*
X153209881Y-56808691D01*
X153352738Y-56903929D01*
X153447976Y-56999167D01*
X153495595Y-57094405D01*
X153209881Y-56189643D02*
X153209881Y-55570595D01*
X153590833Y-55903929D01*
X153590833Y-55761071D01*
X153638452Y-55665833D01*
X153686071Y-55618214D01*
X153781310Y-55570595D01*
X154019405Y-55570595D01*
X154114643Y-55618214D01*
X154162262Y-55665833D01*
X154209881Y-55761071D01*
X154209881Y-56046786D01*
X154162262Y-56142024D01*
X154114643Y-56189643D01*
X148494881Y-57475357D02*
X148018690Y-57808691D01*
X148494881Y-58046786D02*
X147494881Y-58046786D01*
X147494881Y-57665833D01*
X147542500Y-57570595D01*
X147590119Y-57522976D01*
X147685357Y-57475357D01*
X147828214Y-57475357D01*
X147923452Y-57522976D01*
X147971071Y-57570595D01*
X148018690Y-57665833D01*
X148018690Y-58046786D01*
X148494881Y-56522976D02*
X148494881Y-57094405D01*
X148494881Y-56808691D02*
X147494881Y-56808691D01*
X147637738Y-56903929D01*
X147732976Y-56999167D01*
X147780595Y-57094405D01*
X147828214Y-55665833D02*
X148494881Y-55665833D01*
X147447262Y-55903929D02*
X148161548Y-56142024D01*
X148161548Y-55522976D01*
X137152143Y-48077381D02*
X136818809Y-47601190D01*
X136580714Y-48077381D02*
X136580714Y-47077381D01*
X136961667Y-47077381D01*
X137056905Y-47125000D01*
X137104524Y-47172619D01*
X137152143Y-47267857D01*
X137152143Y-47410714D01*
X137104524Y-47505952D01*
X137056905Y-47553571D01*
X136961667Y-47601190D01*
X136580714Y-47601190D01*
X138104524Y-48077381D02*
X137533095Y-48077381D01*
X137818809Y-48077381D02*
X137818809Y-47077381D01*
X137723571Y-47220238D01*
X137628333Y-47315476D01*
X137533095Y-47363095D01*
X139009286Y-47077381D02*
X138533095Y-47077381D01*
X138485476Y-47553571D01*
X138533095Y-47505952D01*
X138628333Y-47458333D01*
X138866429Y-47458333D01*
X138961667Y-47505952D01*
X139009286Y-47553571D01*
X139056905Y-47648810D01*
X139056905Y-47886905D01*
X139009286Y-47982143D01*
X138961667Y-48029762D01*
X138866429Y-48077381D01*
X138628333Y-48077381D01*
X138533095Y-48029762D01*
X138485476Y-47982143D01*
X137152143Y-55697381D02*
X136818809Y-55221190D01*
X136580714Y-55697381D02*
X136580714Y-54697381D01*
X136961667Y-54697381D01*
X137056905Y-54745000D01*
X137104524Y-54792619D01*
X137152143Y-54887857D01*
X137152143Y-55030714D01*
X137104524Y-55125952D01*
X137056905Y-55173571D01*
X136961667Y-55221190D01*
X136580714Y-55221190D01*
X138104524Y-55697381D02*
X137533095Y-55697381D01*
X137818809Y-55697381D02*
X137818809Y-54697381D01*
X137723571Y-54840238D01*
X137628333Y-54935476D01*
X137533095Y-54983095D01*
X138961667Y-54697381D02*
X138771190Y-54697381D01*
X138675952Y-54745000D01*
X138628333Y-54792619D01*
X138533095Y-54935476D01*
X138485476Y-55125952D01*
X138485476Y-55506905D01*
X138533095Y-55602143D01*
X138580714Y-55649762D01*
X138675952Y-55697381D01*
X138866429Y-55697381D01*
X138961667Y-55649762D01*
X139009286Y-55602143D01*
X139056905Y-55506905D01*
X139056905Y-55268810D01*
X139009286Y-55173571D01*
X138961667Y-55125952D01*
X138866429Y-55078333D01*
X138675952Y-55078333D01*
X138580714Y-55125952D01*
X138533095Y-55173571D01*
X138485476Y-55268810D01*
X137152143Y-51887381D02*
X136818809Y-51411190D01*
X136580714Y-51887381D02*
X136580714Y-50887381D01*
X136961667Y-50887381D01*
X137056905Y-50935000D01*
X137104524Y-50982619D01*
X137152143Y-51077857D01*
X137152143Y-51220714D01*
X137104524Y-51315952D01*
X137056905Y-51363571D01*
X136961667Y-51411190D01*
X136580714Y-51411190D01*
X138104524Y-51887381D02*
X137533095Y-51887381D01*
X137818809Y-51887381D02*
X137818809Y-50887381D01*
X137723571Y-51030238D01*
X137628333Y-51125476D01*
X137533095Y-51173095D01*
X138437857Y-50887381D02*
X139104524Y-50887381D01*
X138675952Y-51887381D01*
X98464762Y-91892381D02*
X98131428Y-91416190D01*
X97893333Y-91892381D02*
X97893333Y-90892381D01*
X98274286Y-90892381D01*
X98369524Y-90940000D01*
X98417143Y-90987619D01*
X98464762Y-91082857D01*
X98464762Y-91225714D01*
X98417143Y-91320952D01*
X98369524Y-91368571D01*
X98274286Y-91416190D01*
X97893333Y-91416190D01*
X98750476Y-90892381D02*
X99083809Y-91892381D01*
X99417143Y-90892381D01*
X99702857Y-90987619D02*
X99750476Y-90940000D01*
X99845714Y-90892381D01*
X100083810Y-90892381D01*
X100179048Y-90940000D01*
X100226667Y-90987619D01*
X100274286Y-91082857D01*
X100274286Y-91178095D01*
X100226667Y-91320952D01*
X99655238Y-91892381D01*
X100274286Y-91892381D01*
X99568095Y-59927381D02*
X99568095Y-60736905D01*
X99615714Y-60832143D01*
X99663333Y-60879762D01*
X99758571Y-60927381D01*
X99949048Y-60927381D01*
X100044286Y-60879762D01*
X100091905Y-60832143D01*
X100139524Y-60736905D01*
X100139524Y-59927381D01*
X101139524Y-60927381D02*
X100568095Y-60927381D01*
X100853809Y-60927381D02*
X100853809Y-59927381D01*
X100758571Y-60070238D01*
X100663333Y-60165476D01*
X100568095Y-60213095D01*
X102597342Y-46223181D02*
X102264008Y-45746990D01*
X102025913Y-46223181D02*
X102025913Y-45223181D01*
X102406866Y-45223181D01*
X102502104Y-45270800D01*
X102549723Y-45318419D01*
X102597342Y-45413657D01*
X102597342Y-45556514D01*
X102549723Y-45651752D01*
X102502104Y-45699371D01*
X102406866Y-45746990D01*
X102025913Y-45746990D01*
X102883056Y-45223181D02*
X103216389Y-46223181D01*
X103549723Y-45223181D01*
X104406866Y-46223181D02*
X103835437Y-46223181D01*
X104121151Y-46223181D02*
X104121151Y-45223181D01*
X104025913Y-45366038D01*
X103930675Y-45461276D01*
X103835437Y-45508895D01*
X92297381Y-75731666D02*
X91821190Y-76065000D01*
X92297381Y-76303095D02*
X91297381Y-76303095D01*
X91297381Y-75922142D01*
X91345000Y-75826904D01*
X91392619Y-75779285D01*
X91487857Y-75731666D01*
X91630714Y-75731666D01*
X91725952Y-75779285D01*
X91773571Y-75826904D01*
X91821190Y-75922142D01*
X91821190Y-76303095D01*
X92297381Y-74779285D02*
X92297381Y-75350714D01*
X92297381Y-75065000D02*
X91297381Y-75065000D01*
X91440238Y-75160238D01*
X91535476Y-75255476D01*
X91583095Y-75350714D01*
X158408619Y-67405238D02*
X158361000Y-67500476D01*
X158265762Y-67595714D01*
X158122905Y-67738571D01*
X158075286Y-67833810D01*
X158075286Y-67929048D01*
X158313381Y-67881429D02*
X158265762Y-67976667D01*
X158170524Y-68071905D01*
X157980048Y-68119524D01*
X157646714Y-68119524D01*
X157456238Y-68071905D01*
X157361000Y-67976667D01*
X157313381Y-67881429D01*
X157313381Y-67690952D01*
X157361000Y-67595714D01*
X157456238Y-67500476D01*
X157646714Y-67452857D01*
X157980048Y-67452857D01*
X158170524Y-67500476D01*
X158265762Y-67595714D01*
X158313381Y-67690952D01*
X158313381Y-67881429D01*
X158313381Y-66500476D02*
X158313381Y-67071905D01*
X158313381Y-66786191D02*
X157313381Y-66786191D01*
X157456238Y-66881429D01*
X157551476Y-66976667D01*
X157599095Y-67071905D01*
X152693619Y-67405238D02*
X152646000Y-67500476D01*
X152550762Y-67595714D01*
X152407905Y-67738571D01*
X152360286Y-67833810D01*
X152360286Y-67929048D01*
X152598381Y-67881429D02*
X152550762Y-67976667D01*
X152455524Y-68071905D01*
X152265048Y-68119524D01*
X151931714Y-68119524D01*
X151741238Y-68071905D01*
X151646000Y-67976667D01*
X151598381Y-67881429D01*
X151598381Y-67690952D01*
X151646000Y-67595714D01*
X151741238Y-67500476D01*
X151931714Y-67452857D01*
X152265048Y-67452857D01*
X152455524Y-67500476D01*
X152550762Y-67595714D01*
X152598381Y-67690952D01*
X152598381Y-67881429D01*
X151693619Y-67071905D02*
X151646000Y-67024286D01*
X151598381Y-66929048D01*
X151598381Y-66690952D01*
X151646000Y-66595714D01*
X151693619Y-66548095D01*
X151788857Y-66500476D01*
X151884095Y-66500476D01*
X152026952Y-66548095D01*
X152598381Y-67119524D01*
X152598381Y-66500476D01*
X146978619Y-67405238D02*
X146931000Y-67500476D01*
X146835762Y-67595714D01*
X146692905Y-67738571D01*
X146645286Y-67833810D01*
X146645286Y-67929048D01*
X146883381Y-67881429D02*
X146835762Y-67976667D01*
X146740524Y-68071905D01*
X146550048Y-68119524D01*
X146216714Y-68119524D01*
X146026238Y-68071905D01*
X145931000Y-67976667D01*
X145883381Y-67881429D01*
X145883381Y-67690952D01*
X145931000Y-67595714D01*
X146026238Y-67500476D01*
X146216714Y-67452857D01*
X146550048Y-67452857D01*
X146740524Y-67500476D01*
X146835762Y-67595714D01*
X146883381Y-67690952D01*
X146883381Y-67881429D01*
X145883381Y-67119524D02*
X145883381Y-66500476D01*
X146264333Y-66833810D01*
X146264333Y-66690952D01*
X146311952Y-66595714D01*
X146359571Y-66548095D01*
X146454810Y-66500476D01*
X146692905Y-66500476D01*
X146788143Y-66548095D01*
X146835762Y-66595714D01*
X146883381Y-66690952D01*
X146883381Y-66976667D01*
X146835762Y-67071905D01*
X146788143Y-67119524D01*
X113713095Y-93464762D02*
X113855952Y-93512381D01*
X114094048Y-93512381D01*
X114189286Y-93464762D01*
X114236905Y-93417143D01*
X114284524Y-93321905D01*
X114284524Y-93226667D01*
X114236905Y-93131429D01*
X114189286Y-93083810D01*
X114094048Y-93036190D01*
X113903571Y-92988571D01*
X113808333Y-92940952D01*
X113760714Y-92893333D01*
X113713095Y-92798095D01*
X113713095Y-92702857D01*
X113760714Y-92607619D01*
X113808333Y-92560000D01*
X113903571Y-92512381D01*
X114141667Y-92512381D01*
X114284524Y-92560000D01*
X115236905Y-93512381D02*
X114665476Y-93512381D01*
X114951190Y-93512381D02*
X114951190Y-92512381D01*
X114855952Y-92655238D01*
X114760714Y-92750476D01*
X114665476Y-92798095D01*
X126404762Y-46172381D02*
X126071428Y-45696190D01*
X125833333Y-46172381D02*
X125833333Y-45172381D01*
X126214286Y-45172381D01*
X126309524Y-45220000D01*
X126357143Y-45267619D01*
X126404762Y-45362857D01*
X126404762Y-45505714D01*
X126357143Y-45600952D01*
X126309524Y-45648571D01*
X126214286Y-45696190D01*
X125833333Y-45696190D01*
X126690476Y-45172381D02*
X127023809Y-46172381D01*
X127357143Y-45172381D01*
X127595238Y-45172381D02*
X128214286Y-45172381D01*
X127880952Y-45553333D01*
X128023810Y-45553333D01*
X128119048Y-45600952D01*
X128166667Y-45648571D01*
X128214286Y-45743810D01*
X128214286Y-45981905D01*
X128166667Y-46077143D01*
X128119048Y-46124762D01*
X128023810Y-46172381D01*
X127738095Y-46172381D01*
X127642857Y-46124762D01*
X127595238Y-46077143D01*
M02*
