G04 #@! TF.FileFunction,Soldermask,Top*
%FSLAX46Y46*%
G04 Gerber Fmt 4.6, Leading zero omitted, Abs format (unit mm)*
G04 Created by KiCad (PCBNEW 4.0.5) date 02/13/17 16:43:30*
%MOMM*%
%LPD*%
G01*
G04 APERTURE LIST*
%ADD10C,0.100000*%
%ADD11C,2.000000*%
%ADD12R,2.000000X2.000000*%
%ADD13O,2.000000X2.000000*%
%ADD14R,3.000000X2.400000*%
%ADD15O,3.000000X2.400000*%
%ADD16R,2.100000X2.100000*%
%ADD17O,2.100000X2.100000*%
%ADD18R,2.127200X2.432000*%
%ADD19O,2.127200X2.432000*%
%ADD20C,2.899360*%
%ADD21C,1.924000*%
%ADD22R,1.924000X1.924000*%
%ADD23C,2.100000*%
%ADD24C,4.464000*%
G04 APERTURE END LIST*
D10*
D11*
X85725000Y-67945000D03*
X85725000Y-72945000D03*
X107950000Y-74295000D03*
X102950000Y-74295000D03*
D12*
X113030000Y-58420000D03*
D11*
X113030000Y-60420000D03*
D12*
X93980000Y-78105000D03*
D11*
X95980000Y-78105000D03*
X99695000Y-78105000D03*
X104695000Y-78105000D03*
X138430000Y-99060000D03*
X133430000Y-99060000D03*
X133350000Y-83820000D03*
X138350000Y-83820000D03*
D12*
X112395000Y-81280000D03*
D13*
X104775000Y-81280000D03*
D12*
X120967500Y-94932500D03*
D13*
X153987500Y-87312500D03*
X123507500Y-94932500D03*
X151447500Y-87312500D03*
X126047500Y-94932500D03*
X148907500Y-87312500D03*
X128587500Y-94932500D03*
X146367500Y-87312500D03*
X131127500Y-94932500D03*
X143827500Y-87312500D03*
X133667500Y-94932500D03*
X141287500Y-87312500D03*
X136207500Y-94932500D03*
X138747500Y-87312500D03*
X138747500Y-94932500D03*
X136207500Y-87312500D03*
X141287500Y-94932500D03*
X133667500Y-87312500D03*
X143827500Y-94932500D03*
X131127500Y-87312500D03*
X146367500Y-94932500D03*
X128587500Y-87312500D03*
X148907500Y-94932500D03*
X126047500Y-87312500D03*
X151447500Y-94932500D03*
X123507500Y-87312500D03*
X153987500Y-94932500D03*
X120967500Y-87312500D03*
D14*
X87630000Y-86360000D03*
D15*
X87630000Y-88900000D03*
X87630000Y-91440000D03*
X87630000Y-93980000D03*
X87630000Y-96520000D03*
X87630000Y-99060000D03*
D16*
X85725000Y-80645000D03*
D17*
X85725000Y-78105000D03*
X85725000Y-75565000D03*
D18*
X154305000Y-45085000D03*
D19*
X151765000Y-45085000D03*
X149225000Y-45085000D03*
X146685000Y-45085000D03*
D16*
X110490000Y-90805000D03*
D17*
X110490000Y-88265000D03*
X113030000Y-90805000D03*
X113030000Y-88265000D03*
X115570000Y-90805000D03*
X115570000Y-88265000D03*
D11*
X107950000Y-70485000D03*
D13*
X107950000Y-60325000D03*
D11*
X93345000Y-55245000D03*
D13*
X93345000Y-65405000D03*
D11*
X85725000Y-65405000D03*
D13*
X85725000Y-55245000D03*
D11*
X106680000Y-55245000D03*
D13*
X96520000Y-55245000D03*
D11*
X89535000Y-55245000D03*
D13*
X89535000Y-65405000D03*
D11*
X111760000Y-78105000D03*
D13*
X111760000Y-67945000D03*
D11*
X115570000Y-81280000D03*
D13*
X115570000Y-71120000D03*
D11*
X157162500Y-72072500D03*
D13*
X157162500Y-82232500D03*
D11*
X151447500Y-72072500D03*
D13*
X151447500Y-82232500D03*
D11*
X145732500Y-72072500D03*
D13*
X145732500Y-82232500D03*
D11*
X157162500Y-51752500D03*
D13*
X157162500Y-61912500D03*
D11*
X151447500Y-51752500D03*
D13*
X151447500Y-61912500D03*
D11*
X145732500Y-51752500D03*
D13*
X145732500Y-61912500D03*
D11*
X142557500Y-47942500D03*
D13*
X132397500Y-47942500D03*
D11*
X142557500Y-55562500D03*
D13*
X132397500Y-55562500D03*
D11*
X142557500Y-51752500D03*
D13*
X132397500Y-51752500D03*
D20*
X102791260Y-99060000D03*
X107792520Y-99060000D03*
X97790000Y-99060000D03*
D12*
X96520000Y-62865000D03*
D13*
X104140000Y-70485000D03*
X96520000Y-65405000D03*
X104140000Y-67945000D03*
X96520000Y-67945000D03*
X104140000Y-65405000D03*
X96520000Y-70485000D03*
X104140000Y-62865000D03*
D20*
X94693740Y-45720000D03*
X89692480Y-45720000D03*
X99695000Y-45720000D03*
D11*
X89535000Y-70485000D03*
D13*
X89535000Y-80645000D03*
D21*
X154305000Y-67310000D03*
X154305000Y-69850000D03*
D22*
X154305000Y-64770000D03*
D21*
X148590000Y-67310000D03*
X148590000Y-69850000D03*
D22*
X148590000Y-64770000D03*
D21*
X142875000Y-67310000D03*
X142875000Y-69850000D03*
D22*
X142875000Y-64770000D03*
D23*
X111475000Y-95060000D03*
X117475000Y-95060000D03*
X111475000Y-99060000D03*
X117475000Y-99060000D03*
D20*
X118188740Y-45720000D03*
X113187480Y-45720000D03*
X123190000Y-45720000D03*
D24*
X157480000Y-98425000D03*
X85725000Y-46990000D03*
M02*
