G04 #@! TF.FileFunction,Copper,L2,Bot,Signal*
%FSLAX46Y46*%
G04 Gerber Fmt 4.6, Leading zero omitted, Abs format (unit mm)*
G04 Created by KiCad (PCBNEW 4.0.5) date 02/13/17 16:43:30*
%MOMM*%
%LPD*%
G01*
G04 APERTURE LIST*
%ADD10C,0.100000*%
%ADD11C,1.600000*%
%ADD12R,1.600000X1.600000*%
%ADD13O,1.600000X1.600000*%
%ADD14R,2.600000X2.000000*%
%ADD15O,2.600000X2.000000*%
%ADD16R,1.700000X1.700000*%
%ADD17O,1.700000X1.700000*%
%ADD18R,1.727200X2.032000*%
%ADD19O,1.727200X2.032000*%
%ADD20C,2.499360*%
%ADD21C,1.524000*%
%ADD22R,1.524000X1.524000*%
%ADD23C,1.700000*%
%ADD24C,4.064000*%
%ADD25C,0.250000*%
%ADD26C,0.254000*%
G04 APERTURE END LIST*
D10*
D11*
X85725000Y-67945000D03*
X85725000Y-72945000D03*
X107950000Y-74295000D03*
X102950000Y-74295000D03*
D12*
X113030000Y-58420000D03*
D11*
X113030000Y-60420000D03*
D12*
X93980000Y-78105000D03*
D11*
X95980000Y-78105000D03*
X99695000Y-78105000D03*
X104695000Y-78105000D03*
X138430000Y-99060000D03*
X133430000Y-99060000D03*
X133350000Y-83820000D03*
X138350000Y-83820000D03*
D12*
X112395000Y-81280000D03*
D13*
X104775000Y-81280000D03*
D12*
X120967500Y-94932500D03*
D13*
X153987500Y-87312500D03*
X123507500Y-94932500D03*
X151447500Y-87312500D03*
X126047500Y-94932500D03*
X148907500Y-87312500D03*
X128587500Y-94932500D03*
X146367500Y-87312500D03*
X131127500Y-94932500D03*
X143827500Y-87312500D03*
X133667500Y-94932500D03*
X141287500Y-87312500D03*
X136207500Y-94932500D03*
X138747500Y-87312500D03*
X138747500Y-94932500D03*
X136207500Y-87312500D03*
X141287500Y-94932500D03*
X133667500Y-87312500D03*
X143827500Y-94932500D03*
X131127500Y-87312500D03*
X146367500Y-94932500D03*
X128587500Y-87312500D03*
X148907500Y-94932500D03*
X126047500Y-87312500D03*
X151447500Y-94932500D03*
X123507500Y-87312500D03*
X153987500Y-94932500D03*
X120967500Y-87312500D03*
D14*
X87630000Y-86360000D03*
D15*
X87630000Y-88900000D03*
X87630000Y-91440000D03*
X87630000Y-93980000D03*
X87630000Y-96520000D03*
X87630000Y-99060000D03*
D16*
X85725000Y-80645000D03*
D17*
X85725000Y-78105000D03*
X85725000Y-75565000D03*
D18*
X154305000Y-45085000D03*
D19*
X151765000Y-45085000D03*
X149225000Y-45085000D03*
X146685000Y-45085000D03*
D16*
X110490000Y-90805000D03*
D17*
X110490000Y-88265000D03*
X113030000Y-90805000D03*
X113030000Y-88265000D03*
X115570000Y-90805000D03*
X115570000Y-88265000D03*
D11*
X107950000Y-70485000D03*
D13*
X107950000Y-60325000D03*
D11*
X93345000Y-55245000D03*
D13*
X93345000Y-65405000D03*
D11*
X85725000Y-65405000D03*
D13*
X85725000Y-55245000D03*
D11*
X106680000Y-55245000D03*
D13*
X96520000Y-55245000D03*
D11*
X89535000Y-55245000D03*
D13*
X89535000Y-65405000D03*
D11*
X111760000Y-78105000D03*
D13*
X111760000Y-67945000D03*
D11*
X115570000Y-81280000D03*
D13*
X115570000Y-71120000D03*
D11*
X157162500Y-72072500D03*
D13*
X157162500Y-82232500D03*
D11*
X151447500Y-72072500D03*
D13*
X151447500Y-82232500D03*
D11*
X145732500Y-72072500D03*
D13*
X145732500Y-82232500D03*
D11*
X157162500Y-51752500D03*
D13*
X157162500Y-61912500D03*
D11*
X151447500Y-51752500D03*
D13*
X151447500Y-61912500D03*
D11*
X145732500Y-51752500D03*
D13*
X145732500Y-61912500D03*
D11*
X142557500Y-47942500D03*
D13*
X132397500Y-47942500D03*
D11*
X142557500Y-55562500D03*
D13*
X132397500Y-55562500D03*
D11*
X142557500Y-51752500D03*
D13*
X132397500Y-51752500D03*
D20*
X102791260Y-99060000D03*
X107792520Y-99060000D03*
X97790000Y-99060000D03*
D12*
X96520000Y-62865000D03*
D13*
X104140000Y-70485000D03*
X96520000Y-65405000D03*
X104140000Y-67945000D03*
X96520000Y-67945000D03*
X104140000Y-65405000D03*
X96520000Y-70485000D03*
X104140000Y-62865000D03*
D20*
X94693740Y-45720000D03*
X89692480Y-45720000D03*
X99695000Y-45720000D03*
D11*
X89535000Y-70485000D03*
D13*
X89535000Y-80645000D03*
D21*
X154305000Y-67310000D03*
X154305000Y-69850000D03*
D22*
X154305000Y-64770000D03*
D21*
X148590000Y-67310000D03*
X148590000Y-69850000D03*
D22*
X148590000Y-64770000D03*
D21*
X142875000Y-67310000D03*
X142875000Y-69850000D03*
D22*
X142875000Y-64770000D03*
D23*
X111475000Y-95060000D03*
X117475000Y-95060000D03*
X111475000Y-99060000D03*
X117475000Y-99060000D03*
D20*
X118188740Y-45720000D03*
X113187480Y-45720000D03*
X123190000Y-45720000D03*
D24*
X157480000Y-98425000D03*
X85725000Y-46990000D03*
D25*
X87630000Y-91440000D02*
X91360000Y-91440000D01*
X91360000Y-91440000D02*
X104695000Y-78105000D01*
X104140000Y-62865000D02*
X100965000Y-66040000D01*
X102870000Y-78105000D02*
X104695000Y-78105000D01*
X100330000Y-75565000D02*
X102870000Y-78105000D01*
X100330000Y-66675000D02*
X100330000Y-75565000D01*
X100965000Y-66040000D02*
X100330000Y-66675000D01*
X95980000Y-78105000D02*
X95980000Y-71025000D01*
X95980000Y-71025000D02*
X96520000Y-70485000D01*
X95980000Y-71025000D02*
X96520000Y-70485000D01*
X141287500Y-87312500D02*
X141287500Y-72072500D01*
X123190000Y-53975000D02*
X123190000Y-45720000D01*
X141287500Y-72072500D02*
X123190000Y-53975000D01*
X141287500Y-87312500D02*
X136525000Y-92075000D01*
X136525000Y-92075000D02*
X136525000Y-94615000D01*
X136525000Y-94615000D02*
X136207500Y-94932500D01*
X118188740Y-45720000D02*
X118188740Y-52148740D01*
X138350000Y-72310000D02*
X138350000Y-83820000D01*
X118188740Y-52148740D02*
X138350000Y-72310000D01*
X97790000Y-99060000D02*
X97790000Y-92710000D01*
X109855000Y-83820000D02*
X112395000Y-81280000D01*
X106680000Y-83820000D02*
X109855000Y-83820000D01*
X97790000Y-92710000D02*
X106680000Y-83820000D01*
X115570000Y-90805000D02*
X116840000Y-90805000D01*
X116840000Y-90805000D02*
X120967500Y-94932500D01*
X87630000Y-96520000D02*
X92710000Y-96520000D01*
X123507500Y-96837500D02*
X123507500Y-94932500D01*
X119380000Y-100965000D02*
X123507500Y-96837500D01*
X97155000Y-100965000D02*
X119380000Y-100965000D01*
X92710000Y-96520000D02*
X97155000Y-100965000D01*
X87630000Y-99060000D02*
X93980000Y-99060000D01*
X126047500Y-96202500D02*
X126047500Y-94932500D01*
X120015000Y-102235000D02*
X126047500Y-96202500D01*
X97155000Y-102235000D02*
X120015000Y-102235000D01*
X93980000Y-99060000D02*
X97155000Y-102235000D01*
X102791260Y-99060000D02*
X102791260Y-90248740D01*
X118745000Y-85090000D02*
X120967500Y-87312500D01*
X107950000Y-85090000D02*
X118745000Y-85090000D01*
X102791260Y-90248740D02*
X107950000Y-85090000D01*
X142557500Y-47942500D02*
X153352500Y-47942500D01*
X153352500Y-47942500D02*
X157162500Y-51752500D01*
X157162500Y-72072500D02*
X157162500Y-70167500D01*
X157162500Y-70167500D02*
X154305000Y-67310000D01*
X151447500Y-72072500D02*
X151447500Y-70167500D01*
X151447500Y-70167500D02*
X148590000Y-67310000D01*
X145732500Y-72072500D02*
X145732500Y-70167500D01*
X145732500Y-70167500D02*
X142875000Y-67310000D01*
D26*
G36*
X161215000Y-102160000D02*
X121164802Y-102160000D01*
X123980615Y-99344187D01*
X131994752Y-99344187D01*
X132212757Y-99871800D01*
X132616077Y-100275824D01*
X133143309Y-100494750D01*
X133714187Y-100495248D01*
X134241800Y-100277243D01*
X134451663Y-100067745D01*
X137601861Y-100067745D01*
X137675995Y-100313864D01*
X138213223Y-100506965D01*
X138783454Y-100479778D01*
X139184005Y-100313864D01*
X139258139Y-100067745D01*
X138430000Y-99239605D01*
X137601861Y-100067745D01*
X134451663Y-100067745D01*
X134645824Y-99873923D01*
X134864750Y-99346691D01*
X134865189Y-98843223D01*
X136983035Y-98843223D01*
X137010222Y-99413454D01*
X137176136Y-99814005D01*
X137422255Y-99888139D01*
X138250395Y-99060000D01*
X138609605Y-99060000D01*
X139437745Y-99888139D01*
X139683864Y-99814005D01*
X139876965Y-99276777D01*
X139861537Y-98953172D01*
X154812538Y-98953172D01*
X155217709Y-99933761D01*
X155967293Y-100684655D01*
X156947173Y-101091536D01*
X158008172Y-101092462D01*
X158988761Y-100687291D01*
X159739655Y-99937707D01*
X160146536Y-98957827D01*
X160147462Y-97896828D01*
X159742291Y-96916239D01*
X158992707Y-96165345D01*
X158012827Y-95758464D01*
X156951828Y-95757538D01*
X155971239Y-96162709D01*
X155220345Y-96912293D01*
X154813464Y-97892173D01*
X154812538Y-98953172D01*
X139861537Y-98953172D01*
X139849778Y-98706546D01*
X139683864Y-98305995D01*
X139437745Y-98231861D01*
X138609605Y-99060000D01*
X138250395Y-99060000D01*
X137422255Y-98231861D01*
X137176136Y-98305995D01*
X136983035Y-98843223D01*
X134865189Y-98843223D01*
X134865248Y-98775813D01*
X134647243Y-98248200D01*
X134451640Y-98052255D01*
X137601861Y-98052255D01*
X138430000Y-98880395D01*
X139258139Y-98052255D01*
X139184005Y-97806136D01*
X138646777Y-97613035D01*
X138076546Y-97640222D01*
X137675995Y-97806136D01*
X137601861Y-98052255D01*
X134451640Y-98052255D01*
X134243923Y-97844176D01*
X133716691Y-97625250D01*
X133145813Y-97624752D01*
X132618200Y-97842757D01*
X132214176Y-98246077D01*
X131995250Y-98773309D01*
X131994752Y-99344187D01*
X123980615Y-99344187D01*
X126584901Y-96739901D01*
X126749648Y-96493340D01*
X126807500Y-96202500D01*
X126807500Y-96145495D01*
X127062198Y-95975311D01*
X127317500Y-95593225D01*
X127572802Y-95975311D01*
X128038349Y-96286380D01*
X128587500Y-96395613D01*
X129136651Y-96286380D01*
X129602198Y-95975311D01*
X129857500Y-95593225D01*
X130112802Y-95975311D01*
X130578349Y-96286380D01*
X131127500Y-96395613D01*
X131676651Y-96286380D01*
X132142198Y-95975311D01*
X132397500Y-95593225D01*
X132652802Y-95975311D01*
X133118349Y-96286380D01*
X133667500Y-96395613D01*
X134216651Y-96286380D01*
X134682198Y-95975311D01*
X134937500Y-95593225D01*
X135192802Y-95975311D01*
X135658349Y-96286380D01*
X136207500Y-96395613D01*
X136756651Y-96286380D01*
X137222198Y-95975311D01*
X137492486Y-95570797D01*
X137595111Y-95787634D01*
X138010077Y-96163541D01*
X138398461Y-96324404D01*
X138620500Y-96202415D01*
X138620500Y-95059500D01*
X138600500Y-95059500D01*
X138600500Y-94805500D01*
X138620500Y-94805500D01*
X138620500Y-93662585D01*
X138874500Y-93662585D01*
X138874500Y-94805500D01*
X138894500Y-94805500D01*
X138894500Y-95059500D01*
X138874500Y-95059500D01*
X138874500Y-96202415D01*
X139096539Y-96324404D01*
X139484923Y-96163541D01*
X139899889Y-95787634D01*
X140002514Y-95570797D01*
X140272802Y-95975311D01*
X140738349Y-96286380D01*
X141287500Y-96395613D01*
X141836651Y-96286380D01*
X142302198Y-95975311D01*
X142557500Y-95593225D01*
X142812802Y-95975311D01*
X143278349Y-96286380D01*
X143827500Y-96395613D01*
X144376651Y-96286380D01*
X144842198Y-95975311D01*
X145097500Y-95593225D01*
X145352802Y-95975311D01*
X145818349Y-96286380D01*
X146367500Y-96395613D01*
X146916651Y-96286380D01*
X147382198Y-95975311D01*
X147637500Y-95593225D01*
X147892802Y-95975311D01*
X148358349Y-96286380D01*
X148907500Y-96395613D01*
X149456651Y-96286380D01*
X149922198Y-95975311D01*
X150177500Y-95593225D01*
X150432802Y-95975311D01*
X150898349Y-96286380D01*
X151447500Y-96395613D01*
X151996651Y-96286380D01*
X152462198Y-95975311D01*
X152717500Y-95593225D01*
X152972802Y-95975311D01*
X153438349Y-96286380D01*
X153987500Y-96395613D01*
X154536651Y-96286380D01*
X155002198Y-95975311D01*
X155313267Y-95509764D01*
X155422500Y-94960613D01*
X155422500Y-94904387D01*
X155313267Y-94355236D01*
X155002198Y-93889689D01*
X154536651Y-93578620D01*
X153987500Y-93469387D01*
X153438349Y-93578620D01*
X152972802Y-93889689D01*
X152717500Y-94271775D01*
X152462198Y-93889689D01*
X151996651Y-93578620D01*
X151447500Y-93469387D01*
X150898349Y-93578620D01*
X150432802Y-93889689D01*
X150177500Y-94271775D01*
X149922198Y-93889689D01*
X149456651Y-93578620D01*
X148907500Y-93469387D01*
X148358349Y-93578620D01*
X147892802Y-93889689D01*
X147637500Y-94271775D01*
X147382198Y-93889689D01*
X146916651Y-93578620D01*
X146367500Y-93469387D01*
X145818349Y-93578620D01*
X145352802Y-93889689D01*
X145097500Y-94271775D01*
X144842198Y-93889689D01*
X144376651Y-93578620D01*
X143827500Y-93469387D01*
X143278349Y-93578620D01*
X142812802Y-93889689D01*
X142557500Y-94271775D01*
X142302198Y-93889689D01*
X141836651Y-93578620D01*
X141287500Y-93469387D01*
X140738349Y-93578620D01*
X140272802Y-93889689D01*
X140002514Y-94294203D01*
X139899889Y-94077366D01*
X139484923Y-93701459D01*
X139096539Y-93540596D01*
X138874500Y-93662585D01*
X138620500Y-93662585D01*
X138398461Y-93540596D01*
X138010077Y-93701459D01*
X137595111Y-94077366D01*
X137492486Y-94294203D01*
X137285000Y-93983679D01*
X137285000Y-92389802D01*
X140963614Y-88711188D01*
X141287500Y-88775613D01*
X141836651Y-88666380D01*
X142302198Y-88355311D01*
X142557500Y-87973225D01*
X142812802Y-88355311D01*
X143278349Y-88666380D01*
X143827500Y-88775613D01*
X144376651Y-88666380D01*
X144842198Y-88355311D01*
X145097500Y-87973225D01*
X145352802Y-88355311D01*
X145818349Y-88666380D01*
X146367500Y-88775613D01*
X146916651Y-88666380D01*
X147382198Y-88355311D01*
X147637500Y-87973225D01*
X147892802Y-88355311D01*
X148358349Y-88666380D01*
X148907500Y-88775613D01*
X149456651Y-88666380D01*
X149922198Y-88355311D01*
X150177500Y-87973225D01*
X150432802Y-88355311D01*
X150898349Y-88666380D01*
X151447500Y-88775613D01*
X151996651Y-88666380D01*
X152462198Y-88355311D01*
X152717500Y-87973225D01*
X152972802Y-88355311D01*
X153438349Y-88666380D01*
X153987500Y-88775613D01*
X154536651Y-88666380D01*
X155002198Y-88355311D01*
X155313267Y-87889764D01*
X155422500Y-87340613D01*
X155422500Y-87284387D01*
X155313267Y-86735236D01*
X155002198Y-86269689D01*
X154536651Y-85958620D01*
X153987500Y-85849387D01*
X153438349Y-85958620D01*
X152972802Y-86269689D01*
X152717500Y-86651775D01*
X152462198Y-86269689D01*
X151996651Y-85958620D01*
X151447500Y-85849387D01*
X150898349Y-85958620D01*
X150432802Y-86269689D01*
X150177500Y-86651775D01*
X149922198Y-86269689D01*
X149456651Y-85958620D01*
X148907500Y-85849387D01*
X148358349Y-85958620D01*
X147892802Y-86269689D01*
X147637500Y-86651775D01*
X147382198Y-86269689D01*
X146916651Y-85958620D01*
X146367500Y-85849387D01*
X145818349Y-85958620D01*
X145352802Y-86269689D01*
X145097500Y-86651775D01*
X144842198Y-86269689D01*
X144376651Y-85958620D01*
X143827500Y-85849387D01*
X143278349Y-85958620D01*
X142812802Y-86269689D01*
X142557500Y-86651775D01*
X142302198Y-86269689D01*
X142047500Y-86099505D01*
X142047500Y-82204387D01*
X144297500Y-82204387D01*
X144297500Y-82260613D01*
X144406733Y-82809764D01*
X144717802Y-83275311D01*
X145183349Y-83586380D01*
X145732500Y-83695613D01*
X146281651Y-83586380D01*
X146747198Y-83275311D01*
X147058267Y-82809764D01*
X147167500Y-82260613D01*
X147167500Y-82204387D01*
X150012500Y-82204387D01*
X150012500Y-82260613D01*
X150121733Y-82809764D01*
X150432802Y-83275311D01*
X150898349Y-83586380D01*
X151447500Y-83695613D01*
X151996651Y-83586380D01*
X152462198Y-83275311D01*
X152773267Y-82809764D01*
X152882500Y-82260613D01*
X152882500Y-82204387D01*
X155727500Y-82204387D01*
X155727500Y-82260613D01*
X155836733Y-82809764D01*
X156147802Y-83275311D01*
X156613349Y-83586380D01*
X157162500Y-83695613D01*
X157711651Y-83586380D01*
X158177198Y-83275311D01*
X158488267Y-82809764D01*
X158597500Y-82260613D01*
X158597500Y-82204387D01*
X158488267Y-81655236D01*
X158177198Y-81189689D01*
X157711651Y-80878620D01*
X157162500Y-80769387D01*
X156613349Y-80878620D01*
X156147802Y-81189689D01*
X155836733Y-81655236D01*
X155727500Y-82204387D01*
X152882500Y-82204387D01*
X152773267Y-81655236D01*
X152462198Y-81189689D01*
X151996651Y-80878620D01*
X151447500Y-80769387D01*
X150898349Y-80878620D01*
X150432802Y-81189689D01*
X150121733Y-81655236D01*
X150012500Y-82204387D01*
X147167500Y-82204387D01*
X147058267Y-81655236D01*
X146747198Y-81189689D01*
X146281651Y-80878620D01*
X145732500Y-80769387D01*
X145183349Y-80878620D01*
X144717802Y-81189689D01*
X144406733Y-81655236D01*
X144297500Y-82204387D01*
X142047500Y-82204387D01*
X142047500Y-72072500D01*
X141989648Y-71781661D01*
X141824901Y-71535099D01*
X134297802Y-64008000D01*
X141465560Y-64008000D01*
X141465560Y-65532000D01*
X141509838Y-65767317D01*
X141648910Y-65983441D01*
X141861110Y-66128431D01*
X142044124Y-66165492D01*
X141691371Y-66517630D01*
X141478243Y-67030900D01*
X141477758Y-67586661D01*
X141689990Y-68100303D01*
X142082630Y-68493629D01*
X142290512Y-68579949D01*
X142084697Y-68664990D01*
X141691371Y-69057630D01*
X141478243Y-69570900D01*
X141477758Y-70126661D01*
X141689990Y-70640303D01*
X142082630Y-71033629D01*
X142595900Y-71246757D01*
X143151661Y-71247242D01*
X143665303Y-71035010D01*
X144058629Y-70642370D01*
X144271757Y-70129100D01*
X144272060Y-69781862D01*
X144972500Y-70482302D01*
X144972500Y-70833854D01*
X144920700Y-70855257D01*
X144516676Y-71258577D01*
X144297750Y-71785809D01*
X144297252Y-72356687D01*
X144515257Y-72884300D01*
X144918577Y-73288324D01*
X145445809Y-73507250D01*
X146016687Y-73507748D01*
X146544300Y-73289743D01*
X146948324Y-72886423D01*
X147167250Y-72359191D01*
X147167748Y-71788313D01*
X146949743Y-71260700D01*
X146546423Y-70856676D01*
X146492500Y-70834285D01*
X146492500Y-70167500D01*
X146434648Y-69876661D01*
X146434648Y-69876660D01*
X146269901Y-69630099D01*
X144259183Y-67619381D01*
X144271757Y-67589100D01*
X144272242Y-67033339D01*
X144060010Y-66519697D01*
X143707167Y-66166237D01*
X143872317Y-66135162D01*
X144088441Y-65996090D01*
X144233431Y-65783890D01*
X144284440Y-65532000D01*
X144284440Y-64008000D01*
X147180560Y-64008000D01*
X147180560Y-65532000D01*
X147224838Y-65767317D01*
X147363910Y-65983441D01*
X147576110Y-66128431D01*
X147759124Y-66165492D01*
X147406371Y-66517630D01*
X147193243Y-67030900D01*
X147192758Y-67586661D01*
X147404990Y-68100303D01*
X147797630Y-68493629D01*
X148005512Y-68579949D01*
X147799697Y-68664990D01*
X147406371Y-69057630D01*
X147193243Y-69570900D01*
X147192758Y-70126661D01*
X147404990Y-70640303D01*
X147797630Y-71033629D01*
X148310900Y-71246757D01*
X148866661Y-71247242D01*
X149380303Y-71035010D01*
X149773629Y-70642370D01*
X149986757Y-70129100D01*
X149987060Y-69781862D01*
X150687500Y-70482302D01*
X150687500Y-70833854D01*
X150635700Y-70855257D01*
X150231676Y-71258577D01*
X150012750Y-71785809D01*
X150012252Y-72356687D01*
X150230257Y-72884300D01*
X150633577Y-73288324D01*
X151160809Y-73507250D01*
X151731687Y-73507748D01*
X152259300Y-73289743D01*
X152663324Y-72886423D01*
X152882250Y-72359191D01*
X152882748Y-71788313D01*
X152664743Y-71260700D01*
X152261423Y-70856676D01*
X152207500Y-70834285D01*
X152207500Y-70167500D01*
X152149648Y-69876661D01*
X152149648Y-69876660D01*
X151984901Y-69630099D01*
X149974183Y-67619381D01*
X149986757Y-67589100D01*
X149987242Y-67033339D01*
X149775010Y-66519697D01*
X149422167Y-66166237D01*
X149587317Y-66135162D01*
X149803441Y-65996090D01*
X149948431Y-65783890D01*
X149999440Y-65532000D01*
X149999440Y-64008000D01*
X152895560Y-64008000D01*
X152895560Y-65532000D01*
X152939838Y-65767317D01*
X153078910Y-65983441D01*
X153291110Y-66128431D01*
X153474124Y-66165492D01*
X153121371Y-66517630D01*
X152908243Y-67030900D01*
X152907758Y-67586661D01*
X153119990Y-68100303D01*
X153512630Y-68493629D01*
X153720512Y-68579949D01*
X153514697Y-68664990D01*
X153121371Y-69057630D01*
X152908243Y-69570900D01*
X152907758Y-70126661D01*
X153119990Y-70640303D01*
X153512630Y-71033629D01*
X154025900Y-71246757D01*
X154581661Y-71247242D01*
X155095303Y-71035010D01*
X155488629Y-70642370D01*
X155701757Y-70129100D01*
X155702060Y-69781862D01*
X156402500Y-70482302D01*
X156402500Y-70833854D01*
X156350700Y-70855257D01*
X155946676Y-71258577D01*
X155727750Y-71785809D01*
X155727252Y-72356687D01*
X155945257Y-72884300D01*
X156348577Y-73288324D01*
X156875809Y-73507250D01*
X157446687Y-73507748D01*
X157974300Y-73289743D01*
X158378324Y-72886423D01*
X158597250Y-72359191D01*
X158597748Y-71788313D01*
X158379743Y-71260700D01*
X157976423Y-70856676D01*
X157922500Y-70834285D01*
X157922500Y-70167500D01*
X157864648Y-69876661D01*
X157864648Y-69876660D01*
X157699901Y-69630099D01*
X155689183Y-67619381D01*
X155701757Y-67589100D01*
X155702242Y-67033339D01*
X155490010Y-66519697D01*
X155137167Y-66166237D01*
X155302317Y-66135162D01*
X155518441Y-65996090D01*
X155663431Y-65783890D01*
X155714440Y-65532000D01*
X155714440Y-64008000D01*
X155670162Y-63772683D01*
X155531090Y-63556559D01*
X155318890Y-63411569D01*
X155067000Y-63360560D01*
X153543000Y-63360560D01*
X153307683Y-63404838D01*
X153091559Y-63543910D01*
X152946569Y-63756110D01*
X152895560Y-64008000D01*
X149999440Y-64008000D01*
X149955162Y-63772683D01*
X149816090Y-63556559D01*
X149603890Y-63411569D01*
X149352000Y-63360560D01*
X147828000Y-63360560D01*
X147592683Y-63404838D01*
X147376559Y-63543910D01*
X147231569Y-63756110D01*
X147180560Y-64008000D01*
X144284440Y-64008000D01*
X144240162Y-63772683D01*
X144101090Y-63556559D01*
X143888890Y-63411569D01*
X143637000Y-63360560D01*
X142113000Y-63360560D01*
X141877683Y-63404838D01*
X141661559Y-63543910D01*
X141516569Y-63756110D01*
X141465560Y-64008000D01*
X134297802Y-64008000D01*
X132174189Y-61884387D01*
X144297500Y-61884387D01*
X144297500Y-61940613D01*
X144406733Y-62489764D01*
X144717802Y-62955311D01*
X145183349Y-63266380D01*
X145732500Y-63375613D01*
X146281651Y-63266380D01*
X146747198Y-62955311D01*
X147058267Y-62489764D01*
X147167500Y-61940613D01*
X147167500Y-61884387D01*
X150012500Y-61884387D01*
X150012500Y-61940613D01*
X150121733Y-62489764D01*
X150432802Y-62955311D01*
X150898349Y-63266380D01*
X151447500Y-63375613D01*
X151996651Y-63266380D01*
X152462198Y-62955311D01*
X152773267Y-62489764D01*
X152882500Y-61940613D01*
X152882500Y-61884387D01*
X155727500Y-61884387D01*
X155727500Y-61940613D01*
X155836733Y-62489764D01*
X156147802Y-62955311D01*
X156613349Y-63266380D01*
X157162500Y-63375613D01*
X157711651Y-63266380D01*
X158177198Y-62955311D01*
X158488267Y-62489764D01*
X158597500Y-61940613D01*
X158597500Y-61884387D01*
X158488267Y-61335236D01*
X158177198Y-60869689D01*
X157711651Y-60558620D01*
X157162500Y-60449387D01*
X156613349Y-60558620D01*
X156147802Y-60869689D01*
X155836733Y-61335236D01*
X155727500Y-61884387D01*
X152882500Y-61884387D01*
X152773267Y-61335236D01*
X152462198Y-60869689D01*
X151996651Y-60558620D01*
X151447500Y-60449387D01*
X150898349Y-60558620D01*
X150432802Y-60869689D01*
X150121733Y-61335236D01*
X150012500Y-61884387D01*
X147167500Y-61884387D01*
X147058267Y-61335236D01*
X146747198Y-60869689D01*
X146281651Y-60558620D01*
X145732500Y-60449387D01*
X145183349Y-60558620D01*
X144717802Y-60869689D01*
X144406733Y-61335236D01*
X144297500Y-61884387D01*
X132174189Y-61884387D01*
X125852302Y-55562500D01*
X130934387Y-55562500D01*
X131043620Y-56111651D01*
X131354689Y-56577198D01*
X131820236Y-56888267D01*
X132369387Y-56997500D01*
X132425613Y-56997500D01*
X132974764Y-56888267D01*
X133440311Y-56577198D01*
X133751380Y-56111651D01*
X133804084Y-55846687D01*
X141122252Y-55846687D01*
X141340257Y-56374300D01*
X141743577Y-56778324D01*
X142270809Y-56997250D01*
X142841687Y-56997748D01*
X143369300Y-56779743D01*
X143773324Y-56376423D01*
X143992250Y-55849191D01*
X143992748Y-55278313D01*
X143774743Y-54750700D01*
X143371423Y-54346676D01*
X142844191Y-54127750D01*
X142273313Y-54127252D01*
X141745700Y-54345257D01*
X141341676Y-54748577D01*
X141122750Y-55275809D01*
X141122252Y-55846687D01*
X133804084Y-55846687D01*
X133860613Y-55562500D01*
X133751380Y-55013349D01*
X133440311Y-54547802D01*
X132974764Y-54236733D01*
X132425613Y-54127500D01*
X132369387Y-54127500D01*
X131820236Y-54236733D01*
X131354689Y-54547802D01*
X131043620Y-55013349D01*
X130934387Y-55562500D01*
X125852302Y-55562500D01*
X123950000Y-53660198D01*
X123950000Y-51752500D01*
X130934387Y-51752500D01*
X131043620Y-52301651D01*
X131354689Y-52767198D01*
X131820236Y-53078267D01*
X132369387Y-53187500D01*
X132425613Y-53187500D01*
X132974764Y-53078267D01*
X133440311Y-52767198D01*
X133751380Y-52301651D01*
X133804084Y-52036687D01*
X141122252Y-52036687D01*
X141340257Y-52564300D01*
X141743577Y-52968324D01*
X142270809Y-53187250D01*
X142841687Y-53187748D01*
X143369300Y-52969743D01*
X143773324Y-52566423D01*
X143992250Y-52039191D01*
X143992252Y-52036687D01*
X144297252Y-52036687D01*
X144515257Y-52564300D01*
X144918577Y-52968324D01*
X145445809Y-53187250D01*
X146016687Y-53187748D01*
X146544300Y-52969743D01*
X146948324Y-52566423D01*
X147167250Y-52039191D01*
X147167252Y-52036687D01*
X150012252Y-52036687D01*
X150230257Y-52564300D01*
X150633577Y-52968324D01*
X151160809Y-53187250D01*
X151731687Y-53187748D01*
X152259300Y-52969743D01*
X152663324Y-52566423D01*
X152882250Y-52039191D01*
X152882748Y-51468313D01*
X152664743Y-50940700D01*
X152261423Y-50536676D01*
X151734191Y-50317750D01*
X151163313Y-50317252D01*
X150635700Y-50535257D01*
X150231676Y-50938577D01*
X150012750Y-51465809D01*
X150012252Y-52036687D01*
X147167252Y-52036687D01*
X147167748Y-51468313D01*
X146949743Y-50940700D01*
X146546423Y-50536676D01*
X146019191Y-50317750D01*
X145448313Y-50317252D01*
X144920700Y-50535257D01*
X144516676Y-50938577D01*
X144297750Y-51465809D01*
X144297252Y-52036687D01*
X143992252Y-52036687D01*
X143992748Y-51468313D01*
X143774743Y-50940700D01*
X143371423Y-50536676D01*
X142844191Y-50317750D01*
X142273313Y-50317252D01*
X141745700Y-50535257D01*
X141341676Y-50938577D01*
X141122750Y-51465809D01*
X141122252Y-52036687D01*
X133804084Y-52036687D01*
X133860613Y-51752500D01*
X133751380Y-51203349D01*
X133440311Y-50737802D01*
X132974764Y-50426733D01*
X132425613Y-50317500D01*
X132369387Y-50317500D01*
X131820236Y-50426733D01*
X131354689Y-50737802D01*
X131043620Y-51203349D01*
X130934387Y-51752500D01*
X123950000Y-51752500D01*
X123950000Y-47942500D01*
X130934387Y-47942500D01*
X131043620Y-48491651D01*
X131354689Y-48957198D01*
X131820236Y-49268267D01*
X132369387Y-49377500D01*
X132425613Y-49377500D01*
X132974764Y-49268267D01*
X133440311Y-48957198D01*
X133751380Y-48491651D01*
X133804084Y-48226687D01*
X141122252Y-48226687D01*
X141340257Y-48754300D01*
X141743577Y-49158324D01*
X142270809Y-49377250D01*
X142841687Y-49377748D01*
X143369300Y-49159743D01*
X143773324Y-48756423D01*
X143795715Y-48702500D01*
X153037698Y-48702500D01*
X155749244Y-51414046D01*
X155727750Y-51465809D01*
X155727252Y-52036687D01*
X155945257Y-52564300D01*
X156348577Y-52968324D01*
X156875809Y-53187250D01*
X157446687Y-53187748D01*
X157974300Y-52969743D01*
X158378324Y-52566423D01*
X158597250Y-52039191D01*
X158597748Y-51468313D01*
X158379743Y-50940700D01*
X157976423Y-50536676D01*
X157449191Y-50317750D01*
X156878313Y-50317252D01*
X156824351Y-50339549D01*
X153889901Y-47405099D01*
X153643339Y-47240352D01*
X153352500Y-47182500D01*
X143796146Y-47182500D01*
X143774743Y-47130700D01*
X143371423Y-46726676D01*
X142844191Y-46507750D01*
X142273313Y-46507252D01*
X141745700Y-46725257D01*
X141341676Y-47128577D01*
X141122750Y-47655809D01*
X141122252Y-48226687D01*
X133804084Y-48226687D01*
X133860613Y-47942500D01*
X133751380Y-47393349D01*
X133440311Y-46927802D01*
X132974764Y-46616733D01*
X132425613Y-46507500D01*
X132369387Y-46507500D01*
X131820236Y-46616733D01*
X131354689Y-46927802D01*
X131043620Y-47393349D01*
X130934387Y-47942500D01*
X123950000Y-47942500D01*
X123950000Y-47445201D01*
X124256191Y-47318686D01*
X124786822Y-46788979D01*
X125074352Y-46096531D01*
X125075006Y-45346759D01*
X124890516Y-44900255D01*
X145186400Y-44900255D01*
X145186400Y-45269745D01*
X145300474Y-45843234D01*
X145625330Y-46329415D01*
X146111511Y-46654271D01*
X146685000Y-46768345D01*
X147258489Y-46654271D01*
X147744670Y-46329415D01*
X147955000Y-46014634D01*
X148165330Y-46329415D01*
X148651511Y-46654271D01*
X149225000Y-46768345D01*
X149798489Y-46654271D01*
X150284670Y-46329415D01*
X150495000Y-46014634D01*
X150705330Y-46329415D01*
X151191511Y-46654271D01*
X151765000Y-46768345D01*
X152338489Y-46654271D01*
X152824670Y-46329415D01*
X152834243Y-46315087D01*
X152838238Y-46336317D01*
X152977310Y-46552441D01*
X153189510Y-46697431D01*
X153441400Y-46748440D01*
X155168600Y-46748440D01*
X155403917Y-46704162D01*
X155620041Y-46565090D01*
X155765031Y-46352890D01*
X155816040Y-46101000D01*
X155816040Y-44069000D01*
X155771762Y-43833683D01*
X155632690Y-43617559D01*
X155420490Y-43472569D01*
X155168600Y-43421560D01*
X153441400Y-43421560D01*
X153206083Y-43465838D01*
X152989959Y-43604910D01*
X152844969Y-43817110D01*
X152836600Y-43858439D01*
X152824670Y-43840585D01*
X152338489Y-43515729D01*
X151765000Y-43401655D01*
X151191511Y-43515729D01*
X150705330Y-43840585D01*
X150495000Y-44155366D01*
X150284670Y-43840585D01*
X149798489Y-43515729D01*
X149225000Y-43401655D01*
X148651511Y-43515729D01*
X148165330Y-43840585D01*
X147955000Y-44155366D01*
X147744670Y-43840585D01*
X147258489Y-43515729D01*
X146685000Y-43401655D01*
X146111511Y-43515729D01*
X145625330Y-43840585D01*
X145300474Y-44326766D01*
X145186400Y-44900255D01*
X124890516Y-44900255D01*
X124788686Y-44653809D01*
X124258979Y-44123178D01*
X123566531Y-43835648D01*
X122816759Y-43834994D01*
X122123809Y-44121314D01*
X121593178Y-44651021D01*
X121305648Y-45343469D01*
X121304994Y-46093241D01*
X121591314Y-46786191D01*
X122121021Y-47316822D01*
X122430000Y-47445121D01*
X122430000Y-53975000D01*
X122487852Y-54265839D01*
X122652599Y-54512401D01*
X140527500Y-72387302D01*
X140527500Y-86099505D01*
X140272802Y-86269689D01*
X140017500Y-86651775D01*
X139762198Y-86269689D01*
X139296651Y-85958620D01*
X138747500Y-85849387D01*
X138198349Y-85958620D01*
X137732802Y-86269689D01*
X137462514Y-86674203D01*
X137359889Y-86457366D01*
X136944923Y-86081459D01*
X136556539Y-85920596D01*
X136334500Y-86042585D01*
X136334500Y-87185500D01*
X136354500Y-87185500D01*
X136354500Y-87439500D01*
X136334500Y-87439500D01*
X136334500Y-88582415D01*
X136556539Y-88704404D01*
X136944923Y-88543541D01*
X137359889Y-88167634D01*
X137462514Y-87950797D01*
X137732802Y-88355311D01*
X138198349Y-88666380D01*
X138747500Y-88775613D01*
X138750103Y-88775095D01*
X135987599Y-91537599D01*
X135822852Y-91784161D01*
X135765000Y-92075000D01*
X135765000Y-93557406D01*
X135658349Y-93578620D01*
X135192802Y-93889689D01*
X134937500Y-94271775D01*
X134682198Y-93889689D01*
X134216651Y-93578620D01*
X133667500Y-93469387D01*
X133118349Y-93578620D01*
X132652802Y-93889689D01*
X132397500Y-94271775D01*
X132142198Y-93889689D01*
X131676651Y-93578620D01*
X131127500Y-93469387D01*
X130578349Y-93578620D01*
X130112802Y-93889689D01*
X129857500Y-94271775D01*
X129602198Y-93889689D01*
X129136651Y-93578620D01*
X128587500Y-93469387D01*
X128038349Y-93578620D01*
X127572802Y-93889689D01*
X127317500Y-94271775D01*
X127062198Y-93889689D01*
X126596651Y-93578620D01*
X126047500Y-93469387D01*
X125498349Y-93578620D01*
X125032802Y-93889689D01*
X124777500Y-94271775D01*
X124522198Y-93889689D01*
X124056651Y-93578620D01*
X123507500Y-93469387D01*
X122958349Y-93578620D01*
X122492802Y-93889689D01*
X122396399Y-94033965D01*
X122370662Y-93897183D01*
X122231590Y-93681059D01*
X122019390Y-93536069D01*
X121767500Y-93485060D01*
X120594862Y-93485060D01*
X117377401Y-90267599D01*
X117130839Y-90102852D01*
X116840000Y-90045000D01*
X116833301Y-90045000D01*
X116620054Y-89725853D01*
X116336899Y-89536655D01*
X116336924Y-89536645D01*
X116765183Y-89146358D01*
X117011486Y-88621892D01*
X116890819Y-88392000D01*
X115697000Y-88392000D01*
X115697000Y-88412000D01*
X115443000Y-88412000D01*
X115443000Y-88392000D01*
X115423000Y-88392000D01*
X115423000Y-88138000D01*
X115443000Y-88138000D01*
X115443000Y-86944845D01*
X115697000Y-86944845D01*
X115697000Y-88138000D01*
X116890819Y-88138000D01*
X117011486Y-87908108D01*
X116765183Y-87383642D01*
X116336924Y-86993355D01*
X115926890Y-86823524D01*
X115697000Y-86944845D01*
X115443000Y-86944845D01*
X115213110Y-86823524D01*
X114803076Y-86993355D01*
X114374817Y-87383642D01*
X114307702Y-87526553D01*
X114080054Y-87185853D01*
X113598285Y-86863946D01*
X113030000Y-86750907D01*
X112461715Y-86863946D01*
X111979946Y-87185853D01*
X111760000Y-87515026D01*
X111540054Y-87185853D01*
X111058285Y-86863946D01*
X110490000Y-86750907D01*
X109921715Y-86863946D01*
X109439946Y-87185853D01*
X109118039Y-87667622D01*
X109005000Y-88235907D01*
X109005000Y-88294093D01*
X109118039Y-88862378D01*
X109439946Y-89344147D01*
X109441179Y-89344971D01*
X109404683Y-89351838D01*
X109188559Y-89490910D01*
X109043569Y-89703110D01*
X108992560Y-89955000D01*
X108992560Y-91655000D01*
X109036838Y-91890317D01*
X109175910Y-92106441D01*
X109388110Y-92251431D01*
X109640000Y-92302440D01*
X111340000Y-92302440D01*
X111575317Y-92258162D01*
X111791441Y-92119090D01*
X111936431Y-91906890D01*
X111950086Y-91839459D01*
X111979946Y-91884147D01*
X112461715Y-92206054D01*
X113030000Y-92319093D01*
X113598285Y-92206054D01*
X114080054Y-91884147D01*
X114300000Y-91554974D01*
X114519946Y-91884147D01*
X115001715Y-92206054D01*
X115570000Y-92319093D01*
X116138285Y-92206054D01*
X116620054Y-91884147D01*
X116709892Y-91749694D01*
X119520060Y-94559862D01*
X119520060Y-95732500D01*
X119564338Y-95967817D01*
X119703410Y-96183941D01*
X119915610Y-96328931D01*
X120167500Y-96379940D01*
X121767500Y-96379940D01*
X122002817Y-96335662D01*
X122218941Y-96196590D01*
X122363931Y-95984390D01*
X122395315Y-95829411D01*
X122492802Y-95975311D01*
X122747500Y-96145495D01*
X122747500Y-96522698D01*
X119065198Y-100205000D01*
X118429942Y-100205000D01*
X118733188Y-99902283D01*
X118959742Y-99356681D01*
X118960257Y-98765911D01*
X118734656Y-98219914D01*
X118317283Y-97801812D01*
X117771681Y-97575258D01*
X117180911Y-97574743D01*
X116634914Y-97800344D01*
X116216812Y-98217717D01*
X115990258Y-98763319D01*
X115989743Y-99354089D01*
X116215344Y-99900086D01*
X116519726Y-100205000D01*
X112429942Y-100205000D01*
X112733188Y-99902283D01*
X112959742Y-99356681D01*
X112960257Y-98765911D01*
X112734656Y-98219914D01*
X112317283Y-97801812D01*
X111771681Y-97575258D01*
X111180911Y-97574743D01*
X110634914Y-97800344D01*
X110216812Y-98217717D01*
X109990258Y-98763319D01*
X109989743Y-99354089D01*
X110215344Y-99900086D01*
X110519726Y-100205000D01*
X109144830Y-100205000D01*
X109418379Y-100084275D01*
X109686591Y-99384117D01*
X109666448Y-98634616D01*
X109418379Y-98035725D01*
X109125609Y-97906517D01*
X107972125Y-99060000D01*
X107986268Y-99074142D01*
X107806662Y-99253748D01*
X107792520Y-99239605D01*
X107778378Y-99253748D01*
X107598772Y-99074142D01*
X107612915Y-99060000D01*
X106459431Y-97906517D01*
X106166661Y-98035725D01*
X105898449Y-98735883D01*
X105918592Y-99485384D01*
X106166661Y-100084275D01*
X106440210Y-100205000D01*
X104311928Y-100205000D01*
X104388082Y-100128979D01*
X104675612Y-99436531D01*
X104676266Y-98686759D01*
X104389946Y-97993809D01*
X104123513Y-97726911D01*
X106639037Y-97726911D01*
X107792520Y-98880395D01*
X108946003Y-97726911D01*
X108816795Y-97434141D01*
X108116637Y-97165929D01*
X107367136Y-97186072D01*
X106768245Y-97434141D01*
X106639037Y-97726911D01*
X104123513Y-97726911D01*
X103860239Y-97463178D01*
X103551260Y-97334879D01*
X103551260Y-95354089D01*
X109989743Y-95354089D01*
X110215344Y-95900086D01*
X110632717Y-96318188D01*
X111178319Y-96544742D01*
X111769089Y-96545257D01*
X112315086Y-96319656D01*
X112531160Y-96103958D01*
X116610647Y-96103958D01*
X116690920Y-96355259D01*
X117246279Y-96556718D01*
X117836458Y-96530315D01*
X118259080Y-96355259D01*
X118339353Y-96103958D01*
X117475000Y-95239605D01*
X116610647Y-96103958D01*
X112531160Y-96103958D01*
X112733188Y-95902283D01*
X112959742Y-95356681D01*
X112960200Y-94831279D01*
X115978282Y-94831279D01*
X116004685Y-95421458D01*
X116179741Y-95844080D01*
X116431042Y-95924353D01*
X117295395Y-95060000D01*
X117654605Y-95060000D01*
X118518958Y-95924353D01*
X118770259Y-95844080D01*
X118971718Y-95288721D01*
X118945315Y-94698542D01*
X118770259Y-94275920D01*
X118518958Y-94195647D01*
X117654605Y-95060000D01*
X117295395Y-95060000D01*
X116431042Y-94195647D01*
X116179741Y-94275920D01*
X115978282Y-94831279D01*
X112960200Y-94831279D01*
X112960257Y-94765911D01*
X112734656Y-94219914D01*
X112531140Y-94016042D01*
X116610647Y-94016042D01*
X117475000Y-94880395D01*
X118339353Y-94016042D01*
X118259080Y-93764741D01*
X117703721Y-93563282D01*
X117113542Y-93589685D01*
X116690920Y-93764741D01*
X116610647Y-94016042D01*
X112531140Y-94016042D01*
X112317283Y-93801812D01*
X111771681Y-93575258D01*
X111180911Y-93574743D01*
X110634914Y-93800344D01*
X110216812Y-94217717D01*
X109990258Y-94763319D01*
X109989743Y-95354089D01*
X103551260Y-95354089D01*
X103551260Y-90563542D01*
X108264802Y-85850000D01*
X118430198Y-85850000D01*
X119587596Y-87007398D01*
X119532500Y-87284387D01*
X119532500Y-87340613D01*
X119641733Y-87889764D01*
X119952802Y-88355311D01*
X120418349Y-88666380D01*
X120967500Y-88775613D01*
X121516651Y-88666380D01*
X121982198Y-88355311D01*
X122237500Y-87973225D01*
X122492802Y-88355311D01*
X122958349Y-88666380D01*
X123507500Y-88775613D01*
X124056651Y-88666380D01*
X124522198Y-88355311D01*
X124777500Y-87973225D01*
X125032802Y-88355311D01*
X125498349Y-88666380D01*
X126047500Y-88775613D01*
X126596651Y-88666380D01*
X127062198Y-88355311D01*
X127317500Y-87973225D01*
X127572802Y-88355311D01*
X128038349Y-88666380D01*
X128587500Y-88775613D01*
X129136651Y-88666380D01*
X129602198Y-88355311D01*
X129857500Y-87973225D01*
X130112802Y-88355311D01*
X130578349Y-88666380D01*
X131127500Y-88775613D01*
X131676651Y-88666380D01*
X132142198Y-88355311D01*
X132397500Y-87973225D01*
X132652802Y-88355311D01*
X133118349Y-88666380D01*
X133667500Y-88775613D01*
X134216651Y-88666380D01*
X134682198Y-88355311D01*
X134952486Y-87950797D01*
X135055111Y-88167634D01*
X135470077Y-88543541D01*
X135858461Y-88704404D01*
X136080500Y-88582415D01*
X136080500Y-87439500D01*
X136060500Y-87439500D01*
X136060500Y-87185500D01*
X136080500Y-87185500D01*
X136080500Y-86042585D01*
X135858461Y-85920596D01*
X135470077Y-86081459D01*
X135055111Y-86457366D01*
X134952486Y-86674203D01*
X134682198Y-86269689D01*
X134216651Y-85958620D01*
X133667500Y-85849387D01*
X133118349Y-85958620D01*
X132652802Y-86269689D01*
X132397500Y-86651775D01*
X132142198Y-86269689D01*
X131676651Y-85958620D01*
X131127500Y-85849387D01*
X130578349Y-85958620D01*
X130112802Y-86269689D01*
X129857500Y-86651775D01*
X129602198Y-86269689D01*
X129136651Y-85958620D01*
X128587500Y-85849387D01*
X128038349Y-85958620D01*
X127572802Y-86269689D01*
X127317500Y-86651775D01*
X127062198Y-86269689D01*
X126596651Y-85958620D01*
X126047500Y-85849387D01*
X125498349Y-85958620D01*
X125032802Y-86269689D01*
X124777500Y-86651775D01*
X124522198Y-86269689D01*
X124056651Y-85958620D01*
X123507500Y-85849387D01*
X122958349Y-85958620D01*
X122492802Y-86269689D01*
X122237500Y-86651775D01*
X121982198Y-86269689D01*
X121516651Y-85958620D01*
X120967500Y-85849387D01*
X120643614Y-85913812D01*
X119557547Y-84827745D01*
X132521861Y-84827745D01*
X132595995Y-85073864D01*
X133133223Y-85266965D01*
X133703454Y-85239778D01*
X134104005Y-85073864D01*
X134178139Y-84827745D01*
X133350000Y-83999605D01*
X132521861Y-84827745D01*
X119557547Y-84827745D01*
X119282401Y-84552599D01*
X119035839Y-84387852D01*
X118745000Y-84330000D01*
X110419802Y-84330000D01*
X111146579Y-83603223D01*
X131903035Y-83603223D01*
X131930222Y-84173454D01*
X132096136Y-84574005D01*
X132342255Y-84648139D01*
X133170395Y-83820000D01*
X133529605Y-83820000D01*
X134357745Y-84648139D01*
X134603864Y-84574005D01*
X134796965Y-84036777D01*
X134769778Y-83466546D01*
X134603864Y-83065995D01*
X134357745Y-82991861D01*
X133529605Y-83820000D01*
X133170395Y-83820000D01*
X132342255Y-82991861D01*
X132096136Y-83065995D01*
X131903035Y-83603223D01*
X111146579Y-83603223D01*
X111937547Y-82812255D01*
X132521861Y-82812255D01*
X133350000Y-83640395D01*
X134178139Y-82812255D01*
X134104005Y-82566136D01*
X133566777Y-82373035D01*
X132996546Y-82400222D01*
X132595995Y-82566136D01*
X132521861Y-82812255D01*
X111937547Y-82812255D01*
X112022362Y-82727440D01*
X113195000Y-82727440D01*
X113430317Y-82683162D01*
X113646441Y-82544090D01*
X113791431Y-82331890D01*
X113842440Y-82080000D01*
X113842440Y-81564187D01*
X114134752Y-81564187D01*
X114352757Y-82091800D01*
X114756077Y-82495824D01*
X115283309Y-82714750D01*
X115854187Y-82715248D01*
X116381800Y-82497243D01*
X116785824Y-82093923D01*
X117004750Y-81566691D01*
X117005248Y-80995813D01*
X116787243Y-80468200D01*
X116383923Y-80064176D01*
X115856691Y-79845250D01*
X115285813Y-79844752D01*
X114758200Y-80062757D01*
X114354176Y-80466077D01*
X114135250Y-80993309D01*
X114134752Y-81564187D01*
X113842440Y-81564187D01*
X113842440Y-80480000D01*
X113798162Y-80244683D01*
X113659090Y-80028559D01*
X113446890Y-79883569D01*
X113195000Y-79832560D01*
X111595000Y-79832560D01*
X111359683Y-79876838D01*
X111143559Y-80015910D01*
X110998569Y-80228110D01*
X110947560Y-80480000D01*
X110947560Y-81652638D01*
X109540198Y-83060000D01*
X106680000Y-83060000D01*
X106389161Y-83117852D01*
X106142599Y-83282599D01*
X97252599Y-92172599D01*
X97087852Y-92419161D01*
X97030000Y-92710000D01*
X97030000Y-97334799D01*
X96723809Y-97461314D01*
X96193178Y-97991021D01*
X95918154Y-98653352D01*
X93247401Y-95982599D01*
X93000839Y-95817852D01*
X92710000Y-95760000D01*
X89388707Y-95760000D01*
X89124029Y-95363880D01*
X88953595Y-95250000D01*
X89124029Y-95136120D01*
X89478452Y-94605687D01*
X89602909Y-93980000D01*
X89478452Y-93354313D01*
X89124029Y-92823880D01*
X88953595Y-92710000D01*
X89124029Y-92596120D01*
X89388707Y-92200000D01*
X91360000Y-92200000D01*
X91650839Y-92142148D01*
X91897401Y-91977401D01*
X102245763Y-81629039D01*
X103383096Y-81629039D01*
X103543959Y-82017423D01*
X103919866Y-82432389D01*
X104425959Y-82671914D01*
X104648000Y-82550629D01*
X104648000Y-81407000D01*
X104902000Y-81407000D01*
X104902000Y-82550629D01*
X105124041Y-82671914D01*
X105630134Y-82432389D01*
X106006041Y-82017423D01*
X106166904Y-81629039D01*
X106044915Y-81407000D01*
X104902000Y-81407000D01*
X104648000Y-81407000D01*
X103505085Y-81407000D01*
X103383096Y-81629039D01*
X102245763Y-81629039D01*
X102943841Y-80930961D01*
X103383096Y-80930961D01*
X103505085Y-81153000D01*
X104648000Y-81153000D01*
X104648000Y-80009371D01*
X104902000Y-80009371D01*
X104902000Y-81153000D01*
X106044915Y-81153000D01*
X106166904Y-80930961D01*
X106006041Y-80542577D01*
X105630134Y-80127611D01*
X105124041Y-79888086D01*
X104902000Y-80009371D01*
X104648000Y-80009371D01*
X104425959Y-79888086D01*
X103919866Y-80127611D01*
X103543959Y-80542577D01*
X103383096Y-80930961D01*
X102943841Y-80930961D01*
X104356546Y-79518256D01*
X104408309Y-79539750D01*
X104979187Y-79540248D01*
X105506800Y-79322243D01*
X105910824Y-78918923D01*
X106129750Y-78391691D01*
X106129752Y-78389187D01*
X110324752Y-78389187D01*
X110542757Y-78916800D01*
X110946077Y-79320824D01*
X111473309Y-79539750D01*
X112044187Y-79540248D01*
X112571800Y-79322243D01*
X112975824Y-78918923D01*
X113194750Y-78391691D01*
X113195248Y-77820813D01*
X112977243Y-77293200D01*
X112573923Y-76889176D01*
X112046691Y-76670250D01*
X111475813Y-76669752D01*
X110948200Y-76887757D01*
X110544176Y-77291077D01*
X110325250Y-77818309D01*
X110324752Y-78389187D01*
X106129752Y-78389187D01*
X106130248Y-77820813D01*
X105912243Y-77293200D01*
X105508923Y-76889176D01*
X104981691Y-76670250D01*
X104410813Y-76669752D01*
X103883200Y-76887757D01*
X103479176Y-77291077D01*
X103456785Y-77345000D01*
X103184802Y-77345000D01*
X101090000Y-75250198D01*
X101090000Y-74579187D01*
X101514752Y-74579187D01*
X101732757Y-75106800D01*
X102136077Y-75510824D01*
X102663309Y-75729750D01*
X103234187Y-75730248D01*
X103761800Y-75512243D01*
X104165824Y-75108923D01*
X104384750Y-74581691D01*
X104384752Y-74579187D01*
X106514752Y-74579187D01*
X106732757Y-75106800D01*
X107136077Y-75510824D01*
X107663309Y-75729750D01*
X108234187Y-75730248D01*
X108761800Y-75512243D01*
X109165824Y-75108923D01*
X109384750Y-74581691D01*
X109385248Y-74010813D01*
X109167243Y-73483200D01*
X108763923Y-73079176D01*
X108236691Y-72860250D01*
X107665813Y-72859752D01*
X107138200Y-73077757D01*
X106734176Y-73481077D01*
X106515250Y-74008309D01*
X106514752Y-74579187D01*
X104384752Y-74579187D01*
X104385248Y-74010813D01*
X104167243Y-73483200D01*
X103763923Y-73079176D01*
X103236691Y-72860250D01*
X102665813Y-72859752D01*
X102138200Y-73077757D01*
X101734176Y-73481077D01*
X101515250Y-74008309D01*
X101514752Y-74579187D01*
X101090000Y-74579187D01*
X101090000Y-66989802D01*
X102677405Y-65402397D01*
X102676887Y-65405000D01*
X102786120Y-65954151D01*
X103097189Y-66419698D01*
X103479275Y-66675000D01*
X103097189Y-66930302D01*
X102786120Y-67395849D01*
X102676887Y-67945000D01*
X102786120Y-68494151D01*
X103097189Y-68959698D01*
X103479275Y-69215000D01*
X103097189Y-69470302D01*
X102786120Y-69935849D01*
X102676887Y-70485000D01*
X102786120Y-71034151D01*
X103097189Y-71499698D01*
X103562736Y-71810767D01*
X104111887Y-71920000D01*
X104168113Y-71920000D01*
X104717264Y-71810767D01*
X105182811Y-71499698D01*
X105493880Y-71034151D01*
X105546584Y-70769187D01*
X106514752Y-70769187D01*
X106732757Y-71296800D01*
X107136077Y-71700824D01*
X107663309Y-71919750D01*
X108234187Y-71920248D01*
X108761800Y-71702243D01*
X109165824Y-71298923D01*
X109251792Y-71091887D01*
X114135000Y-71091887D01*
X114135000Y-71148113D01*
X114244233Y-71697264D01*
X114555302Y-72162811D01*
X115020849Y-72473880D01*
X115570000Y-72583113D01*
X116119151Y-72473880D01*
X116584698Y-72162811D01*
X116895767Y-71697264D01*
X117005000Y-71148113D01*
X117005000Y-71091887D01*
X116895767Y-70542736D01*
X116584698Y-70077189D01*
X116119151Y-69766120D01*
X115570000Y-69656887D01*
X115020849Y-69766120D01*
X114555302Y-70077189D01*
X114244233Y-70542736D01*
X114135000Y-71091887D01*
X109251792Y-71091887D01*
X109384750Y-70771691D01*
X109385248Y-70200813D01*
X109167243Y-69673200D01*
X108763923Y-69269176D01*
X108236691Y-69050250D01*
X107665813Y-69049752D01*
X107138200Y-69267757D01*
X106734176Y-69671077D01*
X106515250Y-70198309D01*
X106514752Y-70769187D01*
X105546584Y-70769187D01*
X105603113Y-70485000D01*
X105493880Y-69935849D01*
X105182811Y-69470302D01*
X104800725Y-69215000D01*
X105182811Y-68959698D01*
X105493880Y-68494151D01*
X105603113Y-67945000D01*
X105597521Y-67916887D01*
X110325000Y-67916887D01*
X110325000Y-67973113D01*
X110434233Y-68522264D01*
X110745302Y-68987811D01*
X111210849Y-69298880D01*
X111760000Y-69408113D01*
X112309151Y-69298880D01*
X112774698Y-68987811D01*
X113085767Y-68522264D01*
X113195000Y-67973113D01*
X113195000Y-67916887D01*
X113085767Y-67367736D01*
X112774698Y-66902189D01*
X112309151Y-66591120D01*
X111760000Y-66481887D01*
X111210849Y-66591120D01*
X110745302Y-66902189D01*
X110434233Y-67367736D01*
X110325000Y-67916887D01*
X105597521Y-67916887D01*
X105493880Y-67395849D01*
X105182811Y-66930302D01*
X104800725Y-66675000D01*
X105182811Y-66419698D01*
X105493880Y-65954151D01*
X105603113Y-65405000D01*
X105493880Y-64855849D01*
X105182811Y-64390302D01*
X104800725Y-64135000D01*
X105182811Y-63879698D01*
X105493880Y-63414151D01*
X105603113Y-62865000D01*
X105493880Y-62315849D01*
X105182811Y-61850302D01*
X104717264Y-61539233D01*
X104168113Y-61430000D01*
X104111887Y-61430000D01*
X103562736Y-61539233D01*
X103097189Y-61850302D01*
X102786120Y-62315849D01*
X102676887Y-62865000D01*
X102741312Y-63188886D01*
X99792599Y-66137599D01*
X99627852Y-66384161D01*
X99570000Y-66675000D01*
X99570000Y-75565000D01*
X99627852Y-75855839D01*
X99792599Y-76102401D01*
X102332599Y-78642401D01*
X102579160Y-78807148D01*
X102627414Y-78816746D01*
X102861824Y-78863374D01*
X91045198Y-90680000D01*
X89388707Y-90680000D01*
X89124029Y-90283880D01*
X88953595Y-90170000D01*
X89124029Y-90056120D01*
X89478452Y-89525687D01*
X89602909Y-88900000D01*
X89478452Y-88274313D01*
X89240769Y-87918594D01*
X89289699Y-87898327D01*
X89468327Y-87719698D01*
X89565000Y-87486309D01*
X89565000Y-86645750D01*
X89406250Y-86487000D01*
X87757000Y-86487000D01*
X87757000Y-86507000D01*
X87503000Y-86507000D01*
X87503000Y-86487000D01*
X85853750Y-86487000D01*
X85695000Y-86645750D01*
X85695000Y-87486309D01*
X85791673Y-87719698D01*
X85970301Y-87898327D01*
X86019231Y-87918594D01*
X85781548Y-88274313D01*
X85657091Y-88900000D01*
X85781548Y-89525687D01*
X86135971Y-90056120D01*
X86306405Y-90170000D01*
X86135971Y-90283880D01*
X85781548Y-90814313D01*
X85657091Y-91440000D01*
X85781548Y-92065687D01*
X86135971Y-92596120D01*
X86306405Y-92710000D01*
X86135971Y-92823880D01*
X85781548Y-93354313D01*
X85657091Y-93980000D01*
X85781548Y-94605687D01*
X86135971Y-95136120D01*
X86306405Y-95250000D01*
X86135971Y-95363880D01*
X85781548Y-95894313D01*
X85657091Y-96520000D01*
X85781548Y-97145687D01*
X86135971Y-97676120D01*
X86306405Y-97790000D01*
X86135971Y-97903880D01*
X85781548Y-98434313D01*
X85657091Y-99060000D01*
X85781548Y-99685687D01*
X86135971Y-100216120D01*
X86666404Y-100570543D01*
X87292091Y-100695000D01*
X87967909Y-100695000D01*
X88593596Y-100570543D01*
X89124029Y-100216120D01*
X89388707Y-99820000D01*
X93665198Y-99820000D01*
X96005198Y-102160000D01*
X81990000Y-102160000D01*
X81990000Y-85233691D01*
X85695000Y-85233691D01*
X85695000Y-86074250D01*
X85853750Y-86233000D01*
X87503000Y-86233000D01*
X87503000Y-84883750D01*
X87757000Y-84883750D01*
X87757000Y-86233000D01*
X89406250Y-86233000D01*
X89565000Y-86074250D01*
X89565000Y-85233691D01*
X89468327Y-85000302D01*
X89289699Y-84821673D01*
X89056310Y-84725000D01*
X87915750Y-84725000D01*
X87757000Y-84883750D01*
X87503000Y-84883750D01*
X87344250Y-84725000D01*
X86203690Y-84725000D01*
X85970301Y-84821673D01*
X85791673Y-85000302D01*
X85695000Y-85233691D01*
X81990000Y-85233691D01*
X81990000Y-80930750D01*
X84240000Y-80930750D01*
X84240000Y-81621310D01*
X84336673Y-81854699D01*
X84515302Y-82033327D01*
X84748691Y-82130000D01*
X85439250Y-82130000D01*
X85598000Y-81971250D01*
X85598000Y-80772000D01*
X85852000Y-80772000D01*
X85852000Y-81971250D01*
X86010750Y-82130000D01*
X86701309Y-82130000D01*
X86934698Y-82033327D01*
X87113327Y-81854699D01*
X87210000Y-81621310D01*
X87210000Y-80994041D01*
X88143086Y-80994041D01*
X88382611Y-81500134D01*
X88797577Y-81876041D01*
X89185961Y-82036904D01*
X89408000Y-81914915D01*
X89408000Y-80772000D01*
X89662000Y-80772000D01*
X89662000Y-81914915D01*
X89884039Y-82036904D01*
X90272423Y-81876041D01*
X90687389Y-81500134D01*
X90926914Y-80994041D01*
X90805629Y-80772000D01*
X89662000Y-80772000D01*
X89408000Y-80772000D01*
X88264371Y-80772000D01*
X88143086Y-80994041D01*
X87210000Y-80994041D01*
X87210000Y-80930750D01*
X87051250Y-80772000D01*
X85852000Y-80772000D01*
X85598000Y-80772000D01*
X84398750Y-80772000D01*
X84240000Y-80930750D01*
X81990000Y-80930750D01*
X81990000Y-75565000D01*
X84210907Y-75565000D01*
X84323946Y-76133285D01*
X84645853Y-76615054D01*
X84975026Y-76835000D01*
X84645853Y-77054946D01*
X84323946Y-77536715D01*
X84210907Y-78105000D01*
X84323946Y-78673285D01*
X84645853Y-79155054D01*
X84689777Y-79184403D01*
X84515302Y-79256673D01*
X84336673Y-79435301D01*
X84240000Y-79668690D01*
X84240000Y-80359250D01*
X84398750Y-80518000D01*
X85598000Y-80518000D01*
X85598000Y-80498000D01*
X85852000Y-80498000D01*
X85852000Y-80518000D01*
X87051250Y-80518000D01*
X87210000Y-80359250D01*
X87210000Y-80295959D01*
X88143086Y-80295959D01*
X88264371Y-80518000D01*
X89408000Y-80518000D01*
X89408000Y-79375085D01*
X89662000Y-79375085D01*
X89662000Y-80518000D01*
X90805629Y-80518000D01*
X90926914Y-80295959D01*
X90687389Y-79789866D01*
X90272423Y-79413959D01*
X89884039Y-79253096D01*
X89662000Y-79375085D01*
X89408000Y-79375085D01*
X89185961Y-79253096D01*
X88797577Y-79413959D01*
X88382611Y-79789866D01*
X88143086Y-80295959D01*
X87210000Y-80295959D01*
X87210000Y-79668690D01*
X87113327Y-79435301D01*
X86934698Y-79256673D01*
X86760223Y-79184403D01*
X86804147Y-79155054D01*
X87126054Y-78673285D01*
X87182253Y-78390750D01*
X92545000Y-78390750D01*
X92545000Y-79031310D01*
X92641673Y-79264699D01*
X92820302Y-79443327D01*
X93053691Y-79540000D01*
X93694250Y-79540000D01*
X93853000Y-79381250D01*
X93853000Y-78232000D01*
X92703750Y-78232000D01*
X92545000Y-78390750D01*
X87182253Y-78390750D01*
X87239093Y-78105000D01*
X87126054Y-77536715D01*
X86886830Y-77178690D01*
X92545000Y-77178690D01*
X92545000Y-77819250D01*
X92703750Y-77978000D01*
X93853000Y-77978000D01*
X93853000Y-76828750D01*
X94107000Y-76828750D01*
X94107000Y-77978000D01*
X94127000Y-77978000D01*
X94127000Y-78232000D01*
X94107000Y-78232000D01*
X94107000Y-79381250D01*
X94265750Y-79540000D01*
X94906309Y-79540000D01*
X95139698Y-79443327D01*
X95233998Y-79349027D01*
X95693309Y-79539750D01*
X96264187Y-79540248D01*
X96791800Y-79322243D01*
X97195824Y-78918923D01*
X97414750Y-78391691D01*
X97414752Y-78389187D01*
X98259752Y-78389187D01*
X98477757Y-78916800D01*
X98881077Y-79320824D01*
X99408309Y-79539750D01*
X99979187Y-79540248D01*
X100506800Y-79322243D01*
X100910824Y-78918923D01*
X101129750Y-78391691D01*
X101130248Y-77820813D01*
X100912243Y-77293200D01*
X100508923Y-76889176D01*
X99981691Y-76670250D01*
X99410813Y-76669752D01*
X98883200Y-76887757D01*
X98479176Y-77291077D01*
X98260250Y-77818309D01*
X98259752Y-78389187D01*
X97414752Y-78389187D01*
X97415248Y-77820813D01*
X97197243Y-77293200D01*
X96793923Y-76889176D01*
X96740000Y-76866785D01*
X96740000Y-71881831D01*
X97097264Y-71810767D01*
X97562811Y-71499698D01*
X97873880Y-71034151D01*
X97983113Y-70485000D01*
X97873880Y-69935849D01*
X97562811Y-69470302D01*
X97180725Y-69215000D01*
X97562811Y-68959698D01*
X97873880Y-68494151D01*
X97983113Y-67945000D01*
X97873880Y-67395849D01*
X97562811Y-66930302D01*
X97180725Y-66675000D01*
X97562811Y-66419698D01*
X97873880Y-65954151D01*
X97983113Y-65405000D01*
X97873880Y-64855849D01*
X97562811Y-64390302D01*
X97418535Y-64293899D01*
X97555317Y-64268162D01*
X97771441Y-64129090D01*
X97916431Y-63916890D01*
X97967440Y-63665000D01*
X97967440Y-62065000D01*
X97923162Y-61829683D01*
X97784090Y-61613559D01*
X97571890Y-61468569D01*
X97320000Y-61417560D01*
X95720000Y-61417560D01*
X95484683Y-61461838D01*
X95268559Y-61600910D01*
X95123569Y-61813110D01*
X95072560Y-62065000D01*
X95072560Y-63665000D01*
X95116838Y-63900317D01*
X95255910Y-64116441D01*
X95468110Y-64261431D01*
X95623089Y-64292815D01*
X95477189Y-64390302D01*
X95166120Y-64855849D01*
X95056887Y-65405000D01*
X95166120Y-65954151D01*
X95477189Y-66419698D01*
X95859275Y-66675000D01*
X95477189Y-66930302D01*
X95166120Y-67395849D01*
X95056887Y-67945000D01*
X95166120Y-68494151D01*
X95477189Y-68959698D01*
X95859275Y-69215000D01*
X95477189Y-69470302D01*
X95166120Y-69935849D01*
X95056887Y-70485000D01*
X95166120Y-71034151D01*
X95220000Y-71114788D01*
X95220000Y-76846975D01*
X95139698Y-76766673D01*
X94906309Y-76670000D01*
X94265750Y-76670000D01*
X94107000Y-76828750D01*
X93853000Y-76828750D01*
X93694250Y-76670000D01*
X93053691Y-76670000D01*
X92820302Y-76766673D01*
X92641673Y-76945301D01*
X92545000Y-77178690D01*
X86886830Y-77178690D01*
X86804147Y-77054946D01*
X86474974Y-76835000D01*
X86804147Y-76615054D01*
X87126054Y-76133285D01*
X87239093Y-75565000D01*
X87126054Y-74996715D01*
X86804147Y-74514946D01*
X86375830Y-74228754D01*
X86536800Y-74162243D01*
X86940824Y-73758923D01*
X87159750Y-73231691D01*
X87160248Y-72660813D01*
X86942243Y-72133200D01*
X86538923Y-71729176D01*
X86011691Y-71510250D01*
X85440813Y-71509752D01*
X84913200Y-71727757D01*
X84509176Y-72131077D01*
X84290250Y-72658309D01*
X84289752Y-73229187D01*
X84507757Y-73756800D01*
X84911077Y-74160824D01*
X85074362Y-74228626D01*
X84645853Y-74514946D01*
X84323946Y-74996715D01*
X84210907Y-75565000D01*
X81990000Y-75565000D01*
X81990000Y-70769187D01*
X88099752Y-70769187D01*
X88317757Y-71296800D01*
X88721077Y-71700824D01*
X89248309Y-71919750D01*
X89819187Y-71920248D01*
X90346800Y-71702243D01*
X90750824Y-71298923D01*
X90969750Y-70771691D01*
X90970248Y-70200813D01*
X90752243Y-69673200D01*
X90348923Y-69269176D01*
X89821691Y-69050250D01*
X89250813Y-69049752D01*
X88723200Y-69267757D01*
X88319176Y-69671077D01*
X88100250Y-70198309D01*
X88099752Y-70769187D01*
X81990000Y-70769187D01*
X81990000Y-65689187D01*
X84289752Y-65689187D01*
X84507757Y-66216800D01*
X84911077Y-66620824D01*
X85041215Y-66674862D01*
X84913200Y-66727757D01*
X84509176Y-67131077D01*
X84290250Y-67658309D01*
X84289752Y-68229187D01*
X84507757Y-68756800D01*
X84911077Y-69160824D01*
X85438309Y-69379750D01*
X86009187Y-69380248D01*
X86536800Y-69162243D01*
X86940824Y-68758923D01*
X87159750Y-68231691D01*
X87160248Y-67660813D01*
X86942243Y-67133200D01*
X86538923Y-66729176D01*
X86408785Y-66675138D01*
X86536800Y-66622243D01*
X86940824Y-66218923D01*
X87159750Y-65691691D01*
X87160024Y-65376887D01*
X88100000Y-65376887D01*
X88100000Y-65433113D01*
X88209233Y-65982264D01*
X88520302Y-66447811D01*
X88985849Y-66758880D01*
X89535000Y-66868113D01*
X90084151Y-66758880D01*
X90549698Y-66447811D01*
X90860767Y-65982264D01*
X90970000Y-65433113D01*
X90970000Y-65376887D01*
X91910000Y-65376887D01*
X91910000Y-65433113D01*
X92019233Y-65982264D01*
X92330302Y-66447811D01*
X92795849Y-66758880D01*
X93345000Y-66868113D01*
X93894151Y-66758880D01*
X94359698Y-66447811D01*
X94670767Y-65982264D01*
X94780000Y-65433113D01*
X94780000Y-65376887D01*
X94670767Y-64827736D01*
X94359698Y-64362189D01*
X93894151Y-64051120D01*
X93345000Y-63941887D01*
X92795849Y-64051120D01*
X92330302Y-64362189D01*
X92019233Y-64827736D01*
X91910000Y-65376887D01*
X90970000Y-65376887D01*
X90860767Y-64827736D01*
X90549698Y-64362189D01*
X90084151Y-64051120D01*
X89535000Y-63941887D01*
X88985849Y-64051120D01*
X88520302Y-64362189D01*
X88209233Y-64827736D01*
X88100000Y-65376887D01*
X87160024Y-65376887D01*
X87160248Y-65120813D01*
X86942243Y-64593200D01*
X86538923Y-64189176D01*
X86011691Y-63970250D01*
X85440813Y-63969752D01*
X84913200Y-64187757D01*
X84509176Y-64591077D01*
X84290250Y-65118309D01*
X84289752Y-65689187D01*
X81990000Y-65689187D01*
X81990000Y-60674041D01*
X106558086Y-60674041D01*
X106797611Y-61180134D01*
X107212577Y-61556041D01*
X107600961Y-61716904D01*
X107823000Y-61594915D01*
X107823000Y-60452000D01*
X108077000Y-60452000D01*
X108077000Y-61594915D01*
X108299039Y-61716904D01*
X108687423Y-61556041D01*
X108829049Y-61427745D01*
X112201861Y-61427745D01*
X112275995Y-61673864D01*
X112813223Y-61866965D01*
X113383454Y-61839778D01*
X113784005Y-61673864D01*
X113858139Y-61427745D01*
X113030000Y-60599605D01*
X112201861Y-61427745D01*
X108829049Y-61427745D01*
X109102389Y-61180134D01*
X109341914Y-60674041D01*
X109220629Y-60452000D01*
X108077000Y-60452000D01*
X107823000Y-60452000D01*
X106679371Y-60452000D01*
X106558086Y-60674041D01*
X81990000Y-60674041D01*
X81990000Y-59975959D01*
X106558086Y-59975959D01*
X106679371Y-60198000D01*
X107823000Y-60198000D01*
X107823000Y-59055085D01*
X108077000Y-59055085D01*
X108077000Y-60198000D01*
X109220629Y-60198000D01*
X109341914Y-59975959D01*
X109102389Y-59469866D01*
X108687423Y-59093959D01*
X108299039Y-58933096D01*
X108077000Y-59055085D01*
X107823000Y-59055085D01*
X107600961Y-58933096D01*
X107212577Y-59093959D01*
X106797611Y-59469866D01*
X106558086Y-59975959D01*
X81990000Y-59975959D01*
X81990000Y-57620000D01*
X111582560Y-57620000D01*
X111582560Y-59220000D01*
X111626838Y-59455317D01*
X111765910Y-59671441D01*
X111772548Y-59675977D01*
X111583035Y-60203223D01*
X111610222Y-60773454D01*
X111776136Y-61174005D01*
X112022255Y-61248139D01*
X112850395Y-60420000D01*
X112836252Y-60405858D01*
X113015858Y-60226253D01*
X113030000Y-60240395D01*
X113044143Y-60226253D01*
X113223748Y-60405858D01*
X113209605Y-60420000D01*
X114037745Y-61248139D01*
X114283864Y-61174005D01*
X114476965Y-60636777D01*
X114449778Y-60066546D01*
X114287616Y-59675053D01*
X114426431Y-59471890D01*
X114477440Y-59220000D01*
X114477440Y-57620000D01*
X114433162Y-57384683D01*
X114294090Y-57168559D01*
X114081890Y-57023569D01*
X113830000Y-56972560D01*
X112230000Y-56972560D01*
X111994683Y-57016838D01*
X111778559Y-57155910D01*
X111633569Y-57368110D01*
X111582560Y-57620000D01*
X81990000Y-57620000D01*
X81990000Y-55594041D01*
X84333086Y-55594041D01*
X84572611Y-56100134D01*
X84987577Y-56476041D01*
X85375961Y-56636904D01*
X85598000Y-56514915D01*
X85598000Y-55372000D01*
X85852000Y-55372000D01*
X85852000Y-56514915D01*
X86074039Y-56636904D01*
X86462423Y-56476041D01*
X86877389Y-56100134D01*
X87116914Y-55594041D01*
X87081489Y-55529187D01*
X88099752Y-55529187D01*
X88317757Y-56056800D01*
X88721077Y-56460824D01*
X89248309Y-56679750D01*
X89819187Y-56680248D01*
X90346800Y-56462243D01*
X90750824Y-56058923D01*
X90969750Y-55531691D01*
X90969752Y-55529187D01*
X91909752Y-55529187D01*
X92127757Y-56056800D01*
X92531077Y-56460824D01*
X93058309Y-56679750D01*
X93629187Y-56680248D01*
X94156800Y-56462243D01*
X94560824Y-56058923D01*
X94779750Y-55531691D01*
X94780000Y-55245000D01*
X95056887Y-55245000D01*
X95166120Y-55794151D01*
X95477189Y-56259698D01*
X95942736Y-56570767D01*
X96491887Y-56680000D01*
X96548113Y-56680000D01*
X97097264Y-56570767D01*
X97562811Y-56259698D01*
X97873880Y-55794151D01*
X97926584Y-55529187D01*
X105244752Y-55529187D01*
X105462757Y-56056800D01*
X105866077Y-56460824D01*
X106393309Y-56679750D01*
X106964187Y-56680248D01*
X107491800Y-56462243D01*
X107895824Y-56058923D01*
X108114750Y-55531691D01*
X108115248Y-54960813D01*
X107897243Y-54433200D01*
X107493923Y-54029176D01*
X106966691Y-53810250D01*
X106395813Y-53809752D01*
X105868200Y-54027757D01*
X105464176Y-54431077D01*
X105245250Y-54958309D01*
X105244752Y-55529187D01*
X97926584Y-55529187D01*
X97983113Y-55245000D01*
X97873880Y-54695849D01*
X97562811Y-54230302D01*
X97097264Y-53919233D01*
X96548113Y-53810000D01*
X96491887Y-53810000D01*
X95942736Y-53919233D01*
X95477189Y-54230302D01*
X95166120Y-54695849D01*
X95056887Y-55245000D01*
X94780000Y-55245000D01*
X94780248Y-54960813D01*
X94562243Y-54433200D01*
X94158923Y-54029176D01*
X93631691Y-53810250D01*
X93060813Y-53809752D01*
X92533200Y-54027757D01*
X92129176Y-54431077D01*
X91910250Y-54958309D01*
X91909752Y-55529187D01*
X90969752Y-55529187D01*
X90970248Y-54960813D01*
X90752243Y-54433200D01*
X90348923Y-54029176D01*
X89821691Y-53810250D01*
X89250813Y-53809752D01*
X88723200Y-54027757D01*
X88319176Y-54431077D01*
X88100250Y-54958309D01*
X88099752Y-55529187D01*
X87081489Y-55529187D01*
X86995629Y-55372000D01*
X85852000Y-55372000D01*
X85598000Y-55372000D01*
X84454371Y-55372000D01*
X84333086Y-55594041D01*
X81990000Y-55594041D01*
X81990000Y-54895959D01*
X84333086Y-54895959D01*
X84454371Y-55118000D01*
X85598000Y-55118000D01*
X85598000Y-53975085D01*
X85852000Y-53975085D01*
X85852000Y-55118000D01*
X86995629Y-55118000D01*
X87116914Y-54895959D01*
X86877389Y-54389866D01*
X86462423Y-54013959D01*
X86074039Y-53853096D01*
X85852000Y-53975085D01*
X85598000Y-53975085D01*
X85375961Y-53853096D01*
X84987577Y-54013959D01*
X84572611Y-54389866D01*
X84333086Y-54895959D01*
X81990000Y-54895959D01*
X81990000Y-47518172D01*
X83057538Y-47518172D01*
X83462709Y-48498761D01*
X84212293Y-49249655D01*
X85192173Y-49656536D01*
X86253172Y-49657462D01*
X87233761Y-49252291D01*
X87984655Y-48502707D01*
X88391536Y-47522827D01*
X88391918Y-47084835D01*
X88623501Y-47316822D01*
X89315949Y-47604352D01*
X90065721Y-47605006D01*
X90758671Y-47318686D01*
X91289302Y-46788979D01*
X91576832Y-46096531D01*
X91576834Y-46093241D01*
X92808734Y-46093241D01*
X93095054Y-46786191D01*
X93624761Y-47316822D01*
X94317209Y-47604352D01*
X95066981Y-47605006D01*
X95759931Y-47318686D01*
X96290562Y-46788979D01*
X96578092Y-46096531D01*
X96578094Y-46093241D01*
X97809994Y-46093241D01*
X98096314Y-46786191D01*
X98626021Y-47316822D01*
X99318469Y-47604352D01*
X100068241Y-47605006D01*
X100761191Y-47318686D01*
X101027251Y-47053089D01*
X112033997Y-47053089D01*
X112163205Y-47345859D01*
X112863363Y-47614071D01*
X113612864Y-47593928D01*
X114211755Y-47345859D01*
X114340963Y-47053089D01*
X113187480Y-45899605D01*
X112033997Y-47053089D01*
X101027251Y-47053089D01*
X101291822Y-46788979D01*
X101579352Y-46096531D01*
X101579963Y-45395883D01*
X111293409Y-45395883D01*
X111313552Y-46145384D01*
X111561621Y-46744275D01*
X111854391Y-46873483D01*
X113007875Y-45720000D01*
X113367085Y-45720000D01*
X114520569Y-46873483D01*
X114813339Y-46744275D01*
X115062732Y-46093241D01*
X116303734Y-46093241D01*
X116590054Y-46786191D01*
X117119761Y-47316822D01*
X117428740Y-47445121D01*
X117428740Y-52148740D01*
X117486592Y-52439579D01*
X117651339Y-52686141D01*
X137590000Y-72624802D01*
X137590000Y-82581354D01*
X137538200Y-82602757D01*
X137134176Y-83006077D01*
X136915250Y-83533309D01*
X136914752Y-84104187D01*
X137132757Y-84631800D01*
X137536077Y-85035824D01*
X138063309Y-85254750D01*
X138634187Y-85255248D01*
X139161800Y-85037243D01*
X139565824Y-84633923D01*
X139784750Y-84106691D01*
X139785248Y-83535813D01*
X139567243Y-83008200D01*
X139163923Y-82604176D01*
X139110000Y-82581785D01*
X139110000Y-72310000D01*
X139052148Y-72019161D01*
X139052148Y-72019160D01*
X138887401Y-71772599D01*
X118948740Y-51833938D01*
X118948740Y-47445201D01*
X119254931Y-47318686D01*
X119785562Y-46788979D01*
X120073092Y-46096531D01*
X120073746Y-45346759D01*
X119787426Y-44653809D01*
X119257719Y-44123178D01*
X118565271Y-43835648D01*
X117815499Y-43834994D01*
X117122549Y-44121314D01*
X116591918Y-44651021D01*
X116304388Y-45343469D01*
X116303734Y-46093241D01*
X115062732Y-46093241D01*
X115081551Y-46044117D01*
X115061408Y-45294616D01*
X114813339Y-44695725D01*
X114520569Y-44566517D01*
X113367085Y-45720000D01*
X113007875Y-45720000D01*
X111854391Y-44566517D01*
X111561621Y-44695725D01*
X111293409Y-45395883D01*
X101579963Y-45395883D01*
X101580006Y-45346759D01*
X101293686Y-44653809D01*
X101027253Y-44386911D01*
X112033997Y-44386911D01*
X113187480Y-45540395D01*
X114340963Y-44386911D01*
X114211755Y-44094141D01*
X113511597Y-43825929D01*
X112762096Y-43846072D01*
X112163205Y-44094141D01*
X112033997Y-44386911D01*
X101027253Y-44386911D01*
X100763979Y-44123178D01*
X100071531Y-43835648D01*
X99321759Y-43834994D01*
X98628809Y-44121314D01*
X98098178Y-44651021D01*
X97810648Y-45343469D01*
X97809994Y-46093241D01*
X96578094Y-46093241D01*
X96578746Y-45346759D01*
X96292426Y-44653809D01*
X95762719Y-44123178D01*
X95070271Y-43835648D01*
X94320499Y-43834994D01*
X93627549Y-44121314D01*
X93096918Y-44651021D01*
X92809388Y-45343469D01*
X92808734Y-46093241D01*
X91576834Y-46093241D01*
X91577486Y-45346759D01*
X91291166Y-44653809D01*
X90761459Y-44123178D01*
X90069011Y-43835648D01*
X89319239Y-43834994D01*
X88626289Y-44121314D01*
X88095658Y-44651021D01*
X87820358Y-45314015D01*
X87237707Y-44730345D01*
X86257827Y-44323464D01*
X85196828Y-44322538D01*
X84216239Y-44727709D01*
X83465345Y-45477293D01*
X83058464Y-46457173D01*
X83057538Y-47518172D01*
X81990000Y-47518172D01*
X81990000Y-43255000D01*
X161215000Y-43255000D01*
X161215000Y-102160000D01*
X161215000Y-102160000D01*
G37*
X161215000Y-102160000D02*
X121164802Y-102160000D01*
X123980615Y-99344187D01*
X131994752Y-99344187D01*
X132212757Y-99871800D01*
X132616077Y-100275824D01*
X133143309Y-100494750D01*
X133714187Y-100495248D01*
X134241800Y-100277243D01*
X134451663Y-100067745D01*
X137601861Y-100067745D01*
X137675995Y-100313864D01*
X138213223Y-100506965D01*
X138783454Y-100479778D01*
X139184005Y-100313864D01*
X139258139Y-100067745D01*
X138430000Y-99239605D01*
X137601861Y-100067745D01*
X134451663Y-100067745D01*
X134645824Y-99873923D01*
X134864750Y-99346691D01*
X134865189Y-98843223D01*
X136983035Y-98843223D01*
X137010222Y-99413454D01*
X137176136Y-99814005D01*
X137422255Y-99888139D01*
X138250395Y-99060000D01*
X138609605Y-99060000D01*
X139437745Y-99888139D01*
X139683864Y-99814005D01*
X139876965Y-99276777D01*
X139861537Y-98953172D01*
X154812538Y-98953172D01*
X155217709Y-99933761D01*
X155967293Y-100684655D01*
X156947173Y-101091536D01*
X158008172Y-101092462D01*
X158988761Y-100687291D01*
X159739655Y-99937707D01*
X160146536Y-98957827D01*
X160147462Y-97896828D01*
X159742291Y-96916239D01*
X158992707Y-96165345D01*
X158012827Y-95758464D01*
X156951828Y-95757538D01*
X155971239Y-96162709D01*
X155220345Y-96912293D01*
X154813464Y-97892173D01*
X154812538Y-98953172D01*
X139861537Y-98953172D01*
X139849778Y-98706546D01*
X139683864Y-98305995D01*
X139437745Y-98231861D01*
X138609605Y-99060000D01*
X138250395Y-99060000D01*
X137422255Y-98231861D01*
X137176136Y-98305995D01*
X136983035Y-98843223D01*
X134865189Y-98843223D01*
X134865248Y-98775813D01*
X134647243Y-98248200D01*
X134451640Y-98052255D01*
X137601861Y-98052255D01*
X138430000Y-98880395D01*
X139258139Y-98052255D01*
X139184005Y-97806136D01*
X138646777Y-97613035D01*
X138076546Y-97640222D01*
X137675995Y-97806136D01*
X137601861Y-98052255D01*
X134451640Y-98052255D01*
X134243923Y-97844176D01*
X133716691Y-97625250D01*
X133145813Y-97624752D01*
X132618200Y-97842757D01*
X132214176Y-98246077D01*
X131995250Y-98773309D01*
X131994752Y-99344187D01*
X123980615Y-99344187D01*
X126584901Y-96739901D01*
X126749648Y-96493340D01*
X126807500Y-96202500D01*
X126807500Y-96145495D01*
X127062198Y-95975311D01*
X127317500Y-95593225D01*
X127572802Y-95975311D01*
X128038349Y-96286380D01*
X128587500Y-96395613D01*
X129136651Y-96286380D01*
X129602198Y-95975311D01*
X129857500Y-95593225D01*
X130112802Y-95975311D01*
X130578349Y-96286380D01*
X131127500Y-96395613D01*
X131676651Y-96286380D01*
X132142198Y-95975311D01*
X132397500Y-95593225D01*
X132652802Y-95975311D01*
X133118349Y-96286380D01*
X133667500Y-96395613D01*
X134216651Y-96286380D01*
X134682198Y-95975311D01*
X134937500Y-95593225D01*
X135192802Y-95975311D01*
X135658349Y-96286380D01*
X136207500Y-96395613D01*
X136756651Y-96286380D01*
X137222198Y-95975311D01*
X137492486Y-95570797D01*
X137595111Y-95787634D01*
X138010077Y-96163541D01*
X138398461Y-96324404D01*
X138620500Y-96202415D01*
X138620500Y-95059500D01*
X138600500Y-95059500D01*
X138600500Y-94805500D01*
X138620500Y-94805500D01*
X138620500Y-93662585D01*
X138874500Y-93662585D01*
X138874500Y-94805500D01*
X138894500Y-94805500D01*
X138894500Y-95059500D01*
X138874500Y-95059500D01*
X138874500Y-96202415D01*
X139096539Y-96324404D01*
X139484923Y-96163541D01*
X139899889Y-95787634D01*
X140002514Y-95570797D01*
X140272802Y-95975311D01*
X140738349Y-96286380D01*
X141287500Y-96395613D01*
X141836651Y-96286380D01*
X142302198Y-95975311D01*
X142557500Y-95593225D01*
X142812802Y-95975311D01*
X143278349Y-96286380D01*
X143827500Y-96395613D01*
X144376651Y-96286380D01*
X144842198Y-95975311D01*
X145097500Y-95593225D01*
X145352802Y-95975311D01*
X145818349Y-96286380D01*
X146367500Y-96395613D01*
X146916651Y-96286380D01*
X147382198Y-95975311D01*
X147637500Y-95593225D01*
X147892802Y-95975311D01*
X148358349Y-96286380D01*
X148907500Y-96395613D01*
X149456651Y-96286380D01*
X149922198Y-95975311D01*
X150177500Y-95593225D01*
X150432802Y-95975311D01*
X150898349Y-96286380D01*
X151447500Y-96395613D01*
X151996651Y-96286380D01*
X152462198Y-95975311D01*
X152717500Y-95593225D01*
X152972802Y-95975311D01*
X153438349Y-96286380D01*
X153987500Y-96395613D01*
X154536651Y-96286380D01*
X155002198Y-95975311D01*
X155313267Y-95509764D01*
X155422500Y-94960613D01*
X155422500Y-94904387D01*
X155313267Y-94355236D01*
X155002198Y-93889689D01*
X154536651Y-93578620D01*
X153987500Y-93469387D01*
X153438349Y-93578620D01*
X152972802Y-93889689D01*
X152717500Y-94271775D01*
X152462198Y-93889689D01*
X151996651Y-93578620D01*
X151447500Y-93469387D01*
X150898349Y-93578620D01*
X150432802Y-93889689D01*
X150177500Y-94271775D01*
X149922198Y-93889689D01*
X149456651Y-93578620D01*
X148907500Y-93469387D01*
X148358349Y-93578620D01*
X147892802Y-93889689D01*
X147637500Y-94271775D01*
X147382198Y-93889689D01*
X146916651Y-93578620D01*
X146367500Y-93469387D01*
X145818349Y-93578620D01*
X145352802Y-93889689D01*
X145097500Y-94271775D01*
X144842198Y-93889689D01*
X144376651Y-93578620D01*
X143827500Y-93469387D01*
X143278349Y-93578620D01*
X142812802Y-93889689D01*
X142557500Y-94271775D01*
X142302198Y-93889689D01*
X141836651Y-93578620D01*
X141287500Y-93469387D01*
X140738349Y-93578620D01*
X140272802Y-93889689D01*
X140002514Y-94294203D01*
X139899889Y-94077366D01*
X139484923Y-93701459D01*
X139096539Y-93540596D01*
X138874500Y-93662585D01*
X138620500Y-93662585D01*
X138398461Y-93540596D01*
X138010077Y-93701459D01*
X137595111Y-94077366D01*
X137492486Y-94294203D01*
X137285000Y-93983679D01*
X137285000Y-92389802D01*
X140963614Y-88711188D01*
X141287500Y-88775613D01*
X141836651Y-88666380D01*
X142302198Y-88355311D01*
X142557500Y-87973225D01*
X142812802Y-88355311D01*
X143278349Y-88666380D01*
X143827500Y-88775613D01*
X144376651Y-88666380D01*
X144842198Y-88355311D01*
X145097500Y-87973225D01*
X145352802Y-88355311D01*
X145818349Y-88666380D01*
X146367500Y-88775613D01*
X146916651Y-88666380D01*
X147382198Y-88355311D01*
X147637500Y-87973225D01*
X147892802Y-88355311D01*
X148358349Y-88666380D01*
X148907500Y-88775613D01*
X149456651Y-88666380D01*
X149922198Y-88355311D01*
X150177500Y-87973225D01*
X150432802Y-88355311D01*
X150898349Y-88666380D01*
X151447500Y-88775613D01*
X151996651Y-88666380D01*
X152462198Y-88355311D01*
X152717500Y-87973225D01*
X152972802Y-88355311D01*
X153438349Y-88666380D01*
X153987500Y-88775613D01*
X154536651Y-88666380D01*
X155002198Y-88355311D01*
X155313267Y-87889764D01*
X155422500Y-87340613D01*
X155422500Y-87284387D01*
X155313267Y-86735236D01*
X155002198Y-86269689D01*
X154536651Y-85958620D01*
X153987500Y-85849387D01*
X153438349Y-85958620D01*
X152972802Y-86269689D01*
X152717500Y-86651775D01*
X152462198Y-86269689D01*
X151996651Y-85958620D01*
X151447500Y-85849387D01*
X150898349Y-85958620D01*
X150432802Y-86269689D01*
X150177500Y-86651775D01*
X149922198Y-86269689D01*
X149456651Y-85958620D01*
X148907500Y-85849387D01*
X148358349Y-85958620D01*
X147892802Y-86269689D01*
X147637500Y-86651775D01*
X147382198Y-86269689D01*
X146916651Y-85958620D01*
X146367500Y-85849387D01*
X145818349Y-85958620D01*
X145352802Y-86269689D01*
X145097500Y-86651775D01*
X144842198Y-86269689D01*
X144376651Y-85958620D01*
X143827500Y-85849387D01*
X143278349Y-85958620D01*
X142812802Y-86269689D01*
X142557500Y-86651775D01*
X142302198Y-86269689D01*
X142047500Y-86099505D01*
X142047500Y-82204387D01*
X144297500Y-82204387D01*
X144297500Y-82260613D01*
X144406733Y-82809764D01*
X144717802Y-83275311D01*
X145183349Y-83586380D01*
X145732500Y-83695613D01*
X146281651Y-83586380D01*
X146747198Y-83275311D01*
X147058267Y-82809764D01*
X147167500Y-82260613D01*
X147167500Y-82204387D01*
X150012500Y-82204387D01*
X150012500Y-82260613D01*
X150121733Y-82809764D01*
X150432802Y-83275311D01*
X150898349Y-83586380D01*
X151447500Y-83695613D01*
X151996651Y-83586380D01*
X152462198Y-83275311D01*
X152773267Y-82809764D01*
X152882500Y-82260613D01*
X152882500Y-82204387D01*
X155727500Y-82204387D01*
X155727500Y-82260613D01*
X155836733Y-82809764D01*
X156147802Y-83275311D01*
X156613349Y-83586380D01*
X157162500Y-83695613D01*
X157711651Y-83586380D01*
X158177198Y-83275311D01*
X158488267Y-82809764D01*
X158597500Y-82260613D01*
X158597500Y-82204387D01*
X158488267Y-81655236D01*
X158177198Y-81189689D01*
X157711651Y-80878620D01*
X157162500Y-80769387D01*
X156613349Y-80878620D01*
X156147802Y-81189689D01*
X155836733Y-81655236D01*
X155727500Y-82204387D01*
X152882500Y-82204387D01*
X152773267Y-81655236D01*
X152462198Y-81189689D01*
X151996651Y-80878620D01*
X151447500Y-80769387D01*
X150898349Y-80878620D01*
X150432802Y-81189689D01*
X150121733Y-81655236D01*
X150012500Y-82204387D01*
X147167500Y-82204387D01*
X147058267Y-81655236D01*
X146747198Y-81189689D01*
X146281651Y-80878620D01*
X145732500Y-80769387D01*
X145183349Y-80878620D01*
X144717802Y-81189689D01*
X144406733Y-81655236D01*
X144297500Y-82204387D01*
X142047500Y-82204387D01*
X142047500Y-72072500D01*
X141989648Y-71781661D01*
X141824901Y-71535099D01*
X134297802Y-64008000D01*
X141465560Y-64008000D01*
X141465560Y-65532000D01*
X141509838Y-65767317D01*
X141648910Y-65983441D01*
X141861110Y-66128431D01*
X142044124Y-66165492D01*
X141691371Y-66517630D01*
X141478243Y-67030900D01*
X141477758Y-67586661D01*
X141689990Y-68100303D01*
X142082630Y-68493629D01*
X142290512Y-68579949D01*
X142084697Y-68664990D01*
X141691371Y-69057630D01*
X141478243Y-69570900D01*
X141477758Y-70126661D01*
X141689990Y-70640303D01*
X142082630Y-71033629D01*
X142595900Y-71246757D01*
X143151661Y-71247242D01*
X143665303Y-71035010D01*
X144058629Y-70642370D01*
X144271757Y-70129100D01*
X144272060Y-69781862D01*
X144972500Y-70482302D01*
X144972500Y-70833854D01*
X144920700Y-70855257D01*
X144516676Y-71258577D01*
X144297750Y-71785809D01*
X144297252Y-72356687D01*
X144515257Y-72884300D01*
X144918577Y-73288324D01*
X145445809Y-73507250D01*
X146016687Y-73507748D01*
X146544300Y-73289743D01*
X146948324Y-72886423D01*
X147167250Y-72359191D01*
X147167748Y-71788313D01*
X146949743Y-71260700D01*
X146546423Y-70856676D01*
X146492500Y-70834285D01*
X146492500Y-70167500D01*
X146434648Y-69876661D01*
X146434648Y-69876660D01*
X146269901Y-69630099D01*
X144259183Y-67619381D01*
X144271757Y-67589100D01*
X144272242Y-67033339D01*
X144060010Y-66519697D01*
X143707167Y-66166237D01*
X143872317Y-66135162D01*
X144088441Y-65996090D01*
X144233431Y-65783890D01*
X144284440Y-65532000D01*
X144284440Y-64008000D01*
X147180560Y-64008000D01*
X147180560Y-65532000D01*
X147224838Y-65767317D01*
X147363910Y-65983441D01*
X147576110Y-66128431D01*
X147759124Y-66165492D01*
X147406371Y-66517630D01*
X147193243Y-67030900D01*
X147192758Y-67586661D01*
X147404990Y-68100303D01*
X147797630Y-68493629D01*
X148005512Y-68579949D01*
X147799697Y-68664990D01*
X147406371Y-69057630D01*
X147193243Y-69570900D01*
X147192758Y-70126661D01*
X147404990Y-70640303D01*
X147797630Y-71033629D01*
X148310900Y-71246757D01*
X148866661Y-71247242D01*
X149380303Y-71035010D01*
X149773629Y-70642370D01*
X149986757Y-70129100D01*
X149987060Y-69781862D01*
X150687500Y-70482302D01*
X150687500Y-70833854D01*
X150635700Y-70855257D01*
X150231676Y-71258577D01*
X150012750Y-71785809D01*
X150012252Y-72356687D01*
X150230257Y-72884300D01*
X150633577Y-73288324D01*
X151160809Y-73507250D01*
X151731687Y-73507748D01*
X152259300Y-73289743D01*
X152663324Y-72886423D01*
X152882250Y-72359191D01*
X152882748Y-71788313D01*
X152664743Y-71260700D01*
X152261423Y-70856676D01*
X152207500Y-70834285D01*
X152207500Y-70167500D01*
X152149648Y-69876661D01*
X152149648Y-69876660D01*
X151984901Y-69630099D01*
X149974183Y-67619381D01*
X149986757Y-67589100D01*
X149987242Y-67033339D01*
X149775010Y-66519697D01*
X149422167Y-66166237D01*
X149587317Y-66135162D01*
X149803441Y-65996090D01*
X149948431Y-65783890D01*
X149999440Y-65532000D01*
X149999440Y-64008000D01*
X152895560Y-64008000D01*
X152895560Y-65532000D01*
X152939838Y-65767317D01*
X153078910Y-65983441D01*
X153291110Y-66128431D01*
X153474124Y-66165492D01*
X153121371Y-66517630D01*
X152908243Y-67030900D01*
X152907758Y-67586661D01*
X153119990Y-68100303D01*
X153512630Y-68493629D01*
X153720512Y-68579949D01*
X153514697Y-68664990D01*
X153121371Y-69057630D01*
X152908243Y-69570900D01*
X152907758Y-70126661D01*
X153119990Y-70640303D01*
X153512630Y-71033629D01*
X154025900Y-71246757D01*
X154581661Y-71247242D01*
X155095303Y-71035010D01*
X155488629Y-70642370D01*
X155701757Y-70129100D01*
X155702060Y-69781862D01*
X156402500Y-70482302D01*
X156402500Y-70833854D01*
X156350700Y-70855257D01*
X155946676Y-71258577D01*
X155727750Y-71785809D01*
X155727252Y-72356687D01*
X155945257Y-72884300D01*
X156348577Y-73288324D01*
X156875809Y-73507250D01*
X157446687Y-73507748D01*
X157974300Y-73289743D01*
X158378324Y-72886423D01*
X158597250Y-72359191D01*
X158597748Y-71788313D01*
X158379743Y-71260700D01*
X157976423Y-70856676D01*
X157922500Y-70834285D01*
X157922500Y-70167500D01*
X157864648Y-69876661D01*
X157864648Y-69876660D01*
X157699901Y-69630099D01*
X155689183Y-67619381D01*
X155701757Y-67589100D01*
X155702242Y-67033339D01*
X155490010Y-66519697D01*
X155137167Y-66166237D01*
X155302317Y-66135162D01*
X155518441Y-65996090D01*
X155663431Y-65783890D01*
X155714440Y-65532000D01*
X155714440Y-64008000D01*
X155670162Y-63772683D01*
X155531090Y-63556559D01*
X155318890Y-63411569D01*
X155067000Y-63360560D01*
X153543000Y-63360560D01*
X153307683Y-63404838D01*
X153091559Y-63543910D01*
X152946569Y-63756110D01*
X152895560Y-64008000D01*
X149999440Y-64008000D01*
X149955162Y-63772683D01*
X149816090Y-63556559D01*
X149603890Y-63411569D01*
X149352000Y-63360560D01*
X147828000Y-63360560D01*
X147592683Y-63404838D01*
X147376559Y-63543910D01*
X147231569Y-63756110D01*
X147180560Y-64008000D01*
X144284440Y-64008000D01*
X144240162Y-63772683D01*
X144101090Y-63556559D01*
X143888890Y-63411569D01*
X143637000Y-63360560D01*
X142113000Y-63360560D01*
X141877683Y-63404838D01*
X141661559Y-63543910D01*
X141516569Y-63756110D01*
X141465560Y-64008000D01*
X134297802Y-64008000D01*
X132174189Y-61884387D01*
X144297500Y-61884387D01*
X144297500Y-61940613D01*
X144406733Y-62489764D01*
X144717802Y-62955311D01*
X145183349Y-63266380D01*
X145732500Y-63375613D01*
X146281651Y-63266380D01*
X146747198Y-62955311D01*
X147058267Y-62489764D01*
X147167500Y-61940613D01*
X147167500Y-61884387D01*
X150012500Y-61884387D01*
X150012500Y-61940613D01*
X150121733Y-62489764D01*
X150432802Y-62955311D01*
X150898349Y-63266380D01*
X151447500Y-63375613D01*
X151996651Y-63266380D01*
X152462198Y-62955311D01*
X152773267Y-62489764D01*
X152882500Y-61940613D01*
X152882500Y-61884387D01*
X155727500Y-61884387D01*
X155727500Y-61940613D01*
X155836733Y-62489764D01*
X156147802Y-62955311D01*
X156613349Y-63266380D01*
X157162500Y-63375613D01*
X157711651Y-63266380D01*
X158177198Y-62955311D01*
X158488267Y-62489764D01*
X158597500Y-61940613D01*
X158597500Y-61884387D01*
X158488267Y-61335236D01*
X158177198Y-60869689D01*
X157711651Y-60558620D01*
X157162500Y-60449387D01*
X156613349Y-60558620D01*
X156147802Y-60869689D01*
X155836733Y-61335236D01*
X155727500Y-61884387D01*
X152882500Y-61884387D01*
X152773267Y-61335236D01*
X152462198Y-60869689D01*
X151996651Y-60558620D01*
X151447500Y-60449387D01*
X150898349Y-60558620D01*
X150432802Y-60869689D01*
X150121733Y-61335236D01*
X150012500Y-61884387D01*
X147167500Y-61884387D01*
X147058267Y-61335236D01*
X146747198Y-60869689D01*
X146281651Y-60558620D01*
X145732500Y-60449387D01*
X145183349Y-60558620D01*
X144717802Y-60869689D01*
X144406733Y-61335236D01*
X144297500Y-61884387D01*
X132174189Y-61884387D01*
X125852302Y-55562500D01*
X130934387Y-55562500D01*
X131043620Y-56111651D01*
X131354689Y-56577198D01*
X131820236Y-56888267D01*
X132369387Y-56997500D01*
X132425613Y-56997500D01*
X132974764Y-56888267D01*
X133440311Y-56577198D01*
X133751380Y-56111651D01*
X133804084Y-55846687D01*
X141122252Y-55846687D01*
X141340257Y-56374300D01*
X141743577Y-56778324D01*
X142270809Y-56997250D01*
X142841687Y-56997748D01*
X143369300Y-56779743D01*
X143773324Y-56376423D01*
X143992250Y-55849191D01*
X143992748Y-55278313D01*
X143774743Y-54750700D01*
X143371423Y-54346676D01*
X142844191Y-54127750D01*
X142273313Y-54127252D01*
X141745700Y-54345257D01*
X141341676Y-54748577D01*
X141122750Y-55275809D01*
X141122252Y-55846687D01*
X133804084Y-55846687D01*
X133860613Y-55562500D01*
X133751380Y-55013349D01*
X133440311Y-54547802D01*
X132974764Y-54236733D01*
X132425613Y-54127500D01*
X132369387Y-54127500D01*
X131820236Y-54236733D01*
X131354689Y-54547802D01*
X131043620Y-55013349D01*
X130934387Y-55562500D01*
X125852302Y-55562500D01*
X123950000Y-53660198D01*
X123950000Y-51752500D01*
X130934387Y-51752500D01*
X131043620Y-52301651D01*
X131354689Y-52767198D01*
X131820236Y-53078267D01*
X132369387Y-53187500D01*
X132425613Y-53187500D01*
X132974764Y-53078267D01*
X133440311Y-52767198D01*
X133751380Y-52301651D01*
X133804084Y-52036687D01*
X141122252Y-52036687D01*
X141340257Y-52564300D01*
X141743577Y-52968324D01*
X142270809Y-53187250D01*
X142841687Y-53187748D01*
X143369300Y-52969743D01*
X143773324Y-52566423D01*
X143992250Y-52039191D01*
X143992252Y-52036687D01*
X144297252Y-52036687D01*
X144515257Y-52564300D01*
X144918577Y-52968324D01*
X145445809Y-53187250D01*
X146016687Y-53187748D01*
X146544300Y-52969743D01*
X146948324Y-52566423D01*
X147167250Y-52039191D01*
X147167252Y-52036687D01*
X150012252Y-52036687D01*
X150230257Y-52564300D01*
X150633577Y-52968324D01*
X151160809Y-53187250D01*
X151731687Y-53187748D01*
X152259300Y-52969743D01*
X152663324Y-52566423D01*
X152882250Y-52039191D01*
X152882748Y-51468313D01*
X152664743Y-50940700D01*
X152261423Y-50536676D01*
X151734191Y-50317750D01*
X151163313Y-50317252D01*
X150635700Y-50535257D01*
X150231676Y-50938577D01*
X150012750Y-51465809D01*
X150012252Y-52036687D01*
X147167252Y-52036687D01*
X147167748Y-51468313D01*
X146949743Y-50940700D01*
X146546423Y-50536676D01*
X146019191Y-50317750D01*
X145448313Y-50317252D01*
X144920700Y-50535257D01*
X144516676Y-50938577D01*
X144297750Y-51465809D01*
X144297252Y-52036687D01*
X143992252Y-52036687D01*
X143992748Y-51468313D01*
X143774743Y-50940700D01*
X143371423Y-50536676D01*
X142844191Y-50317750D01*
X142273313Y-50317252D01*
X141745700Y-50535257D01*
X141341676Y-50938577D01*
X141122750Y-51465809D01*
X141122252Y-52036687D01*
X133804084Y-52036687D01*
X133860613Y-51752500D01*
X133751380Y-51203349D01*
X133440311Y-50737802D01*
X132974764Y-50426733D01*
X132425613Y-50317500D01*
X132369387Y-50317500D01*
X131820236Y-50426733D01*
X131354689Y-50737802D01*
X131043620Y-51203349D01*
X130934387Y-51752500D01*
X123950000Y-51752500D01*
X123950000Y-47942500D01*
X130934387Y-47942500D01*
X131043620Y-48491651D01*
X131354689Y-48957198D01*
X131820236Y-49268267D01*
X132369387Y-49377500D01*
X132425613Y-49377500D01*
X132974764Y-49268267D01*
X133440311Y-48957198D01*
X133751380Y-48491651D01*
X133804084Y-48226687D01*
X141122252Y-48226687D01*
X141340257Y-48754300D01*
X141743577Y-49158324D01*
X142270809Y-49377250D01*
X142841687Y-49377748D01*
X143369300Y-49159743D01*
X143773324Y-48756423D01*
X143795715Y-48702500D01*
X153037698Y-48702500D01*
X155749244Y-51414046D01*
X155727750Y-51465809D01*
X155727252Y-52036687D01*
X155945257Y-52564300D01*
X156348577Y-52968324D01*
X156875809Y-53187250D01*
X157446687Y-53187748D01*
X157974300Y-52969743D01*
X158378324Y-52566423D01*
X158597250Y-52039191D01*
X158597748Y-51468313D01*
X158379743Y-50940700D01*
X157976423Y-50536676D01*
X157449191Y-50317750D01*
X156878313Y-50317252D01*
X156824351Y-50339549D01*
X153889901Y-47405099D01*
X153643339Y-47240352D01*
X153352500Y-47182500D01*
X143796146Y-47182500D01*
X143774743Y-47130700D01*
X143371423Y-46726676D01*
X142844191Y-46507750D01*
X142273313Y-46507252D01*
X141745700Y-46725257D01*
X141341676Y-47128577D01*
X141122750Y-47655809D01*
X141122252Y-48226687D01*
X133804084Y-48226687D01*
X133860613Y-47942500D01*
X133751380Y-47393349D01*
X133440311Y-46927802D01*
X132974764Y-46616733D01*
X132425613Y-46507500D01*
X132369387Y-46507500D01*
X131820236Y-46616733D01*
X131354689Y-46927802D01*
X131043620Y-47393349D01*
X130934387Y-47942500D01*
X123950000Y-47942500D01*
X123950000Y-47445201D01*
X124256191Y-47318686D01*
X124786822Y-46788979D01*
X125074352Y-46096531D01*
X125075006Y-45346759D01*
X124890516Y-44900255D01*
X145186400Y-44900255D01*
X145186400Y-45269745D01*
X145300474Y-45843234D01*
X145625330Y-46329415D01*
X146111511Y-46654271D01*
X146685000Y-46768345D01*
X147258489Y-46654271D01*
X147744670Y-46329415D01*
X147955000Y-46014634D01*
X148165330Y-46329415D01*
X148651511Y-46654271D01*
X149225000Y-46768345D01*
X149798489Y-46654271D01*
X150284670Y-46329415D01*
X150495000Y-46014634D01*
X150705330Y-46329415D01*
X151191511Y-46654271D01*
X151765000Y-46768345D01*
X152338489Y-46654271D01*
X152824670Y-46329415D01*
X152834243Y-46315087D01*
X152838238Y-46336317D01*
X152977310Y-46552441D01*
X153189510Y-46697431D01*
X153441400Y-46748440D01*
X155168600Y-46748440D01*
X155403917Y-46704162D01*
X155620041Y-46565090D01*
X155765031Y-46352890D01*
X155816040Y-46101000D01*
X155816040Y-44069000D01*
X155771762Y-43833683D01*
X155632690Y-43617559D01*
X155420490Y-43472569D01*
X155168600Y-43421560D01*
X153441400Y-43421560D01*
X153206083Y-43465838D01*
X152989959Y-43604910D01*
X152844969Y-43817110D01*
X152836600Y-43858439D01*
X152824670Y-43840585D01*
X152338489Y-43515729D01*
X151765000Y-43401655D01*
X151191511Y-43515729D01*
X150705330Y-43840585D01*
X150495000Y-44155366D01*
X150284670Y-43840585D01*
X149798489Y-43515729D01*
X149225000Y-43401655D01*
X148651511Y-43515729D01*
X148165330Y-43840585D01*
X147955000Y-44155366D01*
X147744670Y-43840585D01*
X147258489Y-43515729D01*
X146685000Y-43401655D01*
X146111511Y-43515729D01*
X145625330Y-43840585D01*
X145300474Y-44326766D01*
X145186400Y-44900255D01*
X124890516Y-44900255D01*
X124788686Y-44653809D01*
X124258979Y-44123178D01*
X123566531Y-43835648D01*
X122816759Y-43834994D01*
X122123809Y-44121314D01*
X121593178Y-44651021D01*
X121305648Y-45343469D01*
X121304994Y-46093241D01*
X121591314Y-46786191D01*
X122121021Y-47316822D01*
X122430000Y-47445121D01*
X122430000Y-53975000D01*
X122487852Y-54265839D01*
X122652599Y-54512401D01*
X140527500Y-72387302D01*
X140527500Y-86099505D01*
X140272802Y-86269689D01*
X140017500Y-86651775D01*
X139762198Y-86269689D01*
X139296651Y-85958620D01*
X138747500Y-85849387D01*
X138198349Y-85958620D01*
X137732802Y-86269689D01*
X137462514Y-86674203D01*
X137359889Y-86457366D01*
X136944923Y-86081459D01*
X136556539Y-85920596D01*
X136334500Y-86042585D01*
X136334500Y-87185500D01*
X136354500Y-87185500D01*
X136354500Y-87439500D01*
X136334500Y-87439500D01*
X136334500Y-88582415D01*
X136556539Y-88704404D01*
X136944923Y-88543541D01*
X137359889Y-88167634D01*
X137462514Y-87950797D01*
X137732802Y-88355311D01*
X138198349Y-88666380D01*
X138747500Y-88775613D01*
X138750103Y-88775095D01*
X135987599Y-91537599D01*
X135822852Y-91784161D01*
X135765000Y-92075000D01*
X135765000Y-93557406D01*
X135658349Y-93578620D01*
X135192802Y-93889689D01*
X134937500Y-94271775D01*
X134682198Y-93889689D01*
X134216651Y-93578620D01*
X133667500Y-93469387D01*
X133118349Y-93578620D01*
X132652802Y-93889689D01*
X132397500Y-94271775D01*
X132142198Y-93889689D01*
X131676651Y-93578620D01*
X131127500Y-93469387D01*
X130578349Y-93578620D01*
X130112802Y-93889689D01*
X129857500Y-94271775D01*
X129602198Y-93889689D01*
X129136651Y-93578620D01*
X128587500Y-93469387D01*
X128038349Y-93578620D01*
X127572802Y-93889689D01*
X127317500Y-94271775D01*
X127062198Y-93889689D01*
X126596651Y-93578620D01*
X126047500Y-93469387D01*
X125498349Y-93578620D01*
X125032802Y-93889689D01*
X124777500Y-94271775D01*
X124522198Y-93889689D01*
X124056651Y-93578620D01*
X123507500Y-93469387D01*
X122958349Y-93578620D01*
X122492802Y-93889689D01*
X122396399Y-94033965D01*
X122370662Y-93897183D01*
X122231590Y-93681059D01*
X122019390Y-93536069D01*
X121767500Y-93485060D01*
X120594862Y-93485060D01*
X117377401Y-90267599D01*
X117130839Y-90102852D01*
X116840000Y-90045000D01*
X116833301Y-90045000D01*
X116620054Y-89725853D01*
X116336899Y-89536655D01*
X116336924Y-89536645D01*
X116765183Y-89146358D01*
X117011486Y-88621892D01*
X116890819Y-88392000D01*
X115697000Y-88392000D01*
X115697000Y-88412000D01*
X115443000Y-88412000D01*
X115443000Y-88392000D01*
X115423000Y-88392000D01*
X115423000Y-88138000D01*
X115443000Y-88138000D01*
X115443000Y-86944845D01*
X115697000Y-86944845D01*
X115697000Y-88138000D01*
X116890819Y-88138000D01*
X117011486Y-87908108D01*
X116765183Y-87383642D01*
X116336924Y-86993355D01*
X115926890Y-86823524D01*
X115697000Y-86944845D01*
X115443000Y-86944845D01*
X115213110Y-86823524D01*
X114803076Y-86993355D01*
X114374817Y-87383642D01*
X114307702Y-87526553D01*
X114080054Y-87185853D01*
X113598285Y-86863946D01*
X113030000Y-86750907D01*
X112461715Y-86863946D01*
X111979946Y-87185853D01*
X111760000Y-87515026D01*
X111540054Y-87185853D01*
X111058285Y-86863946D01*
X110490000Y-86750907D01*
X109921715Y-86863946D01*
X109439946Y-87185853D01*
X109118039Y-87667622D01*
X109005000Y-88235907D01*
X109005000Y-88294093D01*
X109118039Y-88862378D01*
X109439946Y-89344147D01*
X109441179Y-89344971D01*
X109404683Y-89351838D01*
X109188559Y-89490910D01*
X109043569Y-89703110D01*
X108992560Y-89955000D01*
X108992560Y-91655000D01*
X109036838Y-91890317D01*
X109175910Y-92106441D01*
X109388110Y-92251431D01*
X109640000Y-92302440D01*
X111340000Y-92302440D01*
X111575317Y-92258162D01*
X111791441Y-92119090D01*
X111936431Y-91906890D01*
X111950086Y-91839459D01*
X111979946Y-91884147D01*
X112461715Y-92206054D01*
X113030000Y-92319093D01*
X113598285Y-92206054D01*
X114080054Y-91884147D01*
X114300000Y-91554974D01*
X114519946Y-91884147D01*
X115001715Y-92206054D01*
X115570000Y-92319093D01*
X116138285Y-92206054D01*
X116620054Y-91884147D01*
X116709892Y-91749694D01*
X119520060Y-94559862D01*
X119520060Y-95732500D01*
X119564338Y-95967817D01*
X119703410Y-96183941D01*
X119915610Y-96328931D01*
X120167500Y-96379940D01*
X121767500Y-96379940D01*
X122002817Y-96335662D01*
X122218941Y-96196590D01*
X122363931Y-95984390D01*
X122395315Y-95829411D01*
X122492802Y-95975311D01*
X122747500Y-96145495D01*
X122747500Y-96522698D01*
X119065198Y-100205000D01*
X118429942Y-100205000D01*
X118733188Y-99902283D01*
X118959742Y-99356681D01*
X118960257Y-98765911D01*
X118734656Y-98219914D01*
X118317283Y-97801812D01*
X117771681Y-97575258D01*
X117180911Y-97574743D01*
X116634914Y-97800344D01*
X116216812Y-98217717D01*
X115990258Y-98763319D01*
X115989743Y-99354089D01*
X116215344Y-99900086D01*
X116519726Y-100205000D01*
X112429942Y-100205000D01*
X112733188Y-99902283D01*
X112959742Y-99356681D01*
X112960257Y-98765911D01*
X112734656Y-98219914D01*
X112317283Y-97801812D01*
X111771681Y-97575258D01*
X111180911Y-97574743D01*
X110634914Y-97800344D01*
X110216812Y-98217717D01*
X109990258Y-98763319D01*
X109989743Y-99354089D01*
X110215344Y-99900086D01*
X110519726Y-100205000D01*
X109144830Y-100205000D01*
X109418379Y-100084275D01*
X109686591Y-99384117D01*
X109666448Y-98634616D01*
X109418379Y-98035725D01*
X109125609Y-97906517D01*
X107972125Y-99060000D01*
X107986268Y-99074142D01*
X107806662Y-99253748D01*
X107792520Y-99239605D01*
X107778378Y-99253748D01*
X107598772Y-99074142D01*
X107612915Y-99060000D01*
X106459431Y-97906517D01*
X106166661Y-98035725D01*
X105898449Y-98735883D01*
X105918592Y-99485384D01*
X106166661Y-100084275D01*
X106440210Y-100205000D01*
X104311928Y-100205000D01*
X104388082Y-100128979D01*
X104675612Y-99436531D01*
X104676266Y-98686759D01*
X104389946Y-97993809D01*
X104123513Y-97726911D01*
X106639037Y-97726911D01*
X107792520Y-98880395D01*
X108946003Y-97726911D01*
X108816795Y-97434141D01*
X108116637Y-97165929D01*
X107367136Y-97186072D01*
X106768245Y-97434141D01*
X106639037Y-97726911D01*
X104123513Y-97726911D01*
X103860239Y-97463178D01*
X103551260Y-97334879D01*
X103551260Y-95354089D01*
X109989743Y-95354089D01*
X110215344Y-95900086D01*
X110632717Y-96318188D01*
X111178319Y-96544742D01*
X111769089Y-96545257D01*
X112315086Y-96319656D01*
X112531160Y-96103958D01*
X116610647Y-96103958D01*
X116690920Y-96355259D01*
X117246279Y-96556718D01*
X117836458Y-96530315D01*
X118259080Y-96355259D01*
X118339353Y-96103958D01*
X117475000Y-95239605D01*
X116610647Y-96103958D01*
X112531160Y-96103958D01*
X112733188Y-95902283D01*
X112959742Y-95356681D01*
X112960200Y-94831279D01*
X115978282Y-94831279D01*
X116004685Y-95421458D01*
X116179741Y-95844080D01*
X116431042Y-95924353D01*
X117295395Y-95060000D01*
X117654605Y-95060000D01*
X118518958Y-95924353D01*
X118770259Y-95844080D01*
X118971718Y-95288721D01*
X118945315Y-94698542D01*
X118770259Y-94275920D01*
X118518958Y-94195647D01*
X117654605Y-95060000D01*
X117295395Y-95060000D01*
X116431042Y-94195647D01*
X116179741Y-94275920D01*
X115978282Y-94831279D01*
X112960200Y-94831279D01*
X112960257Y-94765911D01*
X112734656Y-94219914D01*
X112531140Y-94016042D01*
X116610647Y-94016042D01*
X117475000Y-94880395D01*
X118339353Y-94016042D01*
X118259080Y-93764741D01*
X117703721Y-93563282D01*
X117113542Y-93589685D01*
X116690920Y-93764741D01*
X116610647Y-94016042D01*
X112531140Y-94016042D01*
X112317283Y-93801812D01*
X111771681Y-93575258D01*
X111180911Y-93574743D01*
X110634914Y-93800344D01*
X110216812Y-94217717D01*
X109990258Y-94763319D01*
X109989743Y-95354089D01*
X103551260Y-95354089D01*
X103551260Y-90563542D01*
X108264802Y-85850000D01*
X118430198Y-85850000D01*
X119587596Y-87007398D01*
X119532500Y-87284387D01*
X119532500Y-87340613D01*
X119641733Y-87889764D01*
X119952802Y-88355311D01*
X120418349Y-88666380D01*
X120967500Y-88775613D01*
X121516651Y-88666380D01*
X121982198Y-88355311D01*
X122237500Y-87973225D01*
X122492802Y-88355311D01*
X122958349Y-88666380D01*
X123507500Y-88775613D01*
X124056651Y-88666380D01*
X124522198Y-88355311D01*
X124777500Y-87973225D01*
X125032802Y-88355311D01*
X125498349Y-88666380D01*
X126047500Y-88775613D01*
X126596651Y-88666380D01*
X127062198Y-88355311D01*
X127317500Y-87973225D01*
X127572802Y-88355311D01*
X128038349Y-88666380D01*
X128587500Y-88775613D01*
X129136651Y-88666380D01*
X129602198Y-88355311D01*
X129857500Y-87973225D01*
X130112802Y-88355311D01*
X130578349Y-88666380D01*
X131127500Y-88775613D01*
X131676651Y-88666380D01*
X132142198Y-88355311D01*
X132397500Y-87973225D01*
X132652802Y-88355311D01*
X133118349Y-88666380D01*
X133667500Y-88775613D01*
X134216651Y-88666380D01*
X134682198Y-88355311D01*
X134952486Y-87950797D01*
X135055111Y-88167634D01*
X135470077Y-88543541D01*
X135858461Y-88704404D01*
X136080500Y-88582415D01*
X136080500Y-87439500D01*
X136060500Y-87439500D01*
X136060500Y-87185500D01*
X136080500Y-87185500D01*
X136080500Y-86042585D01*
X135858461Y-85920596D01*
X135470077Y-86081459D01*
X135055111Y-86457366D01*
X134952486Y-86674203D01*
X134682198Y-86269689D01*
X134216651Y-85958620D01*
X133667500Y-85849387D01*
X133118349Y-85958620D01*
X132652802Y-86269689D01*
X132397500Y-86651775D01*
X132142198Y-86269689D01*
X131676651Y-85958620D01*
X131127500Y-85849387D01*
X130578349Y-85958620D01*
X130112802Y-86269689D01*
X129857500Y-86651775D01*
X129602198Y-86269689D01*
X129136651Y-85958620D01*
X128587500Y-85849387D01*
X128038349Y-85958620D01*
X127572802Y-86269689D01*
X127317500Y-86651775D01*
X127062198Y-86269689D01*
X126596651Y-85958620D01*
X126047500Y-85849387D01*
X125498349Y-85958620D01*
X125032802Y-86269689D01*
X124777500Y-86651775D01*
X124522198Y-86269689D01*
X124056651Y-85958620D01*
X123507500Y-85849387D01*
X122958349Y-85958620D01*
X122492802Y-86269689D01*
X122237500Y-86651775D01*
X121982198Y-86269689D01*
X121516651Y-85958620D01*
X120967500Y-85849387D01*
X120643614Y-85913812D01*
X119557547Y-84827745D01*
X132521861Y-84827745D01*
X132595995Y-85073864D01*
X133133223Y-85266965D01*
X133703454Y-85239778D01*
X134104005Y-85073864D01*
X134178139Y-84827745D01*
X133350000Y-83999605D01*
X132521861Y-84827745D01*
X119557547Y-84827745D01*
X119282401Y-84552599D01*
X119035839Y-84387852D01*
X118745000Y-84330000D01*
X110419802Y-84330000D01*
X111146579Y-83603223D01*
X131903035Y-83603223D01*
X131930222Y-84173454D01*
X132096136Y-84574005D01*
X132342255Y-84648139D01*
X133170395Y-83820000D01*
X133529605Y-83820000D01*
X134357745Y-84648139D01*
X134603864Y-84574005D01*
X134796965Y-84036777D01*
X134769778Y-83466546D01*
X134603864Y-83065995D01*
X134357745Y-82991861D01*
X133529605Y-83820000D01*
X133170395Y-83820000D01*
X132342255Y-82991861D01*
X132096136Y-83065995D01*
X131903035Y-83603223D01*
X111146579Y-83603223D01*
X111937547Y-82812255D01*
X132521861Y-82812255D01*
X133350000Y-83640395D01*
X134178139Y-82812255D01*
X134104005Y-82566136D01*
X133566777Y-82373035D01*
X132996546Y-82400222D01*
X132595995Y-82566136D01*
X132521861Y-82812255D01*
X111937547Y-82812255D01*
X112022362Y-82727440D01*
X113195000Y-82727440D01*
X113430317Y-82683162D01*
X113646441Y-82544090D01*
X113791431Y-82331890D01*
X113842440Y-82080000D01*
X113842440Y-81564187D01*
X114134752Y-81564187D01*
X114352757Y-82091800D01*
X114756077Y-82495824D01*
X115283309Y-82714750D01*
X115854187Y-82715248D01*
X116381800Y-82497243D01*
X116785824Y-82093923D01*
X117004750Y-81566691D01*
X117005248Y-80995813D01*
X116787243Y-80468200D01*
X116383923Y-80064176D01*
X115856691Y-79845250D01*
X115285813Y-79844752D01*
X114758200Y-80062757D01*
X114354176Y-80466077D01*
X114135250Y-80993309D01*
X114134752Y-81564187D01*
X113842440Y-81564187D01*
X113842440Y-80480000D01*
X113798162Y-80244683D01*
X113659090Y-80028559D01*
X113446890Y-79883569D01*
X113195000Y-79832560D01*
X111595000Y-79832560D01*
X111359683Y-79876838D01*
X111143559Y-80015910D01*
X110998569Y-80228110D01*
X110947560Y-80480000D01*
X110947560Y-81652638D01*
X109540198Y-83060000D01*
X106680000Y-83060000D01*
X106389161Y-83117852D01*
X106142599Y-83282599D01*
X97252599Y-92172599D01*
X97087852Y-92419161D01*
X97030000Y-92710000D01*
X97030000Y-97334799D01*
X96723809Y-97461314D01*
X96193178Y-97991021D01*
X95918154Y-98653352D01*
X93247401Y-95982599D01*
X93000839Y-95817852D01*
X92710000Y-95760000D01*
X89388707Y-95760000D01*
X89124029Y-95363880D01*
X88953595Y-95250000D01*
X89124029Y-95136120D01*
X89478452Y-94605687D01*
X89602909Y-93980000D01*
X89478452Y-93354313D01*
X89124029Y-92823880D01*
X88953595Y-92710000D01*
X89124029Y-92596120D01*
X89388707Y-92200000D01*
X91360000Y-92200000D01*
X91650839Y-92142148D01*
X91897401Y-91977401D01*
X102245763Y-81629039D01*
X103383096Y-81629039D01*
X103543959Y-82017423D01*
X103919866Y-82432389D01*
X104425959Y-82671914D01*
X104648000Y-82550629D01*
X104648000Y-81407000D01*
X104902000Y-81407000D01*
X104902000Y-82550629D01*
X105124041Y-82671914D01*
X105630134Y-82432389D01*
X106006041Y-82017423D01*
X106166904Y-81629039D01*
X106044915Y-81407000D01*
X104902000Y-81407000D01*
X104648000Y-81407000D01*
X103505085Y-81407000D01*
X103383096Y-81629039D01*
X102245763Y-81629039D01*
X102943841Y-80930961D01*
X103383096Y-80930961D01*
X103505085Y-81153000D01*
X104648000Y-81153000D01*
X104648000Y-80009371D01*
X104902000Y-80009371D01*
X104902000Y-81153000D01*
X106044915Y-81153000D01*
X106166904Y-80930961D01*
X106006041Y-80542577D01*
X105630134Y-80127611D01*
X105124041Y-79888086D01*
X104902000Y-80009371D01*
X104648000Y-80009371D01*
X104425959Y-79888086D01*
X103919866Y-80127611D01*
X103543959Y-80542577D01*
X103383096Y-80930961D01*
X102943841Y-80930961D01*
X104356546Y-79518256D01*
X104408309Y-79539750D01*
X104979187Y-79540248D01*
X105506800Y-79322243D01*
X105910824Y-78918923D01*
X106129750Y-78391691D01*
X106129752Y-78389187D01*
X110324752Y-78389187D01*
X110542757Y-78916800D01*
X110946077Y-79320824D01*
X111473309Y-79539750D01*
X112044187Y-79540248D01*
X112571800Y-79322243D01*
X112975824Y-78918923D01*
X113194750Y-78391691D01*
X113195248Y-77820813D01*
X112977243Y-77293200D01*
X112573923Y-76889176D01*
X112046691Y-76670250D01*
X111475813Y-76669752D01*
X110948200Y-76887757D01*
X110544176Y-77291077D01*
X110325250Y-77818309D01*
X110324752Y-78389187D01*
X106129752Y-78389187D01*
X106130248Y-77820813D01*
X105912243Y-77293200D01*
X105508923Y-76889176D01*
X104981691Y-76670250D01*
X104410813Y-76669752D01*
X103883200Y-76887757D01*
X103479176Y-77291077D01*
X103456785Y-77345000D01*
X103184802Y-77345000D01*
X101090000Y-75250198D01*
X101090000Y-74579187D01*
X101514752Y-74579187D01*
X101732757Y-75106800D01*
X102136077Y-75510824D01*
X102663309Y-75729750D01*
X103234187Y-75730248D01*
X103761800Y-75512243D01*
X104165824Y-75108923D01*
X104384750Y-74581691D01*
X104384752Y-74579187D01*
X106514752Y-74579187D01*
X106732757Y-75106800D01*
X107136077Y-75510824D01*
X107663309Y-75729750D01*
X108234187Y-75730248D01*
X108761800Y-75512243D01*
X109165824Y-75108923D01*
X109384750Y-74581691D01*
X109385248Y-74010813D01*
X109167243Y-73483200D01*
X108763923Y-73079176D01*
X108236691Y-72860250D01*
X107665813Y-72859752D01*
X107138200Y-73077757D01*
X106734176Y-73481077D01*
X106515250Y-74008309D01*
X106514752Y-74579187D01*
X104384752Y-74579187D01*
X104385248Y-74010813D01*
X104167243Y-73483200D01*
X103763923Y-73079176D01*
X103236691Y-72860250D01*
X102665813Y-72859752D01*
X102138200Y-73077757D01*
X101734176Y-73481077D01*
X101515250Y-74008309D01*
X101514752Y-74579187D01*
X101090000Y-74579187D01*
X101090000Y-66989802D01*
X102677405Y-65402397D01*
X102676887Y-65405000D01*
X102786120Y-65954151D01*
X103097189Y-66419698D01*
X103479275Y-66675000D01*
X103097189Y-66930302D01*
X102786120Y-67395849D01*
X102676887Y-67945000D01*
X102786120Y-68494151D01*
X103097189Y-68959698D01*
X103479275Y-69215000D01*
X103097189Y-69470302D01*
X102786120Y-69935849D01*
X102676887Y-70485000D01*
X102786120Y-71034151D01*
X103097189Y-71499698D01*
X103562736Y-71810767D01*
X104111887Y-71920000D01*
X104168113Y-71920000D01*
X104717264Y-71810767D01*
X105182811Y-71499698D01*
X105493880Y-71034151D01*
X105546584Y-70769187D01*
X106514752Y-70769187D01*
X106732757Y-71296800D01*
X107136077Y-71700824D01*
X107663309Y-71919750D01*
X108234187Y-71920248D01*
X108761800Y-71702243D01*
X109165824Y-71298923D01*
X109251792Y-71091887D01*
X114135000Y-71091887D01*
X114135000Y-71148113D01*
X114244233Y-71697264D01*
X114555302Y-72162811D01*
X115020849Y-72473880D01*
X115570000Y-72583113D01*
X116119151Y-72473880D01*
X116584698Y-72162811D01*
X116895767Y-71697264D01*
X117005000Y-71148113D01*
X117005000Y-71091887D01*
X116895767Y-70542736D01*
X116584698Y-70077189D01*
X116119151Y-69766120D01*
X115570000Y-69656887D01*
X115020849Y-69766120D01*
X114555302Y-70077189D01*
X114244233Y-70542736D01*
X114135000Y-71091887D01*
X109251792Y-71091887D01*
X109384750Y-70771691D01*
X109385248Y-70200813D01*
X109167243Y-69673200D01*
X108763923Y-69269176D01*
X108236691Y-69050250D01*
X107665813Y-69049752D01*
X107138200Y-69267757D01*
X106734176Y-69671077D01*
X106515250Y-70198309D01*
X106514752Y-70769187D01*
X105546584Y-70769187D01*
X105603113Y-70485000D01*
X105493880Y-69935849D01*
X105182811Y-69470302D01*
X104800725Y-69215000D01*
X105182811Y-68959698D01*
X105493880Y-68494151D01*
X105603113Y-67945000D01*
X105597521Y-67916887D01*
X110325000Y-67916887D01*
X110325000Y-67973113D01*
X110434233Y-68522264D01*
X110745302Y-68987811D01*
X111210849Y-69298880D01*
X111760000Y-69408113D01*
X112309151Y-69298880D01*
X112774698Y-68987811D01*
X113085767Y-68522264D01*
X113195000Y-67973113D01*
X113195000Y-67916887D01*
X113085767Y-67367736D01*
X112774698Y-66902189D01*
X112309151Y-66591120D01*
X111760000Y-66481887D01*
X111210849Y-66591120D01*
X110745302Y-66902189D01*
X110434233Y-67367736D01*
X110325000Y-67916887D01*
X105597521Y-67916887D01*
X105493880Y-67395849D01*
X105182811Y-66930302D01*
X104800725Y-66675000D01*
X105182811Y-66419698D01*
X105493880Y-65954151D01*
X105603113Y-65405000D01*
X105493880Y-64855849D01*
X105182811Y-64390302D01*
X104800725Y-64135000D01*
X105182811Y-63879698D01*
X105493880Y-63414151D01*
X105603113Y-62865000D01*
X105493880Y-62315849D01*
X105182811Y-61850302D01*
X104717264Y-61539233D01*
X104168113Y-61430000D01*
X104111887Y-61430000D01*
X103562736Y-61539233D01*
X103097189Y-61850302D01*
X102786120Y-62315849D01*
X102676887Y-62865000D01*
X102741312Y-63188886D01*
X99792599Y-66137599D01*
X99627852Y-66384161D01*
X99570000Y-66675000D01*
X99570000Y-75565000D01*
X99627852Y-75855839D01*
X99792599Y-76102401D01*
X102332599Y-78642401D01*
X102579160Y-78807148D01*
X102627414Y-78816746D01*
X102861824Y-78863374D01*
X91045198Y-90680000D01*
X89388707Y-90680000D01*
X89124029Y-90283880D01*
X88953595Y-90170000D01*
X89124029Y-90056120D01*
X89478452Y-89525687D01*
X89602909Y-88900000D01*
X89478452Y-88274313D01*
X89240769Y-87918594D01*
X89289699Y-87898327D01*
X89468327Y-87719698D01*
X89565000Y-87486309D01*
X89565000Y-86645750D01*
X89406250Y-86487000D01*
X87757000Y-86487000D01*
X87757000Y-86507000D01*
X87503000Y-86507000D01*
X87503000Y-86487000D01*
X85853750Y-86487000D01*
X85695000Y-86645750D01*
X85695000Y-87486309D01*
X85791673Y-87719698D01*
X85970301Y-87898327D01*
X86019231Y-87918594D01*
X85781548Y-88274313D01*
X85657091Y-88900000D01*
X85781548Y-89525687D01*
X86135971Y-90056120D01*
X86306405Y-90170000D01*
X86135971Y-90283880D01*
X85781548Y-90814313D01*
X85657091Y-91440000D01*
X85781548Y-92065687D01*
X86135971Y-92596120D01*
X86306405Y-92710000D01*
X86135971Y-92823880D01*
X85781548Y-93354313D01*
X85657091Y-93980000D01*
X85781548Y-94605687D01*
X86135971Y-95136120D01*
X86306405Y-95250000D01*
X86135971Y-95363880D01*
X85781548Y-95894313D01*
X85657091Y-96520000D01*
X85781548Y-97145687D01*
X86135971Y-97676120D01*
X86306405Y-97790000D01*
X86135971Y-97903880D01*
X85781548Y-98434313D01*
X85657091Y-99060000D01*
X85781548Y-99685687D01*
X86135971Y-100216120D01*
X86666404Y-100570543D01*
X87292091Y-100695000D01*
X87967909Y-100695000D01*
X88593596Y-100570543D01*
X89124029Y-100216120D01*
X89388707Y-99820000D01*
X93665198Y-99820000D01*
X96005198Y-102160000D01*
X81990000Y-102160000D01*
X81990000Y-85233691D01*
X85695000Y-85233691D01*
X85695000Y-86074250D01*
X85853750Y-86233000D01*
X87503000Y-86233000D01*
X87503000Y-84883750D01*
X87757000Y-84883750D01*
X87757000Y-86233000D01*
X89406250Y-86233000D01*
X89565000Y-86074250D01*
X89565000Y-85233691D01*
X89468327Y-85000302D01*
X89289699Y-84821673D01*
X89056310Y-84725000D01*
X87915750Y-84725000D01*
X87757000Y-84883750D01*
X87503000Y-84883750D01*
X87344250Y-84725000D01*
X86203690Y-84725000D01*
X85970301Y-84821673D01*
X85791673Y-85000302D01*
X85695000Y-85233691D01*
X81990000Y-85233691D01*
X81990000Y-80930750D01*
X84240000Y-80930750D01*
X84240000Y-81621310D01*
X84336673Y-81854699D01*
X84515302Y-82033327D01*
X84748691Y-82130000D01*
X85439250Y-82130000D01*
X85598000Y-81971250D01*
X85598000Y-80772000D01*
X85852000Y-80772000D01*
X85852000Y-81971250D01*
X86010750Y-82130000D01*
X86701309Y-82130000D01*
X86934698Y-82033327D01*
X87113327Y-81854699D01*
X87210000Y-81621310D01*
X87210000Y-80994041D01*
X88143086Y-80994041D01*
X88382611Y-81500134D01*
X88797577Y-81876041D01*
X89185961Y-82036904D01*
X89408000Y-81914915D01*
X89408000Y-80772000D01*
X89662000Y-80772000D01*
X89662000Y-81914915D01*
X89884039Y-82036904D01*
X90272423Y-81876041D01*
X90687389Y-81500134D01*
X90926914Y-80994041D01*
X90805629Y-80772000D01*
X89662000Y-80772000D01*
X89408000Y-80772000D01*
X88264371Y-80772000D01*
X88143086Y-80994041D01*
X87210000Y-80994041D01*
X87210000Y-80930750D01*
X87051250Y-80772000D01*
X85852000Y-80772000D01*
X85598000Y-80772000D01*
X84398750Y-80772000D01*
X84240000Y-80930750D01*
X81990000Y-80930750D01*
X81990000Y-75565000D01*
X84210907Y-75565000D01*
X84323946Y-76133285D01*
X84645853Y-76615054D01*
X84975026Y-76835000D01*
X84645853Y-77054946D01*
X84323946Y-77536715D01*
X84210907Y-78105000D01*
X84323946Y-78673285D01*
X84645853Y-79155054D01*
X84689777Y-79184403D01*
X84515302Y-79256673D01*
X84336673Y-79435301D01*
X84240000Y-79668690D01*
X84240000Y-80359250D01*
X84398750Y-80518000D01*
X85598000Y-80518000D01*
X85598000Y-80498000D01*
X85852000Y-80498000D01*
X85852000Y-80518000D01*
X87051250Y-80518000D01*
X87210000Y-80359250D01*
X87210000Y-80295959D01*
X88143086Y-80295959D01*
X88264371Y-80518000D01*
X89408000Y-80518000D01*
X89408000Y-79375085D01*
X89662000Y-79375085D01*
X89662000Y-80518000D01*
X90805629Y-80518000D01*
X90926914Y-80295959D01*
X90687389Y-79789866D01*
X90272423Y-79413959D01*
X89884039Y-79253096D01*
X89662000Y-79375085D01*
X89408000Y-79375085D01*
X89185961Y-79253096D01*
X88797577Y-79413959D01*
X88382611Y-79789866D01*
X88143086Y-80295959D01*
X87210000Y-80295959D01*
X87210000Y-79668690D01*
X87113327Y-79435301D01*
X86934698Y-79256673D01*
X86760223Y-79184403D01*
X86804147Y-79155054D01*
X87126054Y-78673285D01*
X87182253Y-78390750D01*
X92545000Y-78390750D01*
X92545000Y-79031310D01*
X92641673Y-79264699D01*
X92820302Y-79443327D01*
X93053691Y-79540000D01*
X93694250Y-79540000D01*
X93853000Y-79381250D01*
X93853000Y-78232000D01*
X92703750Y-78232000D01*
X92545000Y-78390750D01*
X87182253Y-78390750D01*
X87239093Y-78105000D01*
X87126054Y-77536715D01*
X86886830Y-77178690D01*
X92545000Y-77178690D01*
X92545000Y-77819250D01*
X92703750Y-77978000D01*
X93853000Y-77978000D01*
X93853000Y-76828750D01*
X94107000Y-76828750D01*
X94107000Y-77978000D01*
X94127000Y-77978000D01*
X94127000Y-78232000D01*
X94107000Y-78232000D01*
X94107000Y-79381250D01*
X94265750Y-79540000D01*
X94906309Y-79540000D01*
X95139698Y-79443327D01*
X95233998Y-79349027D01*
X95693309Y-79539750D01*
X96264187Y-79540248D01*
X96791800Y-79322243D01*
X97195824Y-78918923D01*
X97414750Y-78391691D01*
X97414752Y-78389187D01*
X98259752Y-78389187D01*
X98477757Y-78916800D01*
X98881077Y-79320824D01*
X99408309Y-79539750D01*
X99979187Y-79540248D01*
X100506800Y-79322243D01*
X100910824Y-78918923D01*
X101129750Y-78391691D01*
X101130248Y-77820813D01*
X100912243Y-77293200D01*
X100508923Y-76889176D01*
X99981691Y-76670250D01*
X99410813Y-76669752D01*
X98883200Y-76887757D01*
X98479176Y-77291077D01*
X98260250Y-77818309D01*
X98259752Y-78389187D01*
X97414752Y-78389187D01*
X97415248Y-77820813D01*
X97197243Y-77293200D01*
X96793923Y-76889176D01*
X96740000Y-76866785D01*
X96740000Y-71881831D01*
X97097264Y-71810767D01*
X97562811Y-71499698D01*
X97873880Y-71034151D01*
X97983113Y-70485000D01*
X97873880Y-69935849D01*
X97562811Y-69470302D01*
X97180725Y-69215000D01*
X97562811Y-68959698D01*
X97873880Y-68494151D01*
X97983113Y-67945000D01*
X97873880Y-67395849D01*
X97562811Y-66930302D01*
X97180725Y-66675000D01*
X97562811Y-66419698D01*
X97873880Y-65954151D01*
X97983113Y-65405000D01*
X97873880Y-64855849D01*
X97562811Y-64390302D01*
X97418535Y-64293899D01*
X97555317Y-64268162D01*
X97771441Y-64129090D01*
X97916431Y-63916890D01*
X97967440Y-63665000D01*
X97967440Y-62065000D01*
X97923162Y-61829683D01*
X97784090Y-61613559D01*
X97571890Y-61468569D01*
X97320000Y-61417560D01*
X95720000Y-61417560D01*
X95484683Y-61461838D01*
X95268559Y-61600910D01*
X95123569Y-61813110D01*
X95072560Y-62065000D01*
X95072560Y-63665000D01*
X95116838Y-63900317D01*
X95255910Y-64116441D01*
X95468110Y-64261431D01*
X95623089Y-64292815D01*
X95477189Y-64390302D01*
X95166120Y-64855849D01*
X95056887Y-65405000D01*
X95166120Y-65954151D01*
X95477189Y-66419698D01*
X95859275Y-66675000D01*
X95477189Y-66930302D01*
X95166120Y-67395849D01*
X95056887Y-67945000D01*
X95166120Y-68494151D01*
X95477189Y-68959698D01*
X95859275Y-69215000D01*
X95477189Y-69470302D01*
X95166120Y-69935849D01*
X95056887Y-70485000D01*
X95166120Y-71034151D01*
X95220000Y-71114788D01*
X95220000Y-76846975D01*
X95139698Y-76766673D01*
X94906309Y-76670000D01*
X94265750Y-76670000D01*
X94107000Y-76828750D01*
X93853000Y-76828750D01*
X93694250Y-76670000D01*
X93053691Y-76670000D01*
X92820302Y-76766673D01*
X92641673Y-76945301D01*
X92545000Y-77178690D01*
X86886830Y-77178690D01*
X86804147Y-77054946D01*
X86474974Y-76835000D01*
X86804147Y-76615054D01*
X87126054Y-76133285D01*
X87239093Y-75565000D01*
X87126054Y-74996715D01*
X86804147Y-74514946D01*
X86375830Y-74228754D01*
X86536800Y-74162243D01*
X86940824Y-73758923D01*
X87159750Y-73231691D01*
X87160248Y-72660813D01*
X86942243Y-72133200D01*
X86538923Y-71729176D01*
X86011691Y-71510250D01*
X85440813Y-71509752D01*
X84913200Y-71727757D01*
X84509176Y-72131077D01*
X84290250Y-72658309D01*
X84289752Y-73229187D01*
X84507757Y-73756800D01*
X84911077Y-74160824D01*
X85074362Y-74228626D01*
X84645853Y-74514946D01*
X84323946Y-74996715D01*
X84210907Y-75565000D01*
X81990000Y-75565000D01*
X81990000Y-70769187D01*
X88099752Y-70769187D01*
X88317757Y-71296800D01*
X88721077Y-71700824D01*
X89248309Y-71919750D01*
X89819187Y-71920248D01*
X90346800Y-71702243D01*
X90750824Y-71298923D01*
X90969750Y-70771691D01*
X90970248Y-70200813D01*
X90752243Y-69673200D01*
X90348923Y-69269176D01*
X89821691Y-69050250D01*
X89250813Y-69049752D01*
X88723200Y-69267757D01*
X88319176Y-69671077D01*
X88100250Y-70198309D01*
X88099752Y-70769187D01*
X81990000Y-70769187D01*
X81990000Y-65689187D01*
X84289752Y-65689187D01*
X84507757Y-66216800D01*
X84911077Y-66620824D01*
X85041215Y-66674862D01*
X84913200Y-66727757D01*
X84509176Y-67131077D01*
X84290250Y-67658309D01*
X84289752Y-68229187D01*
X84507757Y-68756800D01*
X84911077Y-69160824D01*
X85438309Y-69379750D01*
X86009187Y-69380248D01*
X86536800Y-69162243D01*
X86940824Y-68758923D01*
X87159750Y-68231691D01*
X87160248Y-67660813D01*
X86942243Y-67133200D01*
X86538923Y-66729176D01*
X86408785Y-66675138D01*
X86536800Y-66622243D01*
X86940824Y-66218923D01*
X87159750Y-65691691D01*
X87160024Y-65376887D01*
X88100000Y-65376887D01*
X88100000Y-65433113D01*
X88209233Y-65982264D01*
X88520302Y-66447811D01*
X88985849Y-66758880D01*
X89535000Y-66868113D01*
X90084151Y-66758880D01*
X90549698Y-66447811D01*
X90860767Y-65982264D01*
X90970000Y-65433113D01*
X90970000Y-65376887D01*
X91910000Y-65376887D01*
X91910000Y-65433113D01*
X92019233Y-65982264D01*
X92330302Y-66447811D01*
X92795849Y-66758880D01*
X93345000Y-66868113D01*
X93894151Y-66758880D01*
X94359698Y-66447811D01*
X94670767Y-65982264D01*
X94780000Y-65433113D01*
X94780000Y-65376887D01*
X94670767Y-64827736D01*
X94359698Y-64362189D01*
X93894151Y-64051120D01*
X93345000Y-63941887D01*
X92795849Y-64051120D01*
X92330302Y-64362189D01*
X92019233Y-64827736D01*
X91910000Y-65376887D01*
X90970000Y-65376887D01*
X90860767Y-64827736D01*
X90549698Y-64362189D01*
X90084151Y-64051120D01*
X89535000Y-63941887D01*
X88985849Y-64051120D01*
X88520302Y-64362189D01*
X88209233Y-64827736D01*
X88100000Y-65376887D01*
X87160024Y-65376887D01*
X87160248Y-65120813D01*
X86942243Y-64593200D01*
X86538923Y-64189176D01*
X86011691Y-63970250D01*
X85440813Y-63969752D01*
X84913200Y-64187757D01*
X84509176Y-64591077D01*
X84290250Y-65118309D01*
X84289752Y-65689187D01*
X81990000Y-65689187D01*
X81990000Y-60674041D01*
X106558086Y-60674041D01*
X106797611Y-61180134D01*
X107212577Y-61556041D01*
X107600961Y-61716904D01*
X107823000Y-61594915D01*
X107823000Y-60452000D01*
X108077000Y-60452000D01*
X108077000Y-61594915D01*
X108299039Y-61716904D01*
X108687423Y-61556041D01*
X108829049Y-61427745D01*
X112201861Y-61427745D01*
X112275995Y-61673864D01*
X112813223Y-61866965D01*
X113383454Y-61839778D01*
X113784005Y-61673864D01*
X113858139Y-61427745D01*
X113030000Y-60599605D01*
X112201861Y-61427745D01*
X108829049Y-61427745D01*
X109102389Y-61180134D01*
X109341914Y-60674041D01*
X109220629Y-60452000D01*
X108077000Y-60452000D01*
X107823000Y-60452000D01*
X106679371Y-60452000D01*
X106558086Y-60674041D01*
X81990000Y-60674041D01*
X81990000Y-59975959D01*
X106558086Y-59975959D01*
X106679371Y-60198000D01*
X107823000Y-60198000D01*
X107823000Y-59055085D01*
X108077000Y-59055085D01*
X108077000Y-60198000D01*
X109220629Y-60198000D01*
X109341914Y-59975959D01*
X109102389Y-59469866D01*
X108687423Y-59093959D01*
X108299039Y-58933096D01*
X108077000Y-59055085D01*
X107823000Y-59055085D01*
X107600961Y-58933096D01*
X107212577Y-59093959D01*
X106797611Y-59469866D01*
X106558086Y-59975959D01*
X81990000Y-59975959D01*
X81990000Y-57620000D01*
X111582560Y-57620000D01*
X111582560Y-59220000D01*
X111626838Y-59455317D01*
X111765910Y-59671441D01*
X111772548Y-59675977D01*
X111583035Y-60203223D01*
X111610222Y-60773454D01*
X111776136Y-61174005D01*
X112022255Y-61248139D01*
X112850395Y-60420000D01*
X112836252Y-60405858D01*
X113015858Y-60226253D01*
X113030000Y-60240395D01*
X113044143Y-60226253D01*
X113223748Y-60405858D01*
X113209605Y-60420000D01*
X114037745Y-61248139D01*
X114283864Y-61174005D01*
X114476965Y-60636777D01*
X114449778Y-60066546D01*
X114287616Y-59675053D01*
X114426431Y-59471890D01*
X114477440Y-59220000D01*
X114477440Y-57620000D01*
X114433162Y-57384683D01*
X114294090Y-57168559D01*
X114081890Y-57023569D01*
X113830000Y-56972560D01*
X112230000Y-56972560D01*
X111994683Y-57016838D01*
X111778559Y-57155910D01*
X111633569Y-57368110D01*
X111582560Y-57620000D01*
X81990000Y-57620000D01*
X81990000Y-55594041D01*
X84333086Y-55594041D01*
X84572611Y-56100134D01*
X84987577Y-56476041D01*
X85375961Y-56636904D01*
X85598000Y-56514915D01*
X85598000Y-55372000D01*
X85852000Y-55372000D01*
X85852000Y-56514915D01*
X86074039Y-56636904D01*
X86462423Y-56476041D01*
X86877389Y-56100134D01*
X87116914Y-55594041D01*
X87081489Y-55529187D01*
X88099752Y-55529187D01*
X88317757Y-56056800D01*
X88721077Y-56460824D01*
X89248309Y-56679750D01*
X89819187Y-56680248D01*
X90346800Y-56462243D01*
X90750824Y-56058923D01*
X90969750Y-55531691D01*
X90969752Y-55529187D01*
X91909752Y-55529187D01*
X92127757Y-56056800D01*
X92531077Y-56460824D01*
X93058309Y-56679750D01*
X93629187Y-56680248D01*
X94156800Y-56462243D01*
X94560824Y-56058923D01*
X94779750Y-55531691D01*
X94780000Y-55245000D01*
X95056887Y-55245000D01*
X95166120Y-55794151D01*
X95477189Y-56259698D01*
X95942736Y-56570767D01*
X96491887Y-56680000D01*
X96548113Y-56680000D01*
X97097264Y-56570767D01*
X97562811Y-56259698D01*
X97873880Y-55794151D01*
X97926584Y-55529187D01*
X105244752Y-55529187D01*
X105462757Y-56056800D01*
X105866077Y-56460824D01*
X106393309Y-56679750D01*
X106964187Y-56680248D01*
X107491800Y-56462243D01*
X107895824Y-56058923D01*
X108114750Y-55531691D01*
X108115248Y-54960813D01*
X107897243Y-54433200D01*
X107493923Y-54029176D01*
X106966691Y-53810250D01*
X106395813Y-53809752D01*
X105868200Y-54027757D01*
X105464176Y-54431077D01*
X105245250Y-54958309D01*
X105244752Y-55529187D01*
X97926584Y-55529187D01*
X97983113Y-55245000D01*
X97873880Y-54695849D01*
X97562811Y-54230302D01*
X97097264Y-53919233D01*
X96548113Y-53810000D01*
X96491887Y-53810000D01*
X95942736Y-53919233D01*
X95477189Y-54230302D01*
X95166120Y-54695849D01*
X95056887Y-55245000D01*
X94780000Y-55245000D01*
X94780248Y-54960813D01*
X94562243Y-54433200D01*
X94158923Y-54029176D01*
X93631691Y-53810250D01*
X93060813Y-53809752D01*
X92533200Y-54027757D01*
X92129176Y-54431077D01*
X91910250Y-54958309D01*
X91909752Y-55529187D01*
X90969752Y-55529187D01*
X90970248Y-54960813D01*
X90752243Y-54433200D01*
X90348923Y-54029176D01*
X89821691Y-53810250D01*
X89250813Y-53809752D01*
X88723200Y-54027757D01*
X88319176Y-54431077D01*
X88100250Y-54958309D01*
X88099752Y-55529187D01*
X87081489Y-55529187D01*
X86995629Y-55372000D01*
X85852000Y-55372000D01*
X85598000Y-55372000D01*
X84454371Y-55372000D01*
X84333086Y-55594041D01*
X81990000Y-55594041D01*
X81990000Y-54895959D01*
X84333086Y-54895959D01*
X84454371Y-55118000D01*
X85598000Y-55118000D01*
X85598000Y-53975085D01*
X85852000Y-53975085D01*
X85852000Y-55118000D01*
X86995629Y-55118000D01*
X87116914Y-54895959D01*
X86877389Y-54389866D01*
X86462423Y-54013959D01*
X86074039Y-53853096D01*
X85852000Y-53975085D01*
X85598000Y-53975085D01*
X85375961Y-53853096D01*
X84987577Y-54013959D01*
X84572611Y-54389866D01*
X84333086Y-54895959D01*
X81990000Y-54895959D01*
X81990000Y-47518172D01*
X83057538Y-47518172D01*
X83462709Y-48498761D01*
X84212293Y-49249655D01*
X85192173Y-49656536D01*
X86253172Y-49657462D01*
X87233761Y-49252291D01*
X87984655Y-48502707D01*
X88391536Y-47522827D01*
X88391918Y-47084835D01*
X88623501Y-47316822D01*
X89315949Y-47604352D01*
X90065721Y-47605006D01*
X90758671Y-47318686D01*
X91289302Y-46788979D01*
X91576832Y-46096531D01*
X91576834Y-46093241D01*
X92808734Y-46093241D01*
X93095054Y-46786191D01*
X93624761Y-47316822D01*
X94317209Y-47604352D01*
X95066981Y-47605006D01*
X95759931Y-47318686D01*
X96290562Y-46788979D01*
X96578092Y-46096531D01*
X96578094Y-46093241D01*
X97809994Y-46093241D01*
X98096314Y-46786191D01*
X98626021Y-47316822D01*
X99318469Y-47604352D01*
X100068241Y-47605006D01*
X100761191Y-47318686D01*
X101027251Y-47053089D01*
X112033997Y-47053089D01*
X112163205Y-47345859D01*
X112863363Y-47614071D01*
X113612864Y-47593928D01*
X114211755Y-47345859D01*
X114340963Y-47053089D01*
X113187480Y-45899605D01*
X112033997Y-47053089D01*
X101027251Y-47053089D01*
X101291822Y-46788979D01*
X101579352Y-46096531D01*
X101579963Y-45395883D01*
X111293409Y-45395883D01*
X111313552Y-46145384D01*
X111561621Y-46744275D01*
X111854391Y-46873483D01*
X113007875Y-45720000D01*
X113367085Y-45720000D01*
X114520569Y-46873483D01*
X114813339Y-46744275D01*
X115062732Y-46093241D01*
X116303734Y-46093241D01*
X116590054Y-46786191D01*
X117119761Y-47316822D01*
X117428740Y-47445121D01*
X117428740Y-52148740D01*
X117486592Y-52439579D01*
X117651339Y-52686141D01*
X137590000Y-72624802D01*
X137590000Y-82581354D01*
X137538200Y-82602757D01*
X137134176Y-83006077D01*
X136915250Y-83533309D01*
X136914752Y-84104187D01*
X137132757Y-84631800D01*
X137536077Y-85035824D01*
X138063309Y-85254750D01*
X138634187Y-85255248D01*
X139161800Y-85037243D01*
X139565824Y-84633923D01*
X139784750Y-84106691D01*
X139785248Y-83535813D01*
X139567243Y-83008200D01*
X139163923Y-82604176D01*
X139110000Y-82581785D01*
X139110000Y-72310000D01*
X139052148Y-72019161D01*
X139052148Y-72019160D01*
X138887401Y-71772599D01*
X118948740Y-51833938D01*
X118948740Y-47445201D01*
X119254931Y-47318686D01*
X119785562Y-46788979D01*
X120073092Y-46096531D01*
X120073746Y-45346759D01*
X119787426Y-44653809D01*
X119257719Y-44123178D01*
X118565271Y-43835648D01*
X117815499Y-43834994D01*
X117122549Y-44121314D01*
X116591918Y-44651021D01*
X116304388Y-45343469D01*
X116303734Y-46093241D01*
X115062732Y-46093241D01*
X115081551Y-46044117D01*
X115061408Y-45294616D01*
X114813339Y-44695725D01*
X114520569Y-44566517D01*
X113367085Y-45720000D01*
X113007875Y-45720000D01*
X111854391Y-44566517D01*
X111561621Y-44695725D01*
X111293409Y-45395883D01*
X101579963Y-45395883D01*
X101580006Y-45346759D01*
X101293686Y-44653809D01*
X101027253Y-44386911D01*
X112033997Y-44386911D01*
X113187480Y-45540395D01*
X114340963Y-44386911D01*
X114211755Y-44094141D01*
X113511597Y-43825929D01*
X112762096Y-43846072D01*
X112163205Y-44094141D01*
X112033997Y-44386911D01*
X101027253Y-44386911D01*
X100763979Y-44123178D01*
X100071531Y-43835648D01*
X99321759Y-43834994D01*
X98628809Y-44121314D01*
X98098178Y-44651021D01*
X97810648Y-45343469D01*
X97809994Y-46093241D01*
X96578094Y-46093241D01*
X96578746Y-45346759D01*
X96292426Y-44653809D01*
X95762719Y-44123178D01*
X95070271Y-43835648D01*
X94320499Y-43834994D01*
X93627549Y-44121314D01*
X93096918Y-44651021D01*
X92809388Y-45343469D01*
X92808734Y-46093241D01*
X91576834Y-46093241D01*
X91577486Y-45346759D01*
X91291166Y-44653809D01*
X90761459Y-44123178D01*
X90069011Y-43835648D01*
X89319239Y-43834994D01*
X88626289Y-44121314D01*
X88095658Y-44651021D01*
X87820358Y-45314015D01*
X87237707Y-44730345D01*
X86257827Y-44323464D01*
X85196828Y-44322538D01*
X84216239Y-44727709D01*
X83465345Y-45477293D01*
X83058464Y-46457173D01*
X83057538Y-47518172D01*
X81990000Y-47518172D01*
X81990000Y-43255000D01*
X161215000Y-43255000D01*
X161215000Y-102160000D01*
M02*
